<?xml version="1.0" encoding="utf-8"?>
<svg xmlns="http://www.w3.org/2000/svg" xmlns:xlink="http://www.w3.org/1999/xlink" width="675" height="450" viewBox="0 0 2700 1800">
<defs>
  <clipPath id="clip510">
    <rect x="0" y="0" width="2700" height="1800"/>
  </clipPath>
</defs>
<path clip-path="url(#clip510)" d="
M0 1800 L2700 1800 L2700 0 L0 0  Z
  " fill="#ffffff" fill-rule="evenodd" fill-opacity="1"/>
<defs>
  <clipPath id="clip511">
    <rect x="540" y="0" width="1891" height="1800"/>
  </clipPath>
</defs>
<defs>
  <clipPath id="clip512">
    <rect x="2079" y="109" width="569" height="1497"/>
  </clipPath>
</defs>
<path clip-path="url(#clip510)" d="
M249.254 1605.79 L1296.85 1605.79 L1296.85 119.466 L249.254 119.466  Z
  " fill="#ffffff" fill-rule="evenodd" fill-opacity="1"/>
<defs>
  <clipPath id="clip513">
    <rect x="249" y="119" width="1049" height="1487"/>
  </clipPath>
</defs>
<polyline clip-path="url(#clip513)" style="stroke:#000000; stroke-width:2.25; stroke-opacity:0.1; fill:none" points="
  278.903,1605.79 278.903,119.466 
  "/>
<polyline clip-path="url(#clip513)" style="stroke:#000000; stroke-width:2.25; stroke-opacity:0.1; fill:none" points="
  430.355,1605.79 430.355,119.466 
  "/>
<polyline clip-path="url(#clip513)" style="stroke:#000000; stroke-width:2.25; stroke-opacity:0.1; fill:none" points="
  581.807,1605.79 581.807,119.466 
  "/>
<polyline clip-path="url(#clip513)" style="stroke:#000000; stroke-width:2.25; stroke-opacity:0.1; fill:none" points="
  733.26,1605.79 733.26,119.466 
  "/>
<polyline clip-path="url(#clip513)" style="stroke:#000000; stroke-width:2.25; stroke-opacity:0.1; fill:none" points="
  884.712,1605.79 884.712,119.466 
  "/>
<polyline clip-path="url(#clip513)" style="stroke:#000000; stroke-width:2.25; stroke-opacity:0.1; fill:none" points="
  1036.16,1605.79 1036.16,119.466 
  "/>
<polyline clip-path="url(#clip513)" style="stroke:#000000; stroke-width:2.25; stroke-opacity:0.1; fill:none" points="
  1187.62,1605.79 1187.62,119.466 
  "/>
<polyline clip-path="url(#clip510)" style="stroke:#000000; stroke-width:4.5; stroke-opacity:1; fill:none" points="
  249.254,1605.79 1296.85,1605.79 
  "/>
<polyline clip-path="url(#clip510)" style="stroke:#000000; stroke-width:4.5; stroke-opacity:1; fill:none" points="
  278.903,1605.79 278.903,1587.95 
  "/>
<polyline clip-path="url(#clip510)" style="stroke:#000000; stroke-width:4.5; stroke-opacity:1; fill:none" points="
  430.355,1605.79 430.355,1587.95 
  "/>
<polyline clip-path="url(#clip510)" style="stroke:#000000; stroke-width:4.5; stroke-opacity:1; fill:none" points="
  581.807,1605.79 581.807,1587.95 
  "/>
<polyline clip-path="url(#clip510)" style="stroke:#000000; stroke-width:4.5; stroke-opacity:1; fill:none" points="
  733.26,1605.79 733.26,1587.95 
  "/>
<polyline clip-path="url(#clip510)" style="stroke:#000000; stroke-width:4.5; stroke-opacity:1; fill:none" points="
  884.712,1605.79 884.712,1587.95 
  "/>
<polyline clip-path="url(#clip510)" style="stroke:#000000; stroke-width:4.5; stroke-opacity:1; fill:none" points="
  1036.16,1605.79 1036.16,1587.95 
  "/>
<polyline clip-path="url(#clip510)" style="stroke:#000000; stroke-width:4.5; stroke-opacity:1; fill:none" points="
  1187.62,1605.79 1187.62,1587.95 
  "/>
<path clip-path="url(#clip510)" d="M 0 0 M278.903 1638.63 Q274.841 1638.63 272.784 1642.64 Q270.752 1646.62 270.752 1654.64 Q270.752 1662.64 272.784 1666.65 Q274.841 1670.63 278.903 1670.63 Q282.992 1670.63 285.023 1666.65 Q287.08 1662.64 287.08 1654.64 Q287.08 1646.62 285.023 1642.64 Q282.992 1638.63 278.903 1638.63 M278.903 1634.46 Q285.44 1634.46 288.877 1639.64 Q292.341 1644.8 292.341 1654.64 Q292.341 1664.46 288.877 1669.64 Q285.44 1674.8 278.903 1674.8 Q272.367 1674.8 268.903 1669.64 Q265.466 1664.46 265.466 1654.64 Q265.466 1644.8 268.903 1639.64 Q272.367 1634.46 278.903 1634.46 Z" fill="#000000" fill-rule="evenodd" fill-opacity="1" /><path clip-path="url(#clip510)" d="M 0 0 M419.535 1669.62 L428.129 1669.62 L428.129 1639.95 L418.78 1641.83 L418.78 1637.04 L428.077 1635.16 L433.337 1635.16 L433.337 1669.62 L441.931 1669.62 L441.931 1674.04 L419.535 1674.04 L419.535 1669.62 Z" fill="#000000" fill-rule="evenodd" fill-opacity="1" /><path clip-path="url(#clip510)" d="M 0 0 M575.792 1669.62 L594.151 1669.62 L594.151 1674.04 L569.464 1674.04 L569.464 1669.62 Q572.459 1666.52 577.615 1661.31 Q582.797 1656.07 584.125 1654.56 Q586.651 1651.73 587.641 1649.77 Q588.656 1647.79 588.656 1645.89 Q588.656 1642.79 586.469 1640.84 Q584.307 1638.89 580.818 1638.89 Q578.344 1638.89 575.584 1639.75 Q572.849 1640.61 569.724 1642.35 L569.724 1637.04 Q572.901 1635.76 575.662 1635.11 Q578.422 1634.46 580.714 1634.46 Q586.755 1634.46 590.349 1637.48 Q593.943 1640.5 593.943 1645.55 Q593.943 1647.95 593.031 1650.11 Q592.146 1652.25 589.776 1655.16 Q589.125 1655.92 585.636 1659.54 Q582.146 1663.13 575.792 1669.62 Z" fill="#000000" fill-rule="evenodd" fill-opacity="1" /><path clip-path="url(#clip510)" d="M 0 0 M738.038 1653.08 Q741.814 1653.89 743.924 1656.44 Q746.059 1658.99 746.059 1662.74 Q746.059 1668.5 742.101 1671.65 Q738.142 1674.8 730.851 1674.8 Q728.403 1674.8 725.799 1674.3 Q723.221 1673.83 720.46 1672.87 L720.46 1667.79 Q722.648 1669.07 725.252 1669.72 Q727.856 1670.37 730.694 1670.37 Q735.642 1670.37 738.22 1668.42 Q740.825 1666.47 740.825 1662.74 Q740.825 1659.3 738.403 1657.38 Q736.007 1655.42 731.71 1655.42 L727.179 1655.42 L727.179 1651.1 L731.918 1651.1 Q735.799 1651.1 737.856 1649.56 Q739.913 1648 739.913 1645.09 Q739.913 1642.09 737.778 1640.5 Q735.668 1638.89 731.71 1638.89 Q729.549 1638.89 727.075 1639.36 Q724.601 1639.82 721.632 1640.81 L721.632 1636.13 Q724.627 1635.29 727.231 1634.88 Q729.861 1634.46 732.179 1634.46 Q738.168 1634.46 741.658 1637.19 Q745.147 1639.9 745.147 1644.54 Q745.147 1647.77 743.299 1650.01 Q741.45 1652.22 738.038 1653.08 Z" fill="#000000" fill-rule="evenodd" fill-opacity="1" /><path clip-path="url(#clip510)" d="M 0 0 M888.097 1639.75 L874.816 1660.5 L888.097 1660.5 L888.097 1639.75 M886.717 1635.16 L893.331 1635.16 L893.331 1660.5 L898.878 1660.5 L898.878 1664.88 L893.331 1664.88 L893.331 1674.04 L888.097 1674.04 L888.097 1664.88 L870.545 1664.88 L870.545 1659.8 L886.717 1635.16 Z" fill="#000000" fill-rule="evenodd" fill-opacity="1" /><path clip-path="url(#clip510)" d="M 0 0 M1025.23 1635.16 L1045.88 1635.16 L1045.88 1639.59 L1030.04 1639.59 L1030.04 1649.12 Q1031.19 1648.73 1032.34 1648.55 Q1033.48 1648.34 1034.63 1648.34 Q1041.14 1648.34 1044.94 1651.91 Q1048.74 1655.48 1048.74 1661.57 Q1048.74 1667.85 1044.84 1671.34 Q1040.93 1674.8 1033.82 1674.8 Q1031.37 1674.8 1028.82 1674.38 Q1026.29 1673.97 1023.59 1673.13 L1023.59 1667.85 Q1025.93 1669.12 1028.43 1669.75 Q1030.93 1670.37 1033.72 1670.37 Q1038.22 1670.37 1040.85 1668 Q1043.48 1665.63 1043.48 1661.57 Q1043.48 1657.51 1040.85 1655.14 Q1038.22 1652.77 1033.72 1652.77 Q1031.61 1652.77 1029.5 1653.24 Q1027.41 1653.7 1025.23 1654.69 L1025.23 1635.16 Z" fill="#000000" fill-rule="evenodd" fill-opacity="1" /><path clip-path="url(#clip510)" d="M 0 0 M1188.07 1652.51 Q1184.53 1652.51 1182.45 1654.93 Q1180.39 1657.35 1180.39 1661.57 Q1180.39 1665.76 1182.45 1668.21 Q1184.53 1670.63 1188.07 1670.63 Q1191.61 1670.63 1193.67 1668.21 Q1195.75 1665.76 1195.75 1661.57 Q1195.75 1657.35 1193.67 1654.93 Q1191.61 1652.51 1188.07 1652.51 M1198.51 1636.02 L1198.51 1640.81 Q1196.54 1639.88 1194.5 1639.38 Q1192.5 1638.89 1190.52 1638.89 Q1185.31 1638.89 1182.55 1642.4 Q1179.82 1645.92 1179.43 1653.03 Q1180.96 1650.76 1183.28 1649.56 Q1185.6 1648.34 1188.38 1648.34 Q1194.24 1648.34 1197.63 1651.91 Q1201.04 1655.45 1201.04 1661.57 Q1201.04 1667.56 1197.5 1671.18 Q1193.96 1674.8 1188.07 1674.8 Q1181.33 1674.8 1177.76 1669.64 Q1174.19 1664.46 1174.19 1654.64 Q1174.19 1645.42 1178.57 1639.95 Q1182.94 1634.46 1190.31 1634.46 Q1192.29 1634.46 1194.3 1634.85 Q1196.33 1635.24 1198.51 1636.02 Z" fill="#000000" fill-rule="evenodd" fill-opacity="1" /><path clip-path="url(#clip510)" d="M 0 0 M732.66 1703.7 L731.175 1716.52 Q731.066 1717.68 730.885 1718.04 Q730.704 1718.37 730.124 1718.37 Q729.689 1718.37 729.436 1718.12 Q729.218 1717.83 729.218 1717.5 Q729.218 1717.32 729.254 1716.85 Q729.291 1716.38 729.291 1716.16 Q729.617 1713.91 729.617 1712.21 Q729.617 1709.06 728.675 1707.36 Q727.733 1705.62 725.305 1704.82 Q722.878 1703.99 718.313 1703.99 L707.878 1703.99 Q705.487 1703.99 704.907 1704.42 Q704.363 1704.86 703.856 1706.89 L699.4 1724.75 L706.392 1724.75 Q709.001 1724.75 710.559 1724.42 Q712.153 1724.1 713.204 1723.19 Q714.291 1722.25 714.871 1720.98 Q715.486 1719.71 716.102 1717.43 Q716.284 1716.67 716.465 1716.38 Q716.682 1716.09 717.153 1716.09 Q717.515 1716.09 717.769 1716.34 Q718.023 1716.56 718.023 1716.89 L713.784 1734.24 Q713.566 1735.11 713.349 1735.44 Q713.131 1735.73 712.697 1735.73 Q712.226 1735.73 711.972 1735.47 Q711.718 1735.22 711.718 1734.93 Q711.718 1734.64 711.936 1734.1 Q712.479 1731.74 712.479 1730.47 Q712.479 1729.75 712.407 1729.39 Q712.371 1729.02 712.044 1728.52 Q711.755 1727.97 711.102 1727.72 Q710.45 1727.46 709.218 1727.28 Q707.987 1727.07 706.139 1727.07 L698.82 1727.07 L693.748 1747.32 Q693.385 1748.66 693.385 1749.02 Q693.385 1749.42 693.566 1749.57 Q693.784 1749.67 694.363 1749.75 Q695.016 1749.86 695.994 1749.86 L706.827 1749.86 Q709.218 1749.86 711.139 1749.64 Q713.059 1749.42 714.653 1748.88 Q716.284 1748.33 717.515 1747.72 Q718.747 1747.1 719.907 1745.98 Q721.066 1744.82 721.863 1743.81 Q722.697 1742.75 723.675 1740.98 Q724.653 1739.2 725.341 1737.75 Q726.03 1736.27 727.081 1733.88 Q727.37 1733.01 728.059 1733.01 Q728.457 1733.01 728.675 1733.23 Q728.892 1733.41 728.928 1733.59 L728.928 1733.81 Q728.711 1734.49 728.566 1734.86 L721.755 1750.87 Q721.356 1751.78 721.03 1751.96 Q720.704 1752.14 719.436 1752.14 L680.922 1752.14 Q680.052 1752.14 679.69 1752.1 Q679.364 1752.07 679.11 1751.88 Q678.856 1751.67 678.856 1751.23 Q678.856 1750.54 679.146 1750.25 Q679.436 1749.93 679.762 1749.89 Q680.088 1749.86 680.922 1749.86 Q682.733 1749.86 683.82 1749.75 Q684.907 1749.64 685.595 1749.49 Q686.32 1749.31 686.682 1748.81 Q687.081 1748.3 687.262 1747.86 Q687.443 1747.39 687.697 1746.34 L697.479 1707.1 Q697.842 1705.76 697.842 1705.33 Q697.842 1704.86 697.516 1704.57 Q697.226 1704.28 696.429 1704.17 Q695.632 1704.02 694.979 1704.02 Q694.363 1703.99 693.023 1703.99 Q692.153 1703.99 691.791 1703.95 Q691.465 1703.91 691.211 1703.73 Q690.958 1703.55 690.958 1703.15 Q690.958 1702.14 691.392 1701.92 Q691.863 1701.67 693.168 1701.67 L730.631 1701.67 Q732.117 1701.67 732.443 1701.99 Q732.805 1702.28 732.66 1703.7 Z" fill="#000000" fill-rule="evenodd" fill-opacity="1" /><path clip-path="url(#clip510)" d="M 0 0 M733.119 1733.59 Q733.119 1721.05 737.793 1710.94 Q739.785 1706.7 742.575 1703.15 Q745.365 1699.6 747.213 1698.04 Q749.061 1696.49 749.568 1696.49 Q750.292 1696.49 750.329 1697.21 Q750.329 1697.57 749.35 1698.48 Q737.394 1710.65 737.43 1733.59 Q737.43 1756.6 749.061 1768.3 Q750.329 1769.57 750.329 1769.96 Q750.329 1770.69 749.568 1770.69 Q749.061 1770.69 747.285 1769.2 Q745.51 1767.72 742.756 1764.31 Q740.003 1760.91 738.01 1756.74 Q733.119 1746.63 733.119 1733.59 Z" fill="#000000" fill-rule="evenodd" fill-opacity="1" /><path clip-path="url(#clip510)" d="M 0 0 M789.857 1743.55 Q790.147 1743.88 790.147 1744.2 Q790.147 1744.53 789.422 1745.47 Q788.734 1746.41 787.248 1747.68 Q785.763 1748.95 783.842 1750.15 Q781.922 1751.34 779.096 1752.14 Q776.27 1752.97 773.299 1752.97 Q767.973 1752.97 764.785 1749.17 Q761.632 1745.36 761.632 1739.53 Q761.632 1735.8 762.864 1732.5 Q764.096 1729.17 766.089 1726.81 Q768.118 1724.46 770.654 1722.75 Q773.227 1721.02 775.908 1720.18 Q778.589 1719.35 781.089 1719.35 Q784.748 1719.35 786.886 1721.2 Q789.024 1723.04 789.024 1725.65 Q789.024 1726.27 788.842 1727.03 Q788.697 1727.79 788.19 1728.99 Q787.719 1730.18 786.487 1731.38 Q785.255 1732.54 783.444 1733.3 Q779.422 1735 772.103 1735 L768.154 1735 Q766.995 1739.67 766.995 1742.72 Q766.995 1743.91 767.212 1745.15 Q767.43 1746.34 768.009 1747.86 Q768.625 1749.38 770.002 1750.36 Q771.415 1751.31 773.444 1751.31 Q774.096 1751.31 774.785 1751.27 Q775.509 1751.23 777.321 1750.83 Q779.169 1750.44 780.799 1749.75 Q782.429 1749.06 784.495 1747.57 Q786.596 1746.05 788.263 1743.99 Q788.842 1743.23 789.241 1743.23 Q789.567 1743.23 789.857 1743.55 M786.56 1725.65 Q786.56 1723.66 785.074 1722.32 Q783.625 1720.98 781.089 1720.98 Q780.292 1720.98 779.314 1721.16 Q778.335 1721.34 776.705 1722.1 Q775.111 1722.86 773.698 1724.13 Q772.285 1725.36 770.872 1727.79 Q769.459 1730.18 768.625 1733.37 L771.669 1733.37 Q772.719 1733.37 773.48 1733.37 Q774.241 1733.33 775.908 1733.19 Q777.611 1733.04 778.842 1732.79 Q780.074 1732.5 781.632 1731.92 Q783.19 1731.34 784.169 1730.58 Q785.183 1729.78 785.871 1728.52 Q786.56 1727.25 786.56 1725.65 Z" fill="#000000" fill-rule="evenodd" fill-opacity="1" /><path clip-path="url(#clip510)" d="M 0 0 M848.79 1702.36 Q848.718 1703.7 847.812 1703.77 Q846.435 1703.84 845.602 1704.02 Q844.769 1704.17 843.464 1704.71 Q842.16 1705.25 840.892 1706.56 Q839.624 1707.86 838.319 1709.93 L811.617 1752.43 Q811.146 1753.23 810.747 1753.48 Q810.385 1753.77 809.551 1753.77 Q808.791 1753.77 808.501 1753.44 Q808.211 1753.15 808.066 1752.07 L802.196 1706.27 Q802.088 1705.44 801.979 1705.07 Q801.87 1704.71 801.436 1704.35 Q801.037 1703.99 800.167 1703.88 Q799.298 1703.77 797.74 1703.77 Q797.015 1703.77 796.689 1703.73 Q796.399 1703.7 796.146 1703.52 Q795.892 1703.3 795.892 1702.86 Q795.892 1702.21 796.146 1701.89 Q796.436 1701.52 796.653 1701.49 Q796.907 1701.45 797.305 1701.45 Q797.921 1701.45 799.262 1701.52 Q800.602 1701.6 801.291 1701.6 Q801.943 1701.6 803.32 1701.63 Q804.696 1701.67 805.385 1701.67 Q806.907 1701.67 809.986 1701.56 Q813.102 1701.45 814.588 1701.45 Q815.602 1701.45 815.602 1702.28 Q815.602 1703.3 815.167 1703.55 Q814.733 1703.77 813.754 1703.77 Q811.291 1703.77 809.95 1704.39 Q808.646 1705 808.646 1705.98 L813.682 1745.25 L836.471 1709.02 Q837.595 1707.32 837.595 1706.2 Q837.595 1704.02 834.153 1703.77 Q832.993 1703.77 832.993 1702.86 Q832.993 1702.21 833.283 1701.89 Q833.573 1701.52 833.79 1701.49 Q834.044 1701.45 834.406 1701.45 Q835.602 1701.45 838.029 1701.56 Q840.493 1701.67 841.725 1701.67 Q842.74 1701.67 844.805 1701.56 Q846.87 1701.45 847.812 1701.45 Q848.79 1701.45 848.79 1702.36 Z" fill="#000000" fill-rule="evenodd" fill-opacity="1" /><path clip-path="url(#clip510)" d="M 0 0 M838.735 1769.96 Q838.735 1769.6 839.677 1768.7 Q851.633 1756.52 851.633 1733.59 Q851.633 1710.58 840.148 1698.95 Q838.735 1697.61 838.735 1697.21 Q838.735 1696.49 839.459 1696.49 Q839.966 1696.49 841.742 1697.97 Q843.553 1699.46 846.271 1702.86 Q849.024 1706.27 851.053 1710.44 Q855.945 1720.54 855.945 1733.59 Q855.945 1746.12 851.271 1756.23 Q849.278 1760.47 846.488 1764.02 Q843.698 1767.57 841.851 1769.13 Q840.003 1770.69 839.459 1770.69 Q838.735 1770.69 838.735 1769.96 Z" fill="#000000" fill-rule="evenodd" fill-opacity="1" /><polyline clip-path="url(#clip513)" style="stroke:#000000; stroke-width:2.25; stroke-opacity:0.1; fill:none" points="
  249.254,1563.72 1296.85,1563.72 
  "/>
<polyline clip-path="url(#clip513)" style="stroke:#000000; stroke-width:2.25; stroke-opacity:0.1; fill:none" points="
  249.254,1315.29 1296.85,1315.29 
  "/>
<polyline clip-path="url(#clip513)" style="stroke:#000000; stroke-width:2.25; stroke-opacity:0.1; fill:none" points="
  249.254,1066.85 1296.85,1066.85 
  "/>
<polyline clip-path="url(#clip513)" style="stroke:#000000; stroke-width:2.25; stroke-opacity:0.1; fill:none" points="
  249.254,818.422 1296.85,818.422 
  "/>
<polyline clip-path="url(#clip513)" style="stroke:#000000; stroke-width:2.25; stroke-opacity:0.1; fill:none" points="
  249.254,569.988 1296.85,569.988 
  "/>
<polyline clip-path="url(#clip513)" style="stroke:#000000; stroke-width:2.25; stroke-opacity:0.1; fill:none" points="
  249.254,321.555 1296.85,321.555 
  "/>
<polyline clip-path="url(#clip510)" style="stroke:#000000; stroke-width:4.5; stroke-opacity:1; fill:none" points="
  249.254,1605.79 249.254,119.466 
  "/>
<polyline clip-path="url(#clip510)" style="stroke:#000000; stroke-width:4.5; stroke-opacity:1; fill:none" points="
  249.254,1563.72 261.825,1563.72 
  "/>
<polyline clip-path="url(#clip510)" style="stroke:#000000; stroke-width:4.5; stroke-opacity:1; fill:none" points="
  249.254,1315.29 261.825,1315.29 
  "/>
<polyline clip-path="url(#clip510)" style="stroke:#000000; stroke-width:4.5; stroke-opacity:1; fill:none" points="
  249.254,1066.85 261.825,1066.85 
  "/>
<polyline clip-path="url(#clip510)" style="stroke:#000000; stroke-width:4.5; stroke-opacity:1; fill:none" points="
  249.254,818.422 261.825,818.422 
  "/>
<polyline clip-path="url(#clip510)" style="stroke:#000000; stroke-width:4.5; stroke-opacity:1; fill:none" points="
  249.254,569.988 261.825,569.988 
  "/>
<polyline clip-path="url(#clip510)" style="stroke:#000000; stroke-width:4.5; stroke-opacity:1; fill:none" points="
  249.254,321.555 261.825,321.555 
  "/>
<path clip-path="url(#clip510)" d="M 0 0 M153.729 1547.75 Q149.666 1547.75 147.609 1551.76 Q145.578 1555.74 145.578 1563.76 Q145.578 1571.76 147.609 1575.77 Q149.666 1579.75 153.729 1579.75 Q157.817 1579.75 159.848 1575.77 Q161.906 1571.76 161.906 1563.76 Q161.906 1555.74 159.848 1551.76 Q157.817 1547.75 153.729 1547.75 M153.729 1543.58 Q160.265 1543.58 163.702 1548.76 Q167.166 1553.92 167.166 1563.76 Q167.166 1573.58 163.702 1578.76 Q160.265 1583.92 153.729 1583.92 Q147.192 1583.92 143.729 1578.76 Q140.291 1573.58 140.291 1563.76 Q140.291 1553.92 143.729 1548.76 Q147.192 1543.58 153.729 1543.58 Z" fill="#000000" fill-rule="evenodd" fill-opacity="1" /><path clip-path="url(#clip510)" d="M 0 0 M172.869 1576.55 L178.364 1576.55 L178.364 1583.16 L172.869 1583.16 L172.869 1576.55 Z" fill="#000000" fill-rule="evenodd" fill-opacity="1" /><path clip-path="url(#clip510)" d="M 0 0 M195.317 1547.75 Q191.254 1547.75 189.197 1551.76 Q187.166 1555.74 187.166 1563.76 Q187.166 1571.76 189.197 1575.77 Q191.254 1579.75 195.317 1579.75 Q199.405 1579.75 201.437 1575.77 Q203.494 1571.76 203.494 1563.76 Q203.494 1555.74 201.437 1551.76 Q199.405 1547.75 195.317 1547.75 M195.317 1543.58 Q201.853 1543.58 205.291 1548.76 Q208.754 1553.92 208.754 1563.76 Q208.754 1573.58 205.291 1578.76 Q201.853 1583.92 195.317 1583.92 Q188.78 1583.92 185.317 1578.76 Q181.879 1573.58 181.879 1563.76 Q181.879 1553.92 185.317 1548.76 Q188.78 1543.58 195.317 1543.58 Z" fill="#000000" fill-rule="evenodd" fill-opacity="1" /><path clip-path="url(#clip510)" d="M 0 0 M155.109 1299.31 Q151.046 1299.31 148.989 1303.32 Q146.958 1307.31 146.958 1315.33 Q146.958 1323.32 148.989 1327.33 Q151.046 1331.32 155.109 1331.32 Q159.197 1331.32 161.229 1327.33 Q163.286 1323.32 163.286 1315.33 Q163.286 1307.31 161.229 1303.32 Q159.197 1299.31 155.109 1299.31 M155.109 1295.15 Q161.645 1295.15 165.083 1300.33 Q168.546 1305.48 168.546 1315.33 Q168.546 1325.14 165.083 1330.33 Q161.645 1335.48 155.109 1335.48 Q148.572 1335.48 145.109 1330.33 Q141.671 1325.14 141.671 1315.33 Q141.671 1305.48 145.109 1300.33 Q148.572 1295.15 155.109 1295.15 Z" fill="#000000" fill-rule="evenodd" fill-opacity="1" /><path clip-path="url(#clip510)" d="M 0 0 M174.249 1328.11 L179.744 1328.11 L179.744 1334.73 L174.249 1334.73 L174.249 1328.11 Z" fill="#000000" fill-rule="evenodd" fill-opacity="1" /><path clip-path="url(#clip510)" d="M 0 0 M186.359 1330.3 L194.952 1330.3 L194.952 1300.64 L185.603 1302.51 L185.603 1297.72 L194.9 1295.85 L200.161 1295.85 L200.161 1330.3 L208.754 1330.3 L208.754 1334.73 L186.359 1334.73 L186.359 1330.3 Z" fill="#000000" fill-rule="evenodd" fill-opacity="1" /><path clip-path="url(#clip510)" d="M 0 0 M155.525 1050.88 Q151.463 1050.88 149.406 1054.89 Q147.374 1058.87 147.374 1066.89 Q147.374 1074.89 149.406 1078.9 Q151.463 1082.88 155.525 1082.88 Q159.614 1082.88 161.645 1078.9 Q163.702 1074.89 163.702 1066.89 Q163.702 1058.87 161.645 1054.89 Q159.614 1050.88 155.525 1050.88 M155.525 1046.71 Q162.062 1046.71 165.499 1051.89 Q168.963 1057.05 168.963 1066.89 Q168.963 1076.71 165.499 1081.89 Q162.062 1087.05 155.525 1087.05 Q148.989 1087.05 145.525 1081.89 Q142.088 1076.71 142.088 1066.89 Q142.088 1057.05 145.525 1051.89 Q148.989 1046.71 155.525 1046.71 Z" fill="#000000" fill-rule="evenodd" fill-opacity="1" /><path clip-path="url(#clip510)" d="M 0 0 M174.666 1079.68 L180.161 1079.68 L180.161 1086.29 L174.666 1086.29 L174.666 1079.68 Z" fill="#000000" fill-rule="evenodd" fill-opacity="1" /><path clip-path="url(#clip510)" d="M 0 0 M190.395 1081.87 L208.754 1081.87 L208.754 1086.29 L184.067 1086.29 L184.067 1081.87 Q187.062 1078.77 192.218 1073.56 Q197.4 1068.33 198.728 1066.82 Q201.254 1063.98 202.244 1062.02 Q203.26 1060.05 203.26 1058.14 Q203.26 1055.05 201.072 1053.09 Q198.911 1051.14 195.421 1051.14 Q192.947 1051.14 190.187 1052 Q187.452 1052.86 184.327 1054.6 L184.327 1049.29 Q187.504 1048.01 190.265 1047.36 Q193.025 1046.71 195.317 1046.71 Q201.359 1046.71 204.952 1049.73 Q208.546 1052.75 208.546 1057.81 Q208.546 1060.2 207.635 1062.36 Q206.749 1064.5 204.379 1067.41 Q203.728 1068.17 200.239 1071.79 Q196.749 1075.38 190.395 1081.87 Z" fill="#000000" fill-rule="evenodd" fill-opacity="1" /><path clip-path="url(#clip510)" d="M 0 0 M154.458 802.445 Q150.395 802.445 148.338 806.455 Q146.307 810.44 146.307 818.461 Q146.307 826.455 148.338 830.466 Q150.395 834.45 154.458 834.45 Q158.546 834.45 160.578 830.466 Q162.635 826.455 162.635 818.461 Q162.635 810.44 160.578 806.455 Q158.546 802.445 154.458 802.445 M154.458 798.278 Q160.994 798.278 164.432 803.461 Q167.895 808.617 167.895 818.461 Q167.895 828.278 164.432 833.46 Q160.994 838.617 154.458 838.617 Q147.921 838.617 144.458 833.46 Q141.02 828.278 141.02 818.461 Q141.02 808.617 144.458 803.461 Q147.921 798.278 154.458 798.278 Z" fill="#000000" fill-rule="evenodd" fill-opacity="1" /><path clip-path="url(#clip510)" d="M 0 0 M173.598 831.247 L179.093 831.247 L179.093 837.862 L173.598 837.862 L173.598 831.247 Z" fill="#000000" fill-rule="evenodd" fill-opacity="1" /><path clip-path="url(#clip510)" d="M 0 0 M200.734 816.898 Q204.51 817.705 206.619 820.257 Q208.754 822.809 208.754 826.559 Q208.754 832.315 204.796 835.466 Q200.838 838.617 193.546 838.617 Q191.098 838.617 188.494 838.122 Q185.916 837.653 183.156 836.69 L183.156 831.612 Q185.343 832.888 187.947 833.539 Q190.551 834.19 193.39 834.19 Q198.338 834.19 200.916 832.237 Q203.52 830.283 203.52 826.559 Q203.52 823.122 201.098 821.195 Q198.702 819.242 194.405 819.242 L189.874 819.242 L189.874 814.919 L194.614 814.919 Q198.494 814.919 200.551 813.382 Q202.609 811.82 202.609 808.903 Q202.609 805.909 200.473 804.32 Q198.364 802.705 194.405 802.705 Q192.244 802.705 189.77 803.174 Q187.296 803.643 184.327 804.633 L184.327 799.945 Q187.322 799.112 189.926 798.695 Q192.556 798.278 194.874 798.278 Q200.864 798.278 204.353 801.013 Q207.843 803.721 207.843 808.356 Q207.843 811.586 205.994 813.825 Q204.145 816.039 200.734 816.898 Z" fill="#000000" fill-rule="evenodd" fill-opacity="1" /><path clip-path="url(#clip510)" d="M 0 0 M153.182 554.012 Q149.119 554.012 147.062 558.022 Q145.031 562.006 145.031 570.027 Q145.031 578.022 147.062 582.032 Q149.119 586.017 153.182 586.017 Q157.27 586.017 159.301 582.032 Q161.359 578.022 161.359 570.027 Q161.359 562.006 159.301 558.022 Q157.27 554.012 153.182 554.012 M153.182 549.845 Q159.718 549.845 163.156 555.027 Q166.619 560.183 166.619 570.027 Q166.619 579.845 163.156 585.027 Q159.718 590.183 153.182 590.183 Q146.645 590.183 143.182 585.027 Q139.744 579.845 139.744 570.027 Q139.744 560.183 143.182 555.027 Q146.645 549.845 153.182 549.845 Z" fill="#000000" fill-rule="evenodd" fill-opacity="1" /><path clip-path="url(#clip510)" d="M 0 0 M172.322 582.814 L177.817 582.814 L177.817 589.428 L172.322 589.428 L172.322 582.814 Z" fill="#000000" fill-rule="evenodd" fill-opacity="1" /><path clip-path="url(#clip510)" d="M 0 0 M197.973 555.131 L184.692 575.887 L197.973 575.887 L197.973 555.131 M196.593 550.548 L203.207 550.548 L203.207 575.887 L208.754 575.887 L208.754 580.262 L203.207 580.262 L203.207 589.428 L197.973 589.428 L197.973 580.262 L180.421 580.262 L180.421 575.183 L196.593 550.548 Z" fill="#000000" fill-rule="evenodd" fill-opacity="1" /><path clip-path="url(#clip510)" d="M 0 0 M154.848 305.578 Q150.786 305.578 148.729 309.589 Q146.697 313.573 146.697 321.594 Q146.697 329.589 148.729 333.599 Q150.786 337.583 154.848 337.583 Q158.937 337.583 160.968 333.599 Q163.025 329.589 163.025 321.594 Q163.025 313.573 160.968 309.589 Q158.937 305.578 154.848 305.578 M154.848 301.412 Q161.385 301.412 164.822 306.594 Q168.286 311.75 168.286 321.594 Q168.286 331.411 164.822 336.594 Q161.385 341.75 154.848 341.75 Q148.312 341.75 144.848 336.594 Q141.411 331.411 141.411 321.594 Q141.411 311.75 144.848 306.594 Q148.312 301.412 154.848 301.412 Z" fill="#000000" fill-rule="evenodd" fill-opacity="1" /><path clip-path="url(#clip510)" d="M 0 0 M173.989 334.38 L179.484 334.38 L179.484 340.995 L173.989 340.995 L173.989 334.38 Z" fill="#000000" fill-rule="evenodd" fill-opacity="1" /><path clip-path="url(#clip510)" d="M 0 0 M185.239 302.115 L205.89 302.115 L205.89 306.542 L190.057 306.542 L190.057 316.073 Q191.202 315.682 192.348 315.5 Q193.494 315.292 194.64 315.292 Q201.15 315.292 204.952 318.859 Q208.754 322.427 208.754 328.521 Q208.754 334.797 204.848 338.286 Q200.942 341.75 193.833 341.75 Q191.385 341.75 188.833 341.333 Q186.307 340.917 183.598 340.083 L183.598 334.797 Q185.942 336.073 188.442 336.698 Q190.942 337.323 193.728 337.323 Q198.234 337.323 200.864 334.953 Q203.494 332.583 203.494 328.521 Q203.494 324.458 200.864 322.089 Q198.234 319.719 193.728 319.719 Q191.619 319.719 189.51 320.188 Q187.426 320.656 185.239 321.646 L185.239 302.115 Z" fill="#000000" fill-rule="evenodd" fill-opacity="1" /><path clip-path="url(#clip510)" d="M 0 0 M72.1117 956.853 Q59.5756 956.853 49.4669 952.179 Q45.2279 950.186 41.6772 947.397 Q38.1265 944.607 36.5685 942.759 Q35.0105 940.911 35.0105 940.404 Q35.0105 939.679 35.7352 939.643 Q36.0975 939.643 37.0033 940.621 Q49.1771 952.578 72.1117 952.541 Q95.1188 952.541 106.822 940.911 Q108.09 939.643 108.488 939.643 Q109.213 939.643 109.213 940.404 Q109.213 940.911 107.727 942.686 Q106.242 944.462 102.836 947.215 Q99.4303 949.969 95.2637 951.962 Q85.1551 956.853 72.1117 956.853 Z" fill="#000000" fill-rule="evenodd" fill-opacity="1" /><path clip-path="url(#clip510)" d="M 0 0 M62.2567 886.709 Q62.619 886.782 63.2712 886.926 Q63.8871 887.071 65.8436 887.724 Q67.8001 888.376 69.7929 889.245 Q71.7494 890.079 74.503 891.709 Q77.2203 893.303 79.6841 895.26 Q80.3363 895.803 80.7348 895.912 Q81.0971 895.984 82.2928 895.984 Q89.8289 895.984 89.8289 893.702 Q89.8289 893.593 89.8289 893.412 Q89.7927 893.195 89.6116 892.651 Q89.3942 892.071 89.0681 891.564 Q88.7058 891.057 87.9811 890.477 Q87.2203 889.897 86.2058 889.535 Q85.4812 889.209 85.4812 888.557 Q85.4812 887.687 86.2058 887.687 Q87.5101 887.687 89.5029 889.499 Q91.4956 891.311 91.4956 893.919 Q91.4956 896.419 89.8652 898.195 Q88.1985 899.934 85.2275 900.658 Q91.4956 908.484 91.4956 916.31 Q91.4956 921.818 87.9087 925.078 Q84.2855 928.339 78.9232 928.339 Q73.7783 928.339 68.8871 925.513 Q63.9958 922.651 60.9524 918.013 Q57.8727 913.339 57.8727 908.376 Q57.8727 906.636 58.3437 904.97 Q58.7785 903.303 59.9016 901.637 Q61.0248 899.97 62.7277 898.738 Q64.4306 897.506 67.1117 896.745 Q69.7929 895.984 73.1624 895.984 L77.7638 895.984 Q71.7131 891.202 63.0538 888.702 Q61.7495 888.34 61.6045 888.122 Q61.4958 887.977 61.4958 887.615 Q61.4958 887.253 61.7132 887.035 Q61.8944 886.782 62.0755 886.745 L62.2567 886.709 M83.3073 900.948 Q82.0391 901.093 75.0102 901.093 Q73.6697 901.093 72.945 901.093 Q72.1842 901.093 70.7349 901.165 Q69.2856 901.238 68.3798 901.383 Q67.474 901.492 66.1697 901.745 Q64.8654 901.999 64.032 902.361 Q63.1987 902.723 62.2567 903.303 Q61.3147 903.847 60.7712 904.571 Q60.2277 905.26 59.8654 906.274 Q59.5031 907.252 59.5031 908.448 Q59.5031 909.934 60.0466 911.492 Q60.5538 913.013 62.1842 914.97 Q63.7784 916.926 66.3146 918.557 Q68.9958 920.26 73.9233 921.564 Q78.8145 922.832 81.7493 922.832 Q85.4449 922.832 87.655 921.129 Q89.8289 919.426 89.8289 916.165 Q89.8289 908.376 83.3073 900.948 Z" fill="#000000" fill-rule="evenodd" fill-opacity="1" /><path clip-path="url(#clip510)" d="M 0 0 M42.2206 827.491 L55.0466 828.977 Q56.206 829.085 56.5683 829.266 Q56.8944 829.448 56.8944 830.027 Q56.8944 830.462 56.6408 830.716 Q56.3509 830.933 56.0249 830.933 Q55.8437 830.933 55.3727 830.897 Q54.9017 830.861 54.6843 830.861 Q52.4379 830.535 50.7351 830.535 Q47.5829 830.535 45.88 831.477 Q44.1409 832.419 43.3438 834.846 Q42.5105 837.274 42.5105 841.839 L42.5105 852.274 Q42.5105 854.665 42.9453 855.245 Q43.38 855.788 45.409 856.295 L63.2712 860.752 L63.2712 853.759 Q63.2712 851.15 62.9451 849.592 Q62.619 847.998 61.7132 846.947 Q60.7712 845.861 59.5031 845.281 Q58.235 844.665 55.9524 844.049 Q55.1915 843.868 54.9017 843.687 Q54.6118 843.469 54.6118 842.998 Q54.6118 842.636 54.8655 842.382 Q55.0828 842.129 55.4089 842.129 L72.7639 846.368 Q73.6334 846.585 73.9595 846.803 Q74.2494 847.02 74.2494 847.455 Q74.2494 847.926 73.9957 848.179 Q73.7421 848.433 73.4523 848.433 Q73.1624 848.433 72.6189 848.216 Q70.2639 847.672 68.9958 847.672 Q68.2711 847.672 67.9088 847.745 Q67.5465 847.781 67.0393 848.107 Q66.4958 848.397 66.2422 849.049 Q65.9886 849.701 65.8074 850.933 Q65.59 852.165 65.59 854.013 L65.59 861.331 L85.8435 866.404 Q87.184 866.766 87.5464 866.766 Q87.9449 866.766 88.0898 866.585 Q88.1985 866.368 88.271 865.788 Q88.3797 865.136 88.3797 864.158 L88.3797 853.324 Q88.3797 850.933 88.1623 849.013 Q87.9449 847.092 87.4014 845.498 Q86.858 843.868 86.242 842.636 Q85.6261 841.404 84.5029 840.245 Q83.3435 839.085 82.329 838.288 Q81.2783 837.455 79.5029 836.477 Q77.7276 835.498 76.2783 834.81 Q74.7928 834.122 72.4015 833.071 Q71.532 832.781 71.532 832.093 Q71.532 831.694 71.7494 831.477 Q71.9305 831.259 72.1117 831.223 L72.3291 831.223 Q73.0175 831.44 73.3798 831.585 L89.3942 838.397 Q90.3 838.795 90.4811 839.121 Q90.6623 839.448 90.6623 840.716 L90.6623 879.23 Q90.6623 880.099 90.626 880.462 Q90.5898 880.788 90.4086 881.041 Q90.1913 881.295 89.7565 881.295 Q89.0681 881.295 88.7782 881.005 Q88.4521 880.715 88.4159 880.389 Q88.3797 880.063 88.3797 879.23 Q88.3797 877.418 88.271 876.331 Q88.1623 875.244 88.0174 874.556 Q87.8362 873.831 87.329 873.469 Q86.8217 873.07 86.3869 872.889 Q85.9159 872.708 84.8652 872.455 L45.6264 862.672 Q44.2858 862.31 43.851 862.31 Q43.38 862.31 43.0902 862.636 Q42.8003 862.926 42.6916 863.723 Q42.5467 864.52 42.5467 865.172 Q42.5105 865.788 42.5105 867.128 Q42.5105 867.998 42.4742 868.36 Q42.438 868.686 42.2569 868.94 Q42.0757 869.194 41.6772 869.194 Q40.6627 869.194 40.4453 868.759 Q40.1917 868.288 40.1917 866.984 L40.1917 829.52 Q40.1917 828.035 40.5177 827.709 Q40.8076 827.346 42.2206 827.491 Z" fill="#000000" fill-rule="evenodd" fill-opacity="1" /><path clip-path="url(#clip510)" d="M 0 0 M108.488 827.033 Q108.126 827.033 107.22 826.091 Q95.0463 814.134 72.1117 814.134 Q49.1046 814.134 37.4743 825.62 Q36.1337 827.033 35.7352 827.033 Q35.0105 827.033 35.0105 826.308 Q35.0105 825.801 36.496 824.025 Q37.9815 822.214 41.3873 819.497 Q44.7931 816.743 48.9597 814.714 Q59.0683 809.823 72.1117 809.823 Q84.6478 809.823 94.7564 814.497 Q98.9955 816.489 102.546 819.279 Q106.097 822.069 107.655 823.917 Q109.213 825.765 109.213 826.308 Q109.213 827.033 108.488 827.033 Z" fill="#000000" fill-rule="evenodd" fill-opacity="1" /><path clip-path="url(#clip510)" d="M 0 0 M46.0474 802.062 Q45.109 802.062 44.83 801.986 Q44.551 801.884 44.1199 801.479 L33.0113 791.511 Q26.8736 786.058 21.5222 786.058 Q18.0476 786.058 15.5621 787.884 Q13.0767 789.685 13.0767 793.008 Q13.0767 795.29 14.4716 797.218 Q15.8665 799.145 18.352 800.033 Q18.3013 799.881 18.3013 799.348 Q18.3013 798.055 19.1128 797.345 Q19.9244 796.609 21.015 796.609 Q22.4099 796.609 23.0947 797.522 Q23.7541 798.41 23.7541 799.297 Q23.7541 799.652 23.678 800.134 Q23.6019 800.591 22.8918 801.326 Q22.1563 802.062 20.8628 802.062 Q17.236 802.062 14.3448 799.323 Q11.4535 796.558 11.4535 792.348 Q11.4535 787.58 14.294 784.461 Q17.1092 781.316 21.5222 781.316 Q23.0693 781.316 24.4896 781.798 Q25.8845 782.254 26.9751 782.888 Q28.0657 783.497 29.8157 785.171 Q31.5656 786.845 32.8084 788.189 Q34.0511 789.533 36.6888 792.551 L42.0402 798.055 L42.0402 788.696 Q42.0402 784.131 41.6344 783.776 Q40.8989 783.269 37.0185 782.635 L37.0185 781.316 L46.0474 782.787 L46.0474 802.062 Z" fill="#000000" fill-rule="evenodd" fill-opacity="1" /><path clip-path="url(#clip510)" d="M 0 0 M655.491 15.1236 L655.491 33.3852 L663.759 33.3852 Q668.349 33.3852 670.856 31.0089 Q673.362 28.6327 673.362 24.2382 Q673.362 19.8762 670.856 17.4999 Q668.349 15.1236 663.759 15.1236 L655.491 15.1236 M648.916 9.72 L663.759 9.72 Q671.93 9.72 676.096 13.4309 Q680.296 17.1093 680.296 24.2382 Q680.296 31.4321 676.096 35.1105 Q671.93 38.7889 663.759 38.7889 L655.491 38.7889 L655.491 58.32 L648.916 58.32 L648.916 9.72 Z" fill="#000000" fill-rule="evenodd" fill-opacity="1" /><path clip-path="url(#clip510)" d="M 0 0 M708.551 28.0467 L750.282 28.0467 L750.282 33.5154 L708.551 33.5154 L708.551 28.0467 M708.551 41.3279 L750.282 41.3279 L750.282 46.8617 L708.551 46.8617 L708.551 41.3279 Z" fill="#000000" fill-rule="evenodd" fill-opacity="1" /><path clip-path="url(#clip510)" d="M 0 0 M784.266 52.7862 L807.216 52.7862 L807.216 58.32 L776.356 58.32 L776.356 52.7862 Q780.1 48.9125 786.545 42.4021 Q793.023 35.8592 794.683 33.9712 Q797.841 30.423 799.078 27.9816 Q800.347 25.5077 800.347 23.1314 Q800.347 19.2577 797.613 16.8163 Q794.911 14.3749 790.549 14.3749 Q787.457 14.3749 784.006 15.4491 Q780.588 16.5233 776.682 18.7043 L776.682 12.0637 Q780.653 10.4687 784.104 9.6549 Q787.554 8.8411 790.419 8.8411 Q797.971 8.8411 802.463 12.6171 Q806.955 16.3931 806.955 22.7082 Q806.955 25.703 805.816 28.4048 Q804.709 31.0741 801.747 34.7199 Q800.933 35.6639 796.571 40.1886 Q792.209 44.6808 784.266 52.7862 Z" fill="#000000" fill-rule="evenodd" fill-opacity="1" /><path clip-path="url(#clip510)" d="M 0 0 M828.407 14.0494 Q823.329 14.0494 820.757 19.0624 Q818.218 24.0428 818.218 34.0688 Q818.218 44.0623 820.757 49.0753 Q823.329 54.0557 828.407 54.0557 Q833.518 54.0557 836.057 49.0753 Q838.628 44.0623 838.628 34.0688 Q838.628 24.0428 836.057 19.0624 Q833.518 14.0494 828.407 14.0494 M828.407 8.8411 Q836.577 8.8411 840.874 15.3189 Q845.204 21.7642 845.204 34.0688 Q845.204 46.3409 840.874 52.8187 Q836.577 59.264 828.407 59.264 Q820.236 59.264 815.907 52.8187 Q811.61 46.3409 811.61 34.0688 Q811.61 21.7642 815.907 15.3189 Q820.236 8.8411 828.407 8.8411 Z" fill="#000000" fill-rule="evenodd" fill-opacity="1" /><path clip-path="url(#clip510)" d="M 0 0 M852.333 50.0518 L859.201 50.0518 L859.201 58.32 L852.333 58.32 L852.333 50.0518 Z" fill="#000000" fill-rule="evenodd" fill-opacity="1" /><path clip-path="url(#clip510)" d="M 0 0 M880.392 14.0494 Q875.314 14.0494 872.743 19.0624 Q870.204 24.0428 870.204 34.0688 Q870.204 44.0623 872.743 49.0753 Q875.314 54.0557 880.392 54.0557 Q885.503 54.0557 888.042 49.0753 Q890.614 44.0623 890.614 34.0688 Q890.614 24.0428 888.042 19.0624 Q885.503 14.0494 880.392 14.0494 M880.392 8.8411 Q888.563 8.8411 892.86 15.3189 Q897.189 21.7642 897.189 34.0688 Q897.189 46.3409 892.86 52.8187 Q888.563 59.264 880.392 59.264 Q872.222 59.264 867.892 52.8187 Q863.595 46.3409 863.595 34.0688 Q863.595 21.7642 867.892 15.3189 Q872.222 8.8411 880.392 8.8411 Z" fill="#000000" fill-rule="evenodd" fill-opacity="1" /><polyline clip-path="url(#clip513)" style="stroke:#009af9; stroke-width:4.5; stroke-opacity:1; fill:none" points="
  1095.32,745.445 1091.79,879.177 1088.29,953.583 1084.81,1023.13 1081.37,1057.97 1077.95,1106.89 1074.57,1143.09 1071.21,1171.68 1067.88,1199.73 1064.58,1222.67 
  1061.31,1247.9 1058.06,1268.54 1054.84,1285.94 1051.65,1302.61 1048.48,1316.96 1045.34,1331.97 1042.22,1343.89 1039.13,1357.19 1036.07,1367.97 1033.03,1379.59 
  1030.01,1389.17 1027.02,1398.24 1024.05,1407.27 1021.1,1415.31 1018.18,1422.89 1015.28,1430.04 1012.41,1436.78 1009.55,1442.87 1006.72,1448.42 1003.91,1454.34 
  1001.12,1459.52 998.354,1464.77 995.608,1469.7 992.883,1474.06 990.178,1478.58 987.494,1482.7 984.831,1486.6 982.187,1489.98 979.562,1491.94 976.958,1497.35 
  974.372,1500.51 971.806,1503.63 969.259,1506.62 966.73,1509.5 964.22,1512.2 961.727,1514.94 959.253,1517.49 956.797,1519.89 954.359,1522.25 951.938,1524.42 
  949.534,1526.52 947.148,1528.46 944.778,1530.36 942.425,1532.16 940.089,1533.92 937.769,1535.61 935.465,1537.21 933.177,1538.73 930.906,1540.18 928.649,1541.53 
  926.409,1542.78 924.184,1544.03 921.974,1545.17 919.779,1546.24 917.599,1547.27 915.434,1548.25 913.284,1549.18 911.148,1550.05 909.026,1550.88 906.919,1551.67 
  904.825,1552.41 902.746,1553.09 900.68,1553.74 898.628,1554.34 896.59,1554.9 894.564,1555.42 892.552,1555.92 890.554,1556.38 888.568,1556.82 886.595,1557.23 
  884.634,1557.63 882.687,1557.98 880.752,1558.32 878.829,1558.63 876.918,1558.92 875.02,1559.19 873.133,1559.43 871.259,1559.67 869.396,1559.89 867.545,1560.1 
  865.705,1560.29 863.877,1560.47 862.061,1560.64 860.255,1560.79 858.461,1560.94 856.678,1561.07 854.905,1561.2 853.144,1561.32 851.393,1561.43 849.653,1561.53 
  847.923,1561.62 846.204,1561.71 844.496,1561.8 842.797,1561.87 841.109,1561.92 839.431,1562.04 837.762,1562.11 836.104,1562.17 834.456,1562.22 832.817,1562.24 
  831.188,1562.3 829.568,1562.35 827.958,1562.41 826.357,1562.45 824.766,1562.49 823.183,1562.53 821.61,1562.57 820.046,1562.61 818.491,1562.64 816.945,1562.67 
  815.408,1562.71 813.879,1562.73 812.36,1562.76 810.848,1562.79 809.346,1562.81 807.852,1562.84 806.366,1562.86 804.888,1562.88 803.419,1562.9 801.958,1562.92 
  800.505,1562.94 799.06,1562.95 797.623,1562.97 796.194,1562.98 794.773,1563 793.36,1563.01 791.954,1563.03 790.556,1563.04 789.166,1563.05 787.783,1563.06 
  786.408,1563.07 785.04,1563.1 783.679,1563.11 782.326,1563.12 780.98,1563.13 779.641,1563.14 778.309,1563.15 776.985,1563.17 775.667,1563.18 774.356,1563.19 
  773.052,1563.19 771.755,1563.2 770.465,1563.21 769.182,1563.22 767.905,1563.23 766.635,1563.24 765.371,1563.24 764.114,1563.25 762.864,1563.26 761.62,1563.27 
  760.382,1563.27 759.15,1563.28 757.925,1563.29 756.706,1563.29 755.494,1563.3 754.287,1563.3 753.087,1563.31 751.892,1563.32 750.704,1563.32 749.521,1563.33 
  748.345,1563.33 747.174,1563.34 746.009,1563.34 744.85,1563.35 743.697,1563.35 742.549,1563.36 741.407,1563.36 740.271,1563.37 739.14,1563.37 738.015,1563.38 
  736.895,1563.38 735.781,1563.38 734.672,1563.39 733.568,1563.39 732.47,1563.4 731.377,1563.4 730.289,1563.4 729.207,1563.41 728.13,1563.41 727.058,1563.41 
  725.991,1563.42 724.929,1563.42 723.872,1563.43 722.82,1563.43 721.773,1563.43 720.731,1563.43 719.694,1563.44 718.661,1563.44 717.634,1563.44 716.611,1563.45 
  715.593,1563.45 714.58,1563.45 713.571,1563.46 712.568,1563.46 711.568,1563.46 710.574,1563.46 709.584,1563.47 708.598,1563.47 707.617,1563.47 706.641,1563.47 
  705.668,1563.48 704.701,1563.48 703.737,1563.48 702.778,1563.48 701.824,1563.48 700.873,1563.49 699.927,1563.49 698.985,1563.49 698.048,1563.49 697.114,1563.49 
  696.185,1563.5 695.259,1563.5 694.338,1563.51 693.421,1563.51 692.508,1563.51 691.599,1563.51 690.694,1563.51 689.793,1563.52 688.896,1563.52 688.003,1563.52 
  687.113,1563.52 686.228,1563.52 685.346,1563.53 684.468,1563.53 683.594,1563.53 682.724,1563.53 681.857,1563.53 680.995,1563.54 680.135,1563.54 679.28,1563.54 
  678.428,1563.54 677.58,1563.54 676.735,1563.54 675.894,1563.55 675.057,1563.55 674.223,1563.55 673.392,1563.55 672.565,1563.55 671.741,1563.55 670.921,1563.56 
  670.105,1563.56 669.291,1563.56 668.481,1563.56 667.675,1563.56 666.872,1563.56 666.072,1563.56 665.275,1563.57 664.482,1563.57 663.691,1563.57 662.905,1563.57 
  662.121,1563.57 661.34,1563.57 660.563,1563.57 659.789,1563.57 659.018,1563.58 658.25,1563.58 657.485,1563.58 656.723,1563.58 655.965,1563.58 655.209,1563.58 
  654.457,1563.58 653.707,1563.58 652.96,1563.59 652.217,1563.59 651.476,1563.59 650.738,1563.59 650.003,1563.59 649.271,1563.59 648.542,1563.59 647.816,1563.59 
  647.093,1563.59 646.372,1563.6 645.655,1563.6 644.94,1563.6 644.227,1563.6 643.518,1563.6 642.812,1563.6 642.108,1563.6 641.406,1563.6 640.708,1563.6 
  640.012,1563.6 639.319,1563.6 638.629,1563.61 637.941,1563.61 637.256,1563.61 636.573,1563.61 635.893,1563.61 635.216,1563.61 634.541,1563.61 633.869,1563.61 
  633.199,1563.61 632.532,1563.61 631.867,1563.61 631.205,1563.62 630.545,1563.62 629.888,1563.62 629.233,1563.62 628.58,1563.62 627.931,1563.62 627.283,1563.62 
  626.638,1563.62 625.995,1563.62 625.355,1563.62 624.717,1563.62 624.081,1563.62 623.448,1563.62 622.817,1563.62 622.188,1563.63 621.561,1563.63 620.937,1563.63 
  620.315,1563.63 619.696,1563.63 619.078,1563.63 618.463,1563.63 617.85,1563.63 617.24,1563.63 616.631,1563.63 616.025,1563.63 615.421,1563.63 614.819,1563.63 
  614.219,1563.64 613.621,1563.64 613.025,1563.64 612.432,1563.64 611.841,1563.64 611.251,1563.64 610.664,1563.64 610.079,1563.64 609.496,1563.64 608.915,1563.64 
  608.336,1563.64 607.759,1563.64 607.184,1563.64 606.611,1563.64 606.04,1563.64 605.471,1563.64 604.904,1563.64 604.339,1563.64 603.776,1563.64 603.215,1563.65 
  602.656,1563.65 602.099,1563.65 601.544,1563.65 600.99,1563.65 600.439,1563.65 599.889,1563.65 599.341,1563.65 598.795,1563.65 598.251,1563.65 597.709,1563.65 
  597.169,1563.65 596.63,1563.65 596.094,1563.65 595.559,1563.65 595.026,1563.65 594.494,1563.65 593.965,1563.65 593.437,1563.65 592.911,1563.65 592.387,1563.66 
  591.864,1563.66 591.344,1563.66 590.825,1563.66 590.307,1563.66 589.792,1563.66 589.278,1563.66 588.766,1563.66 588.255,1563.66 587.746,1563.66 587.239,1563.66 
  586.734,1563.66 586.23,1563.66 585.728,1563.66 585.227,1563.66 584.728,1563.66 584.231,1563.66 583.736,1563.66 583.241,1563.66 582.749,1563.66 582.258,1563.66 
  581.769,1563.66 581.281,1563.66 580.795,1563.66 580.31,1563.66 579.827,1563.67 579.346,1563.67 578.866,1563.67 578.388,1563.67 577.911,1563.67 577.435,1563.67 
  576.961,1563.67 576.489,1563.67 576.018,1563.67 575.549,1563.67 575.081,1563.67 574.615,1563.67 574.15,1563.67 573.686,1563.67 573.224,1563.67 572.763,1563.67 
  572.304,1563.67 571.847,1563.67 571.39,1563.67 570.935,1563.67 570.482,1563.67 570.03,1563.67 569.579,1563.67 569.13,1563.67 568.682,1563.67 568.236,1563.67 
  567.79,1563.67 567.347,1563.67 566.904,1563.67 566.463,1563.67 566.024,1563.67 565.585,1563.67 565.148,1563.67 564.712,1563.68 564.278,1563.68 563.845,1563.68 
  563.413,1563.68 562.983,1563.68 562.554,1563.68 562.126,1563.68 561.699,1563.68 561.274,1563.68 560.85,1563.68 560.427,1563.68 560.006,1563.68 559.586,1563.68 
  559.167,1563.68 558.749,1563.68 558.333,1563.68 557.918,1563.68 557.504,1563.68 557.091,1563.68 556.679,1563.68 556.269,1563.68 555.86,1563.68 555.452,1563.68 
  555.045,1563.68 554.64,1563.68 554.236,1563.68 553.832,1563.68 553.431,1563.68 553.03,1563.68 552.63,1563.68 552.232,1563.68 551.834,1563.68 551.438,1563.68 
  551.043,1563.68 550.65,1563.68 550.257,1563.68 549.865,1563.68 549.475,1563.68 549.086,1563.68 548.697,1563.68 548.31,1563.68 547.924,1563.68 547.539,1563.69 
  547.156,1563.69 546.773,1563.69 546.391,1563.69 546.011,1563.69 545.631,1563.69 545.253,1563.69 544.876,1563.69 544.5,1563.69 544.125,1563.69 543.75,1563.69 
  543.377,1563.69 543.005,1563.69 542.635,1563.69 542.265,1563.69 541.896,1563.69 541.528,1563.69 541.161,1563.69 540.795,1563.69 540.431,1563.69 540.067,1563.69 
  539.704,1563.69 539.342,1563.69 538.982,1563.69 538.622,1563.69 538.263,1563.69 537.906,1563.69 537.549,1563.69 537.193,1563.69 536.838,1563.69 536.484,1563.69 
  536.132,1563.69 535.78,1563.69 535.429,1563.69 535.079,1563.69 534.73,1563.69 534.382,1563.69 534.035,1563.69 533.688,1563.69 533.343,1563.69 532.999,1563.69 
  532.656,1563.69 532.313,1563.69 531.972,1563.69 531.631,1563.69 531.291,1563.69 530.952,1563.69 530.615,1563.69 530.278,1563.69 529.942,1563.69 529.606,1563.69 
  529.272,1563.69 528.939,1563.69 528.606,1563.69 528.275,1563.69 527.944,1563.69 527.614,1563.69 527.285,1563.69 526.957,1563.69 526.63,1563.69 526.303,1563.69 
  525.978,1563.69 525.653,1563.69 525.329,1563.7 525.006,1563.7 524.684,1563.7 524.363,1563.7 524.043,1563.7 523.723,1563.7 523.404,1563.7 523.086,1563.7 
  522.769,1563.7 522.453,1563.7 522.137,1563.7 521.823,1563.7 521.509,1563.7 521.196,1563.7 520.883,1563.7 520.572,1563.7 520.261,1563.7 519.952,1563.7 
  519.643,1563.7 519.334,1563.7 519.027,1563.7 518.72,1563.7 518.414,1563.7 518.109,1563.7 517.805,1563.7 517.501,1563.7 517.199,1563.7 516.896,1563.7 
  516.595,1563.7 516.295,1563.7 515.995,1563.7 515.696,1563.7 515.398,1563.7 515.1,1563.7 514.804,1563.7 514.508,1563.7 514.212,1563.7 513.918,1563.7 
  513.624,1563.7 513.331,1563.7 513.039,1563.7 512.747,1563.7 512.456,1563.7 512.166,1563.7 511.877,1563.7 511.588,1563.7 511.3,1563.7 511.013,1563.7 
  510.726,1563.7 510.44,1563.7 510.155,1563.7 509.871,1563.7 509.587,1563.7 509.304,1563.7 509.022,1563.7 508.74,1563.7 508.459,1563.7 508.179,1563.7 
  507.899,1563.7 507.62,1563.7 507.342,1563.7 507.064,1563.7 506.788,1563.7 506.511,1563.7 506.236,1563.7 505.961,1563.7 505.687,1563.7 505.413,1563.7 
  505.14,1563.7 504.868,1563.7 504.596,1563.7 504.325,1563.7 504.055,1563.7 503.785,1563.7 503.516,1563.7 503.248,1563.7 502.98,1563.7 502.713,1563.7 
  502.447,1563.7 502.181,1563.7 501.916,1563.7 501.651,1563.7 501.387,1563.7 501.124,1563.7 500.861,1563.7 500.599,1563.7 500.338,1563.7 500.077,1563.7 
  499.817,1563.7 499.557,1563.7 499.298,1563.7 499.04,1563.7 498.782,1563.7 498.525,1563.7 498.269,1563.7 498.013,1563.7 497.757,1563.7 497.502,1563.7 
  497.248,1563.7 496.995,1563.7 496.742,1563.7 496.489,1563.7 496.237,1563.7 495.986,1563.7 495.735,1563.7 495.485,1563.7 495.236,1563.7 494.987,1563.7 
  494.739,1563.7 494.491,1563.7 494.243,1563.7 493.997,1563.7 493.751,1563.7 493.505,1563.71 493.26,1563.71 493.016,1563.71 492.772,1563.71 492.529,1563.71 
  492.286,1563.71 492.044,1563.71 491.802,1563.71 491.561,1563.71 491.32,1563.71 491.08,1563.71 490.841,1563.71 490.602,1563.71 490.363,1563.71 490.126,1563.71 
  489.888,1563.71 489.651,1563.71 489.415,1563.71 489.179,1563.71 488.944,1563.71 488.71,1563.71 488.475,1563.71 488.242,1563.71 488.009,1563.71 487.776,1563.71 
  487.544,1563.71 487.312,1563.71 487.081,1563.71 486.851,1563.71 486.621,1563.71 486.391,1563.71 486.162,1563.71 485.934,1563.71 485.706,1563.71 485.478,1563.71 
  485.251,1563.71 485.025,1563.71 484.799,1563.71 484.573,1563.71 484.348,1563.71 484.124,1563.71 483.9,1563.71 483.676,1563.71 483.453,1563.71 483.23,1563.71 
  483.008,1563.71 482.787,1563.71 482.566,1563.71 482.345,1563.71 482.125,1563.71 481.905,1563.71 481.686,1563.71 481.467,1563.71 481.249,1563.71 481.031,1563.71 
  480.814,1563.71 480.597,1563.71 480.38,1563.71 480.164,1563.71 479.949,1563.71 479.734,1563.71 479.519,1563.71 479.305,1563.71 479.092,1563.71 478.878,1563.71 
  478.666,1563.71 478.453,1563.71 478.242,1563.71 478.03,1563.71 477.819,1563.71 477.609,1563.71 477.399,1563.71 477.189,1563.71 476.98,1563.71 476.771,1563.71 
  476.563,1563.71 476.355,1563.71 476.148,1563.71 475.941,1563.71 475.734,1563.71 475.528,1563.71 475.322,1563.71 475.117,1563.71 474.912,1563.71 474.708,1563.71 
  474.504,1563.71 474.3,1563.71 474.097,1563.71 473.895,1563.71 473.692,1563.71 473.49,1563.71 473.289,1563.71 473.088,1563.71 472.887,1563.71 472.687,1563.71 
  472.487,1563.71 472.288,1563.71 472.089,1563.71 471.891,1563.71 471.692,1563.71 471.495,1563.71 471.297,1563.71 471.1,1563.71 470.904,1563.71 470.708,1563.71 
  470.512,1563.71 470.317,1563.71 470.122,1563.71 469.927,1563.71 469.733,1563.71 469.539,1563.71 469.346,1563.71 469.153,1563.71 468.961,1563.71 468.768,1563.71 
  468.577,1563.71 468.385,1563.71 468.194,1563.71 468.004,1563.71 467.813,1563.71 467.624,1563.71 467.434,1563.71 467.245,1563.71 467.056,1563.71 466.868,1563.71 
  466.68,1563.71 466.492,1563.71 466.305,1563.71 466.118,1563.71 465.932,1563.71 465.746,1563.71 465.56,1563.71 465.375,1563.71 465.19,1563.71 465.005,1563.71 
  464.821,1563.71 464.637,1563.71 464.453,1563.71 464.27,1563.71 464.087,1563.71 463.905,1563.71 463.723,1563.71 463.541,1563.71 463.36,1563.71 463.179,1563.71 
  462.998,1563.71 462.818,1563.71 462.638,1563.71 462.458,1563.71 462.279,1563.71 462.1,1563.71 461.921,1563.71 461.743,1563.71 461.565,1563.71 461.388,1563.71 
  461.211,1563.71 461.034,1563.71 460.857,1563.71 460.681,1563.71 460.505,1563.71 460.33,1563.71 460.155,1563.71 459.98,1563.71 459.806,1563.71 459.632,1563.71 
  459.458,1563.71 459.284,1563.71 459.111,1563.71 458.938,1563.71 458.766,1563.71 458.594,1563.71 458.422,1563.71 458.251,1563.71 458.079,1563.71 457.909,1563.71 
  457.738,1563.71 457.568,1563.71 457.398,1563.71 457.229,1563.71 457.059,1563.71 456.891,1563.71 456.722,1563.71 456.554,1563.71 456.386,1563.71 456.218,1563.71 
  456.051,1563.71 455.884,1563.71 455.717,1563.71 455.551,1563.71 455.385,1563.71 455.219,1563.71 455.054,1563.71 454.889,1563.71 454.724,1563.71 454.56,1563.71 
  454.395,1563.71 454.232,1563.71 454.068,1563.71 453.905,1563.71 453.742,1563.71 453.579,1563.71 453.417,1563.71 453.255,1563.71 453.093,1563.71 452.932,1563.71 
  452.771,1563.71 452.61,1563.71 452.449,1563.71 452.289,1563.71 452.129,1563.71 451.969,1563.71 451.81,1563.71 451.651,1563.71 451.492,1563.71 451.334,1563.71 
  451.175,1563.71 451.018,1563.71 450.86,1563.71 450.703,1563.71 450.546,1563.71 450.389,1563.71 450.232,1563.71 450.076,1563.71 449.92,1563.71 449.765,1563.71 
  449.609,1563.71 
  "/>
<polyline clip-path="url(#clip513)" style="stroke:#e26f46; stroke-width:4.5; stroke-opacity:1; fill:none" points="
  278.903,1563.72 278.903,1563.72 
  
  
  
  
  
  
  
  
  
  
  
  
  
  
  
  
  
  
  
  
  
  
  
  
  
  
  
  
  
  
  
  
  
  
  
  
  
  
  
  
  
  
  
  
  
  
  
  
  
  
  
  
  
  
  
  
  
  
  
  
  
  
  
  
  
  
  
  
  
  
  
  
  
  
  
  
  
  
  
  
  
  
  
  
  
  
  
  
  
  
  
  "/>
<path clip-path="url(#clip510)" d="
M1599.25 1605.79 L2646.85 1605.79 L2646.85 119.466 L1599.25 119.466  Z
  " fill="#ffffff" fill-rule="evenodd" fill-opacity="1"/>
<defs>
  <clipPath id="clip514">
    <rect x="1599" y="119" width="1049" height="1487"/>
  </clipPath>
</defs>
<polyline clip-path="url(#clip514)" style="stroke:#000000; stroke-width:2.25; stroke-opacity:0.1; fill:none" points="
  1605.63,1605.79 1605.63,119.466 
  "/>
<polyline clip-path="url(#clip514)" style="stroke:#000000; stroke-width:2.25; stroke-opacity:0.1; fill:none" points="
  1788.7,1605.79 1788.7,119.466 
  "/>
<polyline clip-path="url(#clip514)" style="stroke:#000000; stroke-width:2.25; stroke-opacity:0.1; fill:none" points="
  1971.78,1605.79 1971.78,119.466 
  "/>
<polyline clip-path="url(#clip514)" style="stroke:#000000; stroke-width:2.25; stroke-opacity:0.1; fill:none" points="
  2154.85,1605.79 2154.85,119.466 
  "/>
<polyline clip-path="url(#clip514)" style="stroke:#000000; stroke-width:2.25; stroke-opacity:0.1; fill:none" points="
  2337.93,1605.79 2337.93,119.466 
  "/>
<polyline clip-path="url(#clip514)" style="stroke:#000000; stroke-width:2.25; stroke-opacity:0.1; fill:none" points="
  2521,1605.79 2521,119.466 
  "/>
<polyline clip-path="url(#clip510)" style="stroke:#000000; stroke-width:4.5; stroke-opacity:1; fill:none" points="
  1599.25,1605.79 2646.85,1605.79 
  "/>
<polyline clip-path="url(#clip510)" style="stroke:#000000; stroke-width:4.5; stroke-opacity:1; fill:none" points="
  1605.63,1605.79 1605.63,1587.95 
  "/>
<polyline clip-path="url(#clip510)" style="stroke:#000000; stroke-width:4.5; stroke-opacity:1; fill:none" points="
  1788.7,1605.79 1788.7,1587.95 
  "/>
<polyline clip-path="url(#clip510)" style="stroke:#000000; stroke-width:4.5; stroke-opacity:1; fill:none" points="
  1971.78,1605.79 1971.78,1587.95 
  "/>
<polyline clip-path="url(#clip510)" style="stroke:#000000; stroke-width:4.5; stroke-opacity:1; fill:none" points="
  2154.85,1605.79 2154.85,1587.95 
  "/>
<polyline clip-path="url(#clip510)" style="stroke:#000000; stroke-width:4.5; stroke-opacity:1; fill:none" points="
  2337.93,1605.79 2337.93,1587.95 
  "/>
<polyline clip-path="url(#clip510)" style="stroke:#000000; stroke-width:4.5; stroke-opacity:1; fill:none" points="
  2521,1605.79 2521,1587.95 
  "/>
<path clip-path="url(#clip510)" d="M 0 0 M1594.81 1669.62 L1603.4 1669.62 L1603.4 1639.95 L1594.05 1641.83 L1594.05 1637.04 L1603.35 1635.16 L1608.61 1635.16 L1608.61 1669.62 L1617.2 1669.62 L1617.2 1674.04 L1594.81 1674.04 L1594.81 1669.62 Z" fill="#000000" fill-rule="evenodd" fill-opacity="1" /><path clip-path="url(#clip510)" d="M 0 0 M1782.69 1669.62 L1801.05 1669.62 L1801.05 1674.04 L1776.36 1674.04 L1776.36 1669.62 Q1779.35 1666.52 1784.51 1661.31 Q1789.69 1656.07 1791.02 1654.56 Q1793.55 1651.73 1794.54 1649.77 Q1795.55 1647.79 1795.55 1645.89 Q1795.55 1642.79 1793.36 1640.84 Q1791.2 1638.89 1787.71 1638.89 Q1785.24 1638.89 1782.48 1639.75 Q1779.74 1640.61 1776.62 1642.35 L1776.62 1637.04 Q1779.8 1635.76 1782.56 1635.11 Q1785.32 1634.46 1787.61 1634.46 Q1793.65 1634.46 1797.24 1637.48 Q1800.84 1640.5 1800.84 1645.55 Q1800.84 1647.95 1799.93 1650.11 Q1799.04 1652.25 1796.67 1655.16 Q1796.02 1655.92 1792.53 1659.54 Q1789.04 1663.13 1782.69 1669.62 Z" fill="#000000" fill-rule="evenodd" fill-opacity="1" /><path clip-path="url(#clip510)" d="M 0 0 M1976.56 1653.08 Q1980.33 1653.89 1982.44 1656.44 Q1984.58 1658.99 1984.58 1662.74 Q1984.58 1668.5 1980.62 1671.65 Q1976.66 1674.8 1969.37 1674.8 Q1966.92 1674.8 1964.32 1674.3 Q1961.74 1673.83 1958.98 1672.87 L1958.98 1667.79 Q1961.17 1669.07 1963.77 1669.72 Q1966.37 1670.37 1969.21 1670.37 Q1974.16 1670.37 1976.74 1668.42 Q1979.34 1666.47 1979.34 1662.74 Q1979.34 1659.3 1976.92 1657.38 Q1974.52 1655.42 1970.23 1655.42 L1965.7 1655.42 L1965.7 1651.1 L1970.44 1651.1 Q1974.32 1651.1 1976.37 1649.56 Q1978.43 1648 1978.43 1645.09 Q1978.43 1642.09 1976.3 1640.5 Q1974.19 1638.89 1970.23 1638.89 Q1968.07 1638.89 1965.59 1639.36 Q1963.12 1639.82 1960.15 1640.81 L1960.15 1636.13 Q1963.14 1635.29 1965.75 1634.88 Q1968.38 1634.46 1970.7 1634.46 Q1976.69 1634.46 1980.18 1637.19 Q1983.67 1639.9 1983.67 1644.54 Q1983.67 1647.77 1981.82 1650.01 Q1979.97 1652.22 1976.56 1653.08 Z" fill="#000000" fill-rule="evenodd" fill-opacity="1" /><path clip-path="url(#clip510)" d="M 0 0 M2158.24 1639.75 L2144.96 1660.5 L2158.24 1660.5 L2158.24 1639.75 M2156.86 1635.16 L2163.47 1635.16 L2163.47 1660.5 L2169.02 1660.5 L2169.02 1664.88 L2163.47 1664.88 L2163.47 1674.04 L2158.24 1674.04 L2158.24 1664.88 L2140.68 1664.88 L2140.68 1659.8 L2156.86 1635.16 Z" fill="#000000" fill-rule="evenodd" fill-opacity="1" /><path clip-path="url(#clip510)" d="M 0 0 M2326.99 1635.16 L2347.64 1635.16 L2347.64 1639.59 L2331.81 1639.59 L2331.81 1649.12 Q2332.95 1648.73 2334.1 1648.55 Q2335.24 1648.34 2336.39 1648.34 Q2342.9 1648.34 2346.7 1651.91 Q2350.5 1655.48 2350.5 1661.57 Q2350.5 1667.85 2346.6 1671.34 Q2342.69 1674.8 2335.58 1674.8 Q2333.13 1674.8 2330.58 1674.38 Q2328.06 1673.97 2325.35 1673.13 L2325.35 1667.85 Q2327.69 1669.12 2330.19 1669.75 Q2332.69 1670.37 2335.48 1670.37 Q2339.98 1670.37 2342.61 1668 Q2345.24 1665.63 2345.24 1661.57 Q2345.24 1657.51 2342.61 1655.14 Q2339.98 1652.77 2335.48 1652.77 Q2333.37 1652.77 2331.26 1653.24 Q2329.18 1653.7 2326.99 1654.69 L2326.99 1635.16 Z" fill="#000000" fill-rule="evenodd" fill-opacity="1" /><path clip-path="url(#clip510)" d="M 0 0 M2521.45 1652.51 Q2517.91 1652.51 2515.83 1654.93 Q2513.77 1657.35 2513.77 1661.57 Q2513.77 1665.76 2515.83 1668.21 Q2517.91 1670.63 2521.45 1670.63 Q2525 1670.63 2527.05 1668.21 Q2529.14 1665.76 2529.14 1661.57 Q2529.14 1657.35 2527.05 1654.93 Q2525 1652.51 2521.45 1652.51 M2531.9 1636.02 L2531.9 1640.81 Q2529.92 1639.88 2527.89 1639.38 Q2525.88 1638.89 2523.9 1638.89 Q2518.69 1638.89 2515.93 1642.4 Q2513.2 1645.92 2512.81 1653.03 Q2514.35 1650.76 2516.66 1649.56 Q2518.98 1648.34 2521.77 1648.34 Q2527.63 1648.34 2531.01 1651.91 Q2534.42 1655.45 2534.42 1661.57 Q2534.42 1667.56 2530.88 1671.18 Q2527.34 1674.8 2521.45 1674.8 Q2514.71 1674.8 2511.14 1669.64 Q2507.57 1664.46 2507.57 1654.64 Q2507.57 1645.42 2511.95 1639.95 Q2516.32 1634.46 2523.69 1634.46 Q2525.67 1634.46 2527.68 1634.85 Q2529.71 1635.24 2531.9 1636.02 Z" fill="#000000" fill-rule="evenodd" fill-opacity="1" /><path clip-path="url(#clip510)" d="M 0 0 M2082.66 1703.7 L2081.17 1716.52 Q2081.07 1717.68 2080.88 1718.04 Q2080.7 1718.37 2080.12 1718.37 Q2079.69 1718.37 2079.44 1718.12 Q2079.22 1717.83 2079.22 1717.5 Q2079.22 1717.32 2079.25 1716.85 Q2079.29 1716.38 2079.29 1716.16 Q2079.62 1713.91 2079.62 1712.21 Q2079.62 1709.06 2078.67 1707.36 Q2077.73 1705.62 2075.31 1704.82 Q2072.88 1703.99 2068.31 1703.99 L2057.88 1703.99 Q2055.49 1703.99 2054.91 1704.42 Q2054.36 1704.86 2053.86 1706.89 L2049.4 1724.75 L2056.39 1724.75 Q2059 1724.75 2060.56 1724.42 Q2062.15 1724.1 2063.2 1723.19 Q2064.29 1722.25 2064.87 1720.98 Q2065.49 1719.71 2066.1 1717.43 Q2066.28 1716.67 2066.46 1716.38 Q2066.68 1716.09 2067.15 1716.09 Q2067.52 1716.09 2067.77 1716.34 Q2068.02 1716.56 2068.02 1716.89 L2063.78 1734.24 Q2063.57 1735.11 2063.35 1735.44 Q2063.13 1735.73 2062.7 1735.73 Q2062.23 1735.73 2061.97 1735.47 Q2061.72 1735.22 2061.72 1734.93 Q2061.72 1734.64 2061.94 1734.1 Q2062.48 1731.74 2062.48 1730.47 Q2062.48 1729.75 2062.41 1729.39 Q2062.37 1729.02 2062.04 1728.52 Q2061.75 1727.97 2061.1 1727.72 Q2060.45 1727.46 2059.22 1727.28 Q2057.99 1727.07 2056.14 1727.07 L2048.82 1727.07 L2043.75 1747.32 Q2043.39 1748.66 2043.39 1749.02 Q2043.39 1749.42 2043.57 1749.57 Q2043.78 1749.67 2044.36 1749.75 Q2045.02 1749.86 2045.99 1749.86 L2056.83 1749.86 Q2059.22 1749.86 2061.14 1749.64 Q2063.06 1749.42 2064.65 1748.88 Q2066.28 1748.33 2067.52 1747.72 Q2068.75 1747.1 2069.91 1745.98 Q2071.07 1744.82 2071.86 1743.81 Q2072.7 1742.75 2073.67 1740.98 Q2074.65 1739.2 2075.34 1737.75 Q2076.03 1736.27 2077.08 1733.88 Q2077.37 1733.01 2078.06 1733.01 Q2078.46 1733.01 2078.67 1733.23 Q2078.89 1733.41 2078.93 1733.59 L2078.93 1733.81 Q2078.71 1734.49 2078.57 1734.86 L2071.75 1750.87 Q2071.36 1751.78 2071.03 1751.96 Q2070.7 1752.14 2069.44 1752.14 L2030.92 1752.14 Q2030.05 1752.14 2029.69 1752.1 Q2029.36 1752.07 2029.11 1751.88 Q2028.86 1751.67 2028.86 1751.23 Q2028.86 1750.54 2029.15 1750.25 Q2029.44 1749.93 2029.76 1749.89 Q2030.09 1749.86 2030.92 1749.86 Q2032.73 1749.86 2033.82 1749.75 Q2034.91 1749.64 2035.6 1749.49 Q2036.32 1749.31 2036.68 1748.81 Q2037.08 1748.3 2037.26 1747.86 Q2037.44 1747.39 2037.7 1746.34 L2047.48 1707.1 Q2047.84 1705.76 2047.84 1705.33 Q2047.84 1704.86 2047.52 1704.57 Q2047.23 1704.28 2046.43 1704.17 Q2045.63 1704.02 2044.98 1704.02 Q2044.36 1703.99 2043.02 1703.99 Q2042.15 1703.99 2041.79 1703.95 Q2041.46 1703.91 2041.21 1703.73 Q2040.96 1703.55 2040.96 1703.15 Q2040.96 1702.14 2041.39 1701.92 Q2041.86 1701.67 2043.17 1701.67 L2080.63 1701.67 Q2082.12 1701.67 2082.44 1701.99 Q2082.81 1702.28 2082.66 1703.7 Z" fill="#000000" fill-rule="evenodd" fill-opacity="1" /><path clip-path="url(#clip510)" d="M 0 0 M2083.12 1733.59 Q2083.12 1721.05 2087.79 1710.94 Q2089.79 1706.7 2092.58 1703.15 Q2095.36 1699.6 2097.21 1698.04 Q2099.06 1696.49 2099.57 1696.49 Q2100.29 1696.49 2100.33 1697.21 Q2100.33 1697.57 2099.35 1698.48 Q2087.39 1710.65 2087.43 1733.59 Q2087.43 1756.6 2099.06 1768.3 Q2100.33 1769.57 2100.33 1769.96 Q2100.33 1770.69 2099.57 1770.69 Q2099.06 1770.69 2097.29 1769.2 Q2095.51 1767.72 2092.76 1764.31 Q2090 1760.91 2088.01 1756.74 Q2083.12 1746.63 2083.12 1733.59 Z" fill="#000000" fill-rule="evenodd" fill-opacity="1" /><path clip-path="url(#clip510)" d="M 0 0 M2139.86 1743.55 Q2140.15 1743.88 2140.15 1744.2 Q2140.15 1744.53 2139.42 1745.47 Q2138.73 1746.41 2137.25 1747.68 Q2135.76 1748.95 2133.84 1750.15 Q2131.92 1751.34 2129.1 1752.14 Q2126.27 1752.97 2123.3 1752.97 Q2117.97 1752.97 2114.78 1749.17 Q2111.63 1745.36 2111.63 1739.53 Q2111.63 1735.8 2112.86 1732.5 Q2114.1 1729.17 2116.09 1726.81 Q2118.12 1724.46 2120.65 1722.75 Q2123.23 1721.02 2125.91 1720.18 Q2128.59 1719.35 2131.09 1719.35 Q2134.75 1719.35 2136.89 1721.2 Q2139.02 1723.04 2139.02 1725.65 Q2139.02 1726.27 2138.84 1727.03 Q2138.7 1727.79 2138.19 1728.99 Q2137.72 1730.18 2136.49 1731.38 Q2135.26 1732.54 2133.44 1733.3 Q2129.42 1735 2122.1 1735 L2118.15 1735 Q2116.99 1739.67 2116.99 1742.72 Q2116.99 1743.91 2117.21 1745.15 Q2117.43 1746.34 2118.01 1747.86 Q2118.63 1749.38 2120 1750.36 Q2121.42 1751.31 2123.44 1751.31 Q2124.1 1751.31 2124.78 1751.27 Q2125.51 1751.23 2127.32 1750.83 Q2129.17 1750.44 2130.8 1749.75 Q2132.43 1749.06 2134.49 1747.57 Q2136.6 1746.05 2138.26 1743.99 Q2138.84 1743.23 2139.24 1743.23 Q2139.57 1743.23 2139.86 1743.55 M2136.56 1725.65 Q2136.56 1723.66 2135.07 1722.32 Q2133.63 1720.98 2131.09 1720.98 Q2130.29 1720.98 2129.31 1721.16 Q2128.34 1721.34 2126.7 1722.1 Q2125.11 1722.86 2123.7 1724.13 Q2122.28 1725.36 2120.87 1727.79 Q2119.46 1730.18 2118.63 1733.37 L2121.67 1733.37 Q2122.72 1733.37 2123.48 1733.37 Q2124.24 1733.33 2125.91 1733.19 Q2127.61 1733.04 2128.84 1732.79 Q2130.07 1732.5 2131.63 1731.92 Q2133.19 1731.34 2134.17 1730.58 Q2135.18 1729.78 2135.87 1728.52 Q2136.56 1727.25 2136.56 1725.65 Z" fill="#000000" fill-rule="evenodd" fill-opacity="1" /><path clip-path="url(#clip510)" d="M 0 0 M2198.79 1702.36 Q2198.72 1703.7 2197.81 1703.77 Q2196.44 1703.84 2195.6 1704.02 Q2194.77 1704.17 2193.46 1704.71 Q2192.16 1705.25 2190.89 1706.56 Q2189.62 1707.86 2188.32 1709.93 L2161.62 1752.43 Q2161.15 1753.23 2160.75 1753.48 Q2160.38 1753.77 2159.55 1753.77 Q2158.79 1753.77 2158.5 1753.44 Q2158.21 1753.15 2158.07 1752.07 L2152.2 1706.27 Q2152.09 1705.44 2151.98 1705.07 Q2151.87 1704.71 2151.44 1704.35 Q2151.04 1703.99 2150.17 1703.88 Q2149.3 1703.77 2147.74 1703.77 Q2147.02 1703.77 2146.69 1703.73 Q2146.4 1703.7 2146.15 1703.52 Q2145.89 1703.3 2145.89 1702.86 Q2145.89 1702.21 2146.15 1701.89 Q2146.44 1701.52 2146.65 1701.49 Q2146.91 1701.45 2147.31 1701.45 Q2147.92 1701.45 2149.26 1701.52 Q2150.6 1701.6 2151.29 1701.6 Q2151.94 1701.6 2153.32 1701.63 Q2154.7 1701.67 2155.38 1701.67 Q2156.91 1701.67 2159.99 1701.56 Q2163.1 1701.45 2164.59 1701.45 Q2165.6 1701.45 2165.6 1702.28 Q2165.6 1703.3 2165.17 1703.55 Q2164.73 1703.77 2163.75 1703.77 Q2161.29 1703.77 2159.95 1704.39 Q2158.65 1705 2158.65 1705.98 L2163.68 1745.25 L2186.47 1709.02 Q2187.59 1707.32 2187.59 1706.2 Q2187.59 1704.02 2184.15 1703.77 Q2182.99 1703.77 2182.99 1702.86 Q2182.99 1702.21 2183.28 1701.89 Q2183.57 1701.52 2183.79 1701.49 Q2184.04 1701.45 2184.41 1701.45 Q2185.6 1701.45 2188.03 1701.56 Q2190.49 1701.67 2191.73 1701.67 Q2192.74 1701.67 2194.8 1701.56 Q2196.87 1701.45 2197.81 1701.45 Q2198.79 1701.45 2198.79 1702.36 Z" fill="#000000" fill-rule="evenodd" fill-opacity="1" /><path clip-path="url(#clip510)" d="M 0 0 M2188.73 1769.96 Q2188.73 1769.6 2189.68 1768.7 Q2201.63 1756.52 2201.63 1733.59 Q2201.63 1710.58 2190.15 1698.95 Q2188.73 1697.61 2188.73 1697.21 Q2188.73 1696.49 2189.46 1696.49 Q2189.97 1696.49 2191.74 1697.97 Q2193.55 1699.46 2196.27 1702.86 Q2199.02 1706.27 2201.05 1710.44 Q2205.94 1720.54 2205.94 1733.59 Q2205.94 1746.12 2201.27 1756.23 Q2199.28 1760.47 2196.49 1764.02 Q2193.7 1767.57 2191.85 1769.13 Q2190 1770.69 2189.46 1770.69 Q2188.73 1770.69 2188.73 1769.96 Z" fill="#000000" fill-rule="evenodd" fill-opacity="1" /><polyline clip-path="url(#clip514)" style="stroke:#000000; stroke-width:2.25; stroke-opacity:0.1; fill:none" points="
  1599.25,1563.73 2646.85,1563.73 
  "/>
<polyline clip-path="url(#clip514)" style="stroke:#000000; stroke-width:2.25; stroke-opacity:0.1; fill:none" points="
  1599.25,1315.3 2646.85,1315.3 
  "/>
<polyline clip-path="url(#clip514)" style="stroke:#000000; stroke-width:2.25; stroke-opacity:0.1; fill:none" points="
  1599.25,1066.86 2646.85,1066.86 
  "/>
<polyline clip-path="url(#clip514)" style="stroke:#000000; stroke-width:2.25; stroke-opacity:0.1; fill:none" points="
  1599.25,818.425 2646.85,818.425 
  "/>
<polyline clip-path="url(#clip514)" style="stroke:#000000; stroke-width:2.25; stroke-opacity:0.1; fill:none" points="
  1599.25,569.991 2646.85,569.991 
  "/>
<polyline clip-path="url(#clip514)" style="stroke:#000000; stroke-width:2.25; stroke-opacity:0.1; fill:none" points="
  1599.25,321.556 2646.85,321.556 
  "/>
<polyline clip-path="url(#clip510)" style="stroke:#000000; stroke-width:4.5; stroke-opacity:1; fill:none" points="
  1599.25,1605.79 1599.25,119.466 
  "/>
<polyline clip-path="url(#clip510)" style="stroke:#000000; stroke-width:4.5; stroke-opacity:1; fill:none" points="
  1599.25,1563.73 1611.83,1563.73 
  "/>
<polyline clip-path="url(#clip510)" style="stroke:#000000; stroke-width:4.5; stroke-opacity:1; fill:none" points="
  1599.25,1315.3 1611.83,1315.3 
  "/>
<polyline clip-path="url(#clip510)" style="stroke:#000000; stroke-width:4.5; stroke-opacity:1; fill:none" points="
  1599.25,1066.86 1611.83,1066.86 
  "/>
<polyline clip-path="url(#clip510)" style="stroke:#000000; stroke-width:4.5; stroke-opacity:1; fill:none" points="
  1599.25,818.425 1611.83,818.425 
  "/>
<polyline clip-path="url(#clip510)" style="stroke:#000000; stroke-width:4.5; stroke-opacity:1; fill:none" points="
  1599.25,569.991 1611.83,569.991 
  "/>
<polyline clip-path="url(#clip510)" style="stroke:#000000; stroke-width:4.5; stroke-opacity:1; fill:none" points="
  1599.25,321.556 1611.83,321.556 
  "/>
<path clip-path="url(#clip510)" d="M 0 0 M1503.73 1547.75 Q1499.67 1547.75 1497.61 1551.76 Q1495.58 1555.75 1495.58 1563.77 Q1495.58 1571.76 1497.61 1575.77 Q1499.67 1579.76 1503.73 1579.76 Q1507.82 1579.76 1509.85 1575.77 Q1511.91 1571.76 1511.91 1563.77 Q1511.91 1555.75 1509.85 1551.76 Q1507.82 1547.75 1503.73 1547.75 M1503.73 1543.59 Q1510.27 1543.59 1513.7 1548.77 Q1517.17 1553.93 1517.17 1563.77 Q1517.17 1573.59 1513.7 1578.77 Q1510.27 1583.93 1503.73 1583.93 Q1497.19 1583.93 1493.73 1578.77 Q1490.29 1573.59 1490.29 1563.77 Q1490.29 1553.93 1493.73 1548.77 Q1497.19 1543.59 1503.73 1543.59 Z" fill="#000000" fill-rule="evenodd" fill-opacity="1" /><path clip-path="url(#clip510)" d="M 0 0 M1522.87 1576.56 L1528.36 1576.56 L1528.36 1583.17 L1522.87 1583.17 L1522.87 1576.56 Z" fill="#000000" fill-rule="evenodd" fill-opacity="1" /><path clip-path="url(#clip510)" d="M 0 0 M1545.32 1547.75 Q1541.25 1547.75 1539.2 1551.76 Q1537.17 1555.75 1537.17 1563.77 Q1537.17 1571.76 1539.2 1575.77 Q1541.25 1579.76 1545.32 1579.76 Q1549.41 1579.76 1551.44 1575.77 Q1553.49 1571.76 1553.49 1563.77 Q1553.49 1555.75 1551.44 1551.76 Q1549.41 1547.75 1545.32 1547.75 M1545.32 1543.59 Q1551.85 1543.59 1555.29 1548.77 Q1558.75 1553.93 1558.75 1563.77 Q1558.75 1573.59 1555.29 1578.77 Q1551.85 1583.93 1545.32 1583.93 Q1538.78 1583.93 1535.32 1578.77 Q1531.88 1573.59 1531.88 1563.77 Q1531.88 1553.93 1535.32 1548.77 Q1538.78 1543.59 1545.32 1543.59 Z" fill="#000000" fill-rule="evenodd" fill-opacity="1" /><path clip-path="url(#clip510)" d="M 0 0 M1505.11 1299.32 Q1501.05 1299.32 1498.99 1303.33 Q1496.96 1307.31 1496.96 1315.33 Q1496.96 1323.33 1498.99 1327.34 Q1501.05 1331.32 1505.11 1331.32 Q1509.2 1331.32 1511.23 1327.34 Q1513.29 1323.33 1513.29 1315.33 Q1513.29 1307.31 1511.23 1303.33 Q1509.2 1299.32 1505.11 1299.32 M1505.11 1295.15 Q1511.65 1295.15 1515.08 1300.33 Q1518.55 1305.49 1518.55 1315.33 Q1518.55 1325.15 1515.08 1330.33 Q1511.65 1335.49 1505.11 1335.49 Q1498.57 1335.49 1495.11 1330.33 Q1491.67 1325.15 1491.67 1315.33 Q1491.67 1305.49 1495.11 1300.33 Q1498.57 1295.15 1505.11 1295.15 Z" fill="#000000" fill-rule="evenodd" fill-opacity="1" /><path clip-path="url(#clip510)" d="M 0 0 M1524.25 1328.12 L1529.74 1328.12 L1529.74 1334.74 L1524.25 1334.74 L1524.25 1328.12 Z" fill="#000000" fill-rule="evenodd" fill-opacity="1" /><path clip-path="url(#clip510)" d="M 0 0 M1536.36 1330.31 L1544.95 1330.31 L1544.95 1300.65 L1535.6 1302.52 L1535.6 1297.73 L1544.9 1295.86 L1550.16 1295.86 L1550.16 1330.31 L1558.75 1330.31 L1558.75 1334.74 L1536.36 1334.74 L1536.36 1330.31 Z" fill="#000000" fill-rule="evenodd" fill-opacity="1" /><path clip-path="url(#clip510)" d="M 0 0 M1505.53 1050.88 Q1501.46 1050.88 1499.41 1054.89 Q1497.37 1058.88 1497.37 1066.9 Q1497.37 1074.89 1499.41 1078.9 Q1501.46 1082.89 1505.53 1082.89 Q1509.61 1082.89 1511.65 1078.9 Q1513.7 1074.89 1513.7 1066.9 Q1513.7 1058.88 1511.65 1054.89 Q1509.61 1050.88 1505.53 1050.88 M1505.53 1046.72 Q1512.06 1046.72 1515.5 1051.9 Q1518.96 1057.06 1518.96 1066.9 Q1518.96 1076.72 1515.5 1081.9 Q1512.06 1087.06 1505.53 1087.06 Q1498.99 1087.06 1495.53 1081.9 Q1492.09 1076.72 1492.09 1066.9 Q1492.09 1057.06 1495.53 1051.9 Q1498.99 1046.72 1505.53 1046.72 Z" fill="#000000" fill-rule="evenodd" fill-opacity="1" /><path clip-path="url(#clip510)" d="M 0 0 M1524.67 1079.69 L1530.16 1079.69 L1530.16 1086.3 L1524.67 1086.3 L1524.67 1079.69 Z" fill="#000000" fill-rule="evenodd" fill-opacity="1" /><path clip-path="url(#clip510)" d="M 0 0 M1540.4 1081.87 L1558.75 1081.87 L1558.75 1086.3 L1534.07 1086.3 L1534.07 1081.87 Q1537.06 1078.77 1542.22 1073.57 Q1547.4 1068.33 1548.73 1066.82 Q1551.25 1063.98 1552.24 1062.03 Q1553.26 1060.05 1553.26 1058.15 Q1553.26 1055.05 1551.07 1053.1 Q1548.91 1051.14 1545.42 1051.14 Q1542.95 1051.14 1540.19 1052 Q1537.45 1052.86 1534.33 1054.61 L1534.33 1049.3 Q1537.5 1048.02 1540.26 1047.37 Q1543.03 1046.72 1545.32 1046.72 Q1551.36 1046.72 1554.95 1049.74 Q1558.55 1052.76 1558.55 1057.81 Q1558.55 1060.21 1557.63 1062.37 Q1556.75 1064.5 1554.38 1067.42 Q1553.73 1068.18 1550.24 1071.8 Q1546.75 1075.39 1540.4 1081.87 Z" fill="#000000" fill-rule="evenodd" fill-opacity="1" /><path clip-path="url(#clip510)" d="M 0 0 M1504.46 802.449 Q1500.4 802.449 1498.34 806.459 Q1496.31 810.444 1496.31 818.464 Q1496.31 826.459 1498.34 830.47 Q1500.4 834.454 1504.46 834.454 Q1508.55 834.454 1510.58 830.47 Q1512.63 826.459 1512.63 818.464 Q1512.63 810.444 1510.58 806.459 Q1508.55 802.449 1504.46 802.449 M1504.46 798.282 Q1510.99 798.282 1514.43 803.465 Q1517.9 808.621 1517.9 818.464 Q1517.9 828.282 1514.43 833.464 Q1510.99 838.621 1504.46 838.621 Q1497.92 838.621 1494.46 833.464 Q1491.02 828.282 1491.02 818.464 Q1491.02 808.621 1494.46 803.465 Q1497.92 798.282 1504.46 798.282 Z" fill="#000000" fill-rule="evenodd" fill-opacity="1" /><path clip-path="url(#clip510)" d="M 0 0 M1523.6 831.251 L1529.09 831.251 L1529.09 837.865 L1523.6 837.865 L1523.6 831.251 Z" fill="#000000" fill-rule="evenodd" fill-opacity="1" /><path clip-path="url(#clip510)" d="M 0 0 M1550.73 816.902 Q1554.51 817.709 1556.62 820.261 Q1558.75 822.813 1558.75 826.563 Q1558.75 832.319 1554.8 835.47 Q1550.84 838.621 1543.55 838.621 Q1541.1 838.621 1538.49 838.126 Q1535.92 837.657 1533.16 836.694 L1533.16 831.615 Q1535.34 832.891 1537.95 833.543 Q1540.55 834.194 1543.39 834.194 Q1548.34 834.194 1550.92 832.24 Q1553.52 830.287 1553.52 826.563 Q1553.52 823.126 1551.1 821.199 Q1548.7 819.246 1544.41 819.246 L1539.87 819.246 L1539.87 814.923 L1544.61 814.923 Q1548.49 814.923 1550.55 813.386 Q1552.61 811.824 1552.61 808.907 Q1552.61 805.912 1550.47 804.324 Q1548.36 802.709 1544.41 802.709 Q1542.24 802.709 1539.77 803.178 Q1537.3 803.647 1534.33 804.636 L1534.33 799.949 Q1537.32 799.116 1539.93 798.699 Q1542.56 798.282 1544.87 798.282 Q1550.86 798.282 1554.35 801.017 Q1557.84 803.725 1557.84 808.36 Q1557.84 811.59 1555.99 813.829 Q1554.14 816.043 1550.73 816.902 Z" fill="#000000" fill-rule="evenodd" fill-opacity="1" /><path clip-path="url(#clip510)" d="M 0 0 M1503.18 554.014 Q1499.12 554.014 1497.06 558.024 Q1495.03 562.009 1495.03 570.03 Q1495.03 578.024 1497.06 582.035 Q1499.12 586.019 1503.18 586.019 Q1507.27 586.019 1509.3 582.035 Q1511.36 578.024 1511.36 570.03 Q1511.36 562.009 1509.3 558.024 Q1507.27 554.014 1503.18 554.014 M1503.18 549.847 Q1509.72 549.847 1513.16 555.03 Q1516.62 560.186 1516.62 570.03 Q1516.62 579.847 1513.16 585.03 Q1509.72 590.186 1503.18 590.186 Q1496.65 590.186 1493.18 585.03 Q1489.74 579.847 1489.74 570.03 Q1489.74 560.186 1493.18 555.03 Q1496.65 549.847 1503.18 549.847 Z" fill="#000000" fill-rule="evenodd" fill-opacity="1" /><path clip-path="url(#clip510)" d="M 0 0 M1522.32 582.816 L1527.82 582.816 L1527.82 589.431 L1522.32 589.431 L1522.32 582.816 Z" fill="#000000" fill-rule="evenodd" fill-opacity="1" /><path clip-path="url(#clip510)" d="M 0 0 M1547.97 555.134 L1534.69 575.889 L1547.97 575.889 L1547.97 555.134 M1546.59 550.551 L1553.21 550.551 L1553.21 575.889 L1558.75 575.889 L1558.75 580.264 L1553.21 580.264 L1553.21 589.431 L1547.97 589.431 L1547.97 580.264 L1530.42 580.264 L1530.42 575.186 L1546.59 550.551 Z" fill="#000000" fill-rule="evenodd" fill-opacity="1" /><path clip-path="url(#clip510)" d="M 0 0 M1504.85 305.579 Q1500.79 305.579 1498.73 309.59 Q1496.7 313.574 1496.7 321.595 Q1496.7 329.59 1498.73 333.6 Q1500.79 337.584 1504.85 337.584 Q1508.94 337.584 1510.97 333.6 Q1513.03 329.59 1513.03 321.595 Q1513.03 313.574 1510.97 309.59 Q1508.94 305.579 1504.85 305.579 M1504.85 301.413 Q1511.38 301.413 1514.82 306.595 Q1518.29 311.751 1518.29 321.595 Q1518.29 331.412 1514.82 336.595 Q1511.38 341.751 1504.85 341.751 Q1498.31 341.751 1494.85 336.595 Q1491.41 331.412 1491.41 321.595 Q1491.41 311.751 1494.85 306.595 Q1498.31 301.413 1504.85 301.413 Z" fill="#000000" fill-rule="evenodd" fill-opacity="1" /><path clip-path="url(#clip510)" d="M 0 0 M1523.99 334.381 L1529.48 334.381 L1529.48 340.996 L1523.99 340.996 L1523.99 334.381 Z" fill="#000000" fill-rule="evenodd" fill-opacity="1" /><path clip-path="url(#clip510)" d="M 0 0 M1535.24 302.116 L1555.89 302.116 L1555.89 306.543 L1540.06 306.543 L1540.06 316.074 Q1541.2 315.683 1542.35 315.501 Q1543.49 315.293 1544.64 315.293 Q1551.15 315.293 1554.95 318.86 Q1558.75 322.428 1558.75 328.522 Q1558.75 334.798 1554.85 338.287 Q1550.94 341.751 1543.83 341.751 Q1541.38 341.751 1538.83 341.334 Q1536.31 340.918 1533.6 340.084 L1533.6 334.798 Q1535.94 336.074 1538.44 336.699 Q1540.94 337.324 1543.73 337.324 Q1548.23 337.324 1550.86 334.954 Q1553.49 332.584 1553.49 328.522 Q1553.49 324.459 1550.86 322.09 Q1548.23 319.72 1543.73 319.72 Q1541.62 319.72 1539.51 320.189 Q1537.43 320.657 1535.24 321.647 L1535.24 302.116 Z" fill="#000000" fill-rule="evenodd" fill-opacity="1" /><path clip-path="url(#clip510)" d="M 0 0 M1422.11 956.853 Q1409.58 956.853 1399.47 952.179 Q1395.23 950.186 1391.68 947.397 Q1388.13 944.607 1386.57 942.759 Q1385.01 940.911 1385.01 940.404 Q1385.01 939.679 1385.74 939.643 Q1386.1 939.643 1387 940.621 Q1399.18 952.578 1422.11 952.541 Q1445.12 952.541 1456.82 940.911 Q1458.09 939.643 1458.49 939.643 Q1459.21 939.643 1459.21 940.404 Q1459.21 940.911 1457.73 942.686 Q1456.24 944.462 1452.84 947.215 Q1449.43 949.969 1445.26 951.962 Q1435.16 956.853 1422.11 956.853 Z" fill="#000000" fill-rule="evenodd" fill-opacity="1" /><path clip-path="url(#clip510)" d="M 0 0 M1412.26 886.709 Q1412.62 886.782 1413.27 886.926 Q1413.89 887.071 1415.84 887.724 Q1417.8 888.376 1419.79 889.245 Q1421.75 890.079 1424.5 891.709 Q1427.22 893.303 1429.68 895.26 Q1430.34 895.803 1430.73 895.912 Q1431.1 895.984 1432.29 895.984 Q1439.83 895.984 1439.83 893.702 Q1439.83 893.593 1439.83 893.412 Q1439.79 893.195 1439.61 892.651 Q1439.39 892.071 1439.07 891.564 Q1438.71 891.057 1437.98 890.477 Q1437.22 889.897 1436.21 889.535 Q1435.48 889.209 1435.48 888.557 Q1435.48 887.687 1436.21 887.687 Q1437.51 887.687 1439.5 889.499 Q1441.5 891.311 1441.5 893.919 Q1441.5 896.419 1439.87 898.195 Q1438.2 899.934 1435.23 900.658 Q1441.5 908.484 1441.5 916.31 Q1441.5 921.818 1437.91 925.078 Q1434.29 928.339 1428.92 928.339 Q1423.78 928.339 1418.89 925.513 Q1414 922.651 1410.95 918.013 Q1407.87 913.339 1407.87 908.376 Q1407.87 906.636 1408.34 904.97 Q1408.78 903.303 1409.9 901.637 Q1411.02 899.97 1412.73 898.738 Q1414.43 897.506 1417.11 896.745 Q1419.79 895.984 1423.16 895.984 L1427.76 895.984 Q1421.71 891.202 1413.05 888.702 Q1411.75 888.34 1411.6 888.122 Q1411.5 887.977 1411.5 887.615 Q1411.5 887.253 1411.71 887.035 Q1411.89 886.782 1412.08 886.745 L1412.26 886.709 M1433.31 900.948 Q1432.04 901.093 1425.01 901.093 Q1423.67 901.093 1422.95 901.093 Q1422.18 901.093 1420.73 901.165 Q1419.29 901.238 1418.38 901.383 Q1417.47 901.492 1416.17 901.745 Q1414.87 901.999 1414.03 902.361 Q1413.2 902.723 1412.26 903.303 Q1411.31 903.847 1410.77 904.571 Q1410.23 905.26 1409.87 906.274 Q1409.5 907.252 1409.5 908.448 Q1409.5 909.934 1410.05 911.492 Q1410.55 913.013 1412.18 914.97 Q1413.78 916.926 1416.31 918.557 Q1419 920.26 1423.92 921.564 Q1428.81 922.832 1431.75 922.832 Q1435.44 922.832 1437.66 921.129 Q1439.83 919.426 1439.83 916.165 Q1439.83 908.376 1433.31 900.948 Z" fill="#000000" fill-rule="evenodd" fill-opacity="1" /><path clip-path="url(#clip510)" d="M 0 0 M1392.22 827.491 L1405.05 828.977 Q1406.21 829.085 1406.57 829.266 Q1406.89 829.448 1406.89 830.027 Q1406.89 830.462 1406.64 830.716 Q1406.35 830.933 1406.02 830.933 Q1405.84 830.933 1405.37 830.897 Q1404.9 830.861 1404.68 830.861 Q1402.44 830.535 1400.74 830.535 Q1397.58 830.535 1395.88 831.477 Q1394.14 832.419 1393.34 834.846 Q1392.51 837.274 1392.51 841.839 L1392.51 852.274 Q1392.51 854.665 1392.95 855.245 Q1393.38 855.788 1395.41 856.295 L1413.27 860.752 L1413.27 853.759 Q1413.27 851.15 1412.95 849.592 Q1412.62 847.998 1411.71 846.947 Q1410.77 845.861 1409.5 845.281 Q1408.23 844.665 1405.95 844.049 Q1405.19 843.868 1404.9 843.687 Q1404.61 843.469 1404.61 842.998 Q1404.61 842.636 1404.87 842.382 Q1405.08 842.129 1405.41 842.129 L1422.76 846.368 Q1423.63 846.585 1423.96 846.803 Q1424.25 847.02 1424.25 847.455 Q1424.25 847.926 1424 848.179 Q1423.74 848.433 1423.45 848.433 Q1423.16 848.433 1422.62 848.216 Q1420.26 847.672 1419 847.672 Q1418.27 847.672 1417.91 847.745 Q1417.55 847.781 1417.04 848.107 Q1416.5 848.397 1416.24 849.049 Q1415.99 849.701 1415.81 850.933 Q1415.59 852.165 1415.59 854.013 L1415.59 861.331 L1435.84 866.404 Q1437.18 866.766 1437.55 866.766 Q1437.94 866.766 1438.09 866.585 Q1438.2 866.368 1438.27 865.788 Q1438.38 865.136 1438.38 864.158 L1438.38 853.324 Q1438.38 850.933 1438.16 849.013 Q1437.94 847.092 1437.4 845.498 Q1436.86 843.868 1436.24 842.636 Q1435.63 841.404 1434.5 840.245 Q1433.34 839.085 1432.33 838.288 Q1431.28 837.455 1429.5 836.477 Q1427.73 835.498 1426.28 834.81 Q1424.79 834.122 1422.4 833.071 Q1421.53 832.781 1421.53 832.093 Q1421.53 831.694 1421.75 831.477 Q1421.93 831.259 1422.11 831.223 L1422.33 831.223 Q1423.02 831.44 1423.38 831.585 L1439.39 838.397 Q1440.3 838.795 1440.48 839.121 Q1440.66 839.448 1440.66 840.716 L1440.66 879.23 Q1440.66 880.099 1440.63 880.462 Q1440.59 880.788 1440.41 881.041 Q1440.19 881.295 1439.76 881.295 Q1439.07 881.295 1438.78 881.005 Q1438.45 880.715 1438.42 880.389 Q1438.38 880.063 1438.38 879.23 Q1438.38 877.418 1438.27 876.331 Q1438.16 875.244 1438.02 874.556 Q1437.84 873.831 1437.33 873.469 Q1436.82 873.07 1436.39 872.889 Q1435.92 872.708 1434.87 872.455 L1395.63 862.672 Q1394.29 862.31 1393.85 862.31 Q1393.38 862.31 1393.09 862.636 Q1392.8 862.926 1392.69 863.723 Q1392.55 864.52 1392.55 865.172 Q1392.51 865.788 1392.51 867.128 Q1392.51 867.998 1392.47 868.36 Q1392.44 868.686 1392.26 868.94 Q1392.08 869.194 1391.68 869.194 Q1390.66 869.194 1390.45 868.759 Q1390.19 868.288 1390.19 866.984 L1390.19 829.52 Q1390.19 828.035 1390.52 827.709 Q1390.81 827.346 1392.22 827.491 Z" fill="#000000" fill-rule="evenodd" fill-opacity="1" /><path clip-path="url(#clip510)" d="M 0 0 M1458.49 827.033 Q1458.13 827.033 1457.22 826.091 Q1445.05 814.134 1422.11 814.134 Q1399.1 814.134 1387.47 825.62 Q1386.13 827.033 1385.74 827.033 Q1385.01 827.033 1385.01 826.308 Q1385.01 825.801 1386.5 824.025 Q1387.98 822.214 1391.39 819.497 Q1394.79 816.743 1398.96 814.714 Q1409.07 809.823 1422.11 809.823 Q1434.65 809.823 1444.76 814.497 Q1449 816.489 1452.55 819.279 Q1456.1 822.069 1457.65 823.917 Q1459.21 825.765 1459.21 826.308 Q1459.21 827.033 1458.49 827.033 Z" fill="#000000" fill-rule="evenodd" fill-opacity="1" /><path clip-path="url(#clip510)" d="M 0 0 M1396.05 802.062 Q1395.11 802.062 1394.83 801.986 Q1394.55 801.884 1394.12 801.479 L1383.01 791.511 Q1376.87 786.058 1371.52 786.058 Q1368.05 786.058 1365.56 787.884 Q1363.08 789.685 1363.08 793.008 Q1363.08 795.29 1364.47 797.218 Q1365.87 799.145 1368.35 800.033 Q1368.3 799.881 1368.3 799.348 Q1368.3 798.055 1369.11 797.345 Q1369.92 796.609 1371.01 796.609 Q1372.41 796.609 1373.09 797.522 Q1373.75 798.41 1373.75 799.297 Q1373.75 799.652 1373.68 800.134 Q1373.6 800.591 1372.89 801.326 Q1372.16 802.062 1370.86 802.062 Q1367.24 802.062 1364.34 799.323 Q1361.45 796.558 1361.45 792.348 Q1361.45 787.58 1364.29 784.461 Q1367.11 781.316 1371.52 781.316 Q1373.07 781.316 1374.49 781.798 Q1375.88 782.254 1376.98 782.888 Q1378.07 783.497 1379.82 785.171 Q1381.57 786.845 1382.81 788.189 Q1384.05 789.533 1386.69 792.551 L1392.04 798.055 L1392.04 788.696 Q1392.04 784.131 1391.63 783.776 Q1390.9 783.269 1387.02 782.635 L1387.02 781.316 L1396.05 782.787 L1396.05 802.062 Z" fill="#000000" fill-rule="evenodd" fill-opacity="1" /><path clip-path="url(#clip510)" d="M 0 0 M2006.19 15.1236 L2006.19 33.3852 L2014.46 33.3852 Q2019.05 33.3852 2021.56 31.0089 Q2024.06 28.6327 2024.06 24.2382 Q2024.06 19.8762 2021.56 17.4999 Q2019.05 15.1236 2014.46 15.1236 L2006.19 15.1236 M1999.62 9.72 L2014.46 9.72 Q2022.63 9.72 2026.8 13.4309 Q2031 17.1093 2031 24.2382 Q2031 31.4321 2026.8 35.1105 Q2022.63 38.7889 2014.46 38.7889 L2006.19 38.7889 L2006.19 58.32 L1999.62 58.32 L1999.62 9.72 Z" fill="#000000" fill-rule="evenodd" fill-opacity="1" /><path clip-path="url(#clip510)" d="M 0 0 M2059.25 28.0467 L2100.98 28.0467 L2100.98 33.5154 L2059.25 33.5154 L2059.25 28.0467 M2059.25 41.3279 L2100.98 41.3279 L2100.98 46.8617 L2059.25 46.8617 L2059.25 41.3279 Z" fill="#000000" fill-rule="evenodd" fill-opacity="1" /><path clip-path="url(#clip510)" d="M 0 0 M2134.97 52.7862 L2157.92 52.7862 L2157.92 58.32 L2127.06 58.32 L2127.06 52.7862 Q2130.8 48.9125 2137.24 42.4021 Q2143.72 35.8592 2145.38 33.9712 Q2148.54 30.423 2149.78 27.9816 Q2151.05 25.5077 2151.05 23.1314 Q2151.05 19.2577 2148.31 16.8163 Q2145.61 14.3749 2141.25 14.3749 Q2138.16 14.3749 2134.71 15.4491 Q2131.29 16.5233 2127.38 18.7043 L2127.38 12.0637 Q2131.35 10.4687 2134.8 9.6549 Q2138.25 8.8411 2141.12 8.8411 Q2148.67 8.8411 2153.16 12.6171 Q2157.66 16.3931 2157.66 22.7082 Q2157.66 25.703 2156.52 28.4048 Q2155.41 31.0741 2152.45 34.7199 Q2151.63 35.6639 2147.27 40.1886 Q2142.91 44.6808 2134.97 52.7862 Z" fill="#000000" fill-rule="evenodd" fill-opacity="1" /><path clip-path="url(#clip510)" d="M 0 0 M2165.11 9.72 L2190.92 9.72 L2190.92 15.2538 L2171.13 15.2538 L2171.13 27.1678 Q2172.56 26.6795 2174 26.4517 Q2175.43 26.1913 2176.86 26.1913 Q2185 26.1913 2189.75 30.6509 Q2194.5 35.1105 2194.5 42.7276 Q2194.5 50.5726 2189.62 54.9346 Q2184.74 59.264 2175.85 59.264 Q2172.79 59.264 2169.6 58.7432 Q2166.44 58.2223 2163.06 57.1807 L2163.06 50.5726 Q2165.99 52.1677 2169.11 52.9489 Q2172.24 53.7302 2175.72 53.7302 Q2181.35 53.7302 2184.64 50.768 Q2187.93 47.8057 2187.93 42.7276 Q2187.93 37.6495 2184.64 34.6873 Q2181.35 31.7251 2175.72 31.7251 Q2173.08 31.7251 2170.45 32.311 Q2167.84 32.897 2165.11 34.1339 L2165.11 9.72 Z" fill="#000000" fill-rule="evenodd" fill-opacity="1" /><path clip-path="url(#clip510)" d="M 0 0 M2201.63 50.0518 L2208.5 50.0518 L2208.5 58.32 L2201.63 58.32 L2201.63 50.0518 Z" fill="#000000" fill-rule="evenodd" fill-opacity="1" /><path clip-path="url(#clip510)" d="M 0 0 M2229.69 14.0494 Q2224.61 14.0494 2222.04 19.0624 Q2219.5 24.0428 2219.5 34.0688 Q2219.5 44.0623 2222.04 49.0753 Q2224.61 54.0557 2229.69 54.0557 Q2234.8 54.0557 2237.34 49.0753 Q2239.91 44.0623 2239.91 34.0688 Q2239.91 24.0428 2237.34 19.0624 Q2234.8 14.0494 2229.69 14.0494 M2229.69 8.8411 Q2237.86 8.8411 2242.16 15.3189 Q2246.49 21.7642 2246.49 34.0688 Q2246.49 46.3409 2242.16 52.8187 Q2237.86 59.264 2229.69 59.264 Q2221.52 59.264 2217.19 52.8187 Q2212.9 46.3409 2212.9 34.0688 Q2212.9 21.7642 2217.19 15.3189 Q2221.52 8.8411 2229.69 8.8411 Z" fill="#000000" fill-rule="evenodd" fill-opacity="1" /><polyline clip-path="url(#clip514)" style="stroke:#009af9; stroke-width:4.5; stroke-opacity:1; fill:none" points="
  2598.63,204.785 2592.57,218.758 2586.57,232.518 
  "/>
<polyline clip-path="url(#clip514)" style="stroke:#009af9; stroke-width:4.5; stroke-opacity:1; fill:none" points="
  2400.93,623.269 2396.73,928.715 2392.57,1043.73 2388.44,1106.89 2384.35,1156.42 2380.29,1196.66 2376.26,1223.39 2372.27,1253.54 2368.32,1277.2 2364.39,1298.27 
  2360.5,1315.72 2356.64,1332.88 2352.81,1347.39 2349.02,1360.72 2345.25,1372.99 2341.51,1383.69 2337.81,1394.22 2334.13,1403.95 2330.49,1412.96 2326.87,1421.32 
  2323.28,1429.09 2319.72,1436.04 2316.19,1442.82 2312.68,1448.7 2309.21,1454.26 2305.76,1459.71 2302.33,1464.67 2298.94,1469.51 2295.57,1474.08 2292.22,1478.14 
  2288.9,1482.23 2285.61,1486 2282.34,1489.76 2279.09,1492.96 2275.87,1496.34 2272.68,1499.16 2269.51,1500.88 2266.36,1505.29 2263.23,1508.01 2260.13,1510.59 
  2257.05,1513.08 2253.99,1515.49 2250.96,1517.81 2247.95,1520.05 2244.96,1522.27 2241.99,1524.26 2239.04,1526.21 2236.11,1528.04 2233.21,1529.89 2230.32,1531.53 
  2227.46,1533.21 2224.61,1534.76 2221.79,1536.28 2218.99,1537.73 2216.2,1539.13 2213.44,1540.46 2210.69,1541.75 2207.96,1542.94 2205.25,1544.06 2202.56,1545.17 
  2199.89,1546.2 2197.24,1547.17 2194.61,1548.1 2191.99,1548.99 2189.39,1549.83 2186.81,1550.62 2184.24,1551.39 2181.69,1552.12 2179.16,1552.82 2176.65,1553.46 
  2174.15,1554.04 2171.67,1554.61 2169.21,1555.14 2166.76,1555.62 2164.33,1556.1 2161.91,1556.54 2159.51,1556.96 2157.13,1557.36 2154.76,1557.73 2152.4,1558.08 
  2150.06,1558.41 2147.74,1558.71 2145.43,1558.99 2143.14,1559.26 2140.86,1559.5 2138.59,1559.73 2136.34,1559.94 2134.1,1560.15 2131.88,1560.34 2129.67,1560.52 
  2127.47,1560.68 2125.29,1560.84 2123.12,1560.99 2120.96,1561.13 2118.82,1561.26 2116.69,1561.37 2114.58,1561.48 2112.47,1561.58 2110.38,1561.68 2108.3,1561.77 
  2106.24,1561.86 2104.19,1561.93 2102.14,1561.97 2100.12,1562.1 2098.1,1562.16 2096.09,1562.22 2094.1,1562.27 2092.12,1562.3 2090.15,1562.36 2088.19,1562.41 
  2086.25,1562.46 2084.31,1562.5 2082.39,1562.55 2080.48,1562.59 2078.57,1562.63 2076.68,1562.67 2074.8,1562.7 2072.94,1562.73 2071.08,1562.77 2069.23,1562.79 
  2067.39,1562.82 2065.57,1562.85 2063.75,1562.87 2061.94,1562.9 2060.15,1562.92 2058.36,1562.94 2056.59,1562.96 2054.82,1562.98 2053.06,1563 2051.32,1563.01 
  2049.58,1563.03 2047.85,1563.04 2046.13,1563.06 2044.43,1563.07 2042.73,1563.09 2041.04,1563.1 2039.36,1563.11 2037.68,1563.12 2036.02,1563.13 2034.37,1563.16 
  2032.72,1563.17 2031.09,1563.18 2029.46,1563.19 2027.84,1563.2 2026.23,1563.21 2024.63,1563.22 2023.04,1563.23 2021.45,1563.24 2019.88,1563.25 2018.31,1563.26 
  2016.75,1563.27 2015.2,1563.27 2013.66,1563.28 2012.12,1563.29 2010.59,1563.3 2009.07,1563.31 2007.56,1563.31 2006.06,1563.32 2004.56,1563.32 2003.07,1563.33 
  2001.59,1563.34 2000.12,1563.34 1998.65,1563.35 1997.2,1563.36 1995.74,1563.36 1994.3,1563.37 1992.86,1563.37 1991.43,1563.38 1990.01,1563.38 1988.6,1563.39 
  1987.19,1563.39 1985.79,1563.4 1984.39,1563.4 1983.01,1563.41 1981.63,1563.41 1980.25,1563.42 1978.89,1563.42 1977.53,1563.42 1976.17,1563.43 1974.82,1563.43 
  1973.48,1563.43 1972.15,1563.44 1970.82,1563.44 1969.5,1563.45 1968.19,1563.45 1966.88,1563.45 1965.58,1563.46 1964.28,1563.46 1962.99,1563.46 1961.71,1563.47 
  1960.43,1563.47 1959.16,1563.47 1957.89,1563.48 1956.63,1563.48 1955.38,1563.48 1954.13,1563.48 1952.89,1563.49 1951.65,1563.49 1950.42,1563.49 1949.2,1563.5 
  1947.98,1563.5 1946.76,1563.5 1945.56,1563.5 1944.35,1563.51 1943.16,1563.51 1941.97,1563.51 1940.78,1563.51 1939.6,1563.52 1938.43,1563.52 1937.26,1563.52 
  1936.09,1563.52 1934.93,1563.52 1933.78,1563.53 1932.63,1563.53 1931.49,1563.53 1930.35,1563.53 1929.21,1563.53 1928.08,1563.54 1926.96,1563.54 1925.84,1563.54 
  1924.73,1563.55 1923.62,1563.55 1922.52,1563.55 1921.42,1563.55 1920.32,1563.55 1919.24,1563.56 1918.15,1563.56 1917.07,1563.56 1916,1563.56 1914.93,1563.56 
  1913.86,1563.56 1912.8,1563.57 1911.74,1563.57 1910.69,1563.57 1909.64,1563.57 1908.6,1563.57 1907.56,1563.57 1906.53,1563.58 1905.5,1563.58 1904.47,1563.58 
  1903.45,1563.58 1902.43,1563.58 1901.42,1563.58 1900.41,1563.58 1899.41,1563.59 1898.41,1563.59 1897.41,1563.59 1896.42,1563.59 1895.44,1563.59 1894.45,1563.59 
  1893.47,1563.59 1892.5,1563.6 1891.53,1563.6 1890.56,1563.6 1889.6,1563.6 1888.64,1563.6 1887.68,1563.6 1886.73,1563.6 1885.79,1563.6 1884.84,1563.61 
  1883.9,1563.61 1882.97,1563.61 1882.03,1563.61 1881.11,1563.61 1880.18,1563.61 1879.26,1563.61 1878.34,1563.61 1877.43,1563.61 1876.52,1563.62 1875.61,1563.62 
  1874.71,1563.62 1873.81,1563.62 1872.92,1563.62 1872.03,1563.62 1871.14,1563.62 1870.25,1563.62 1869.37,1563.62 1868.49,1563.62 1867.62,1563.62 1866.75,1563.63 
  1865.88,1563.63 1865.02,1563.63 1864.16,1563.63 1863.3,1563.63 1862.44,1563.63 1861.59,1563.63 1860.75,1563.63 1859.9,1563.63 1859.06,1563.63 1858.22,1563.63 
  1857.39,1563.64 1856.56,1563.64 1855.73,1563.64 1854.9,1563.64 1854.08,1563.64 1853.26,1563.64 1852.45,1563.64 1851.63,1563.64 1850.82,1563.64 1850.02,1563.64 
  1849.21,1563.64 1848.41,1563.64 1847.62,1563.64 1846.82,1563.65 1846.03,1563.65 1845.24,1563.65 1844.46,1563.65 1843.67,1563.65 1842.89,1563.65 1842.12,1563.65 
  1841.34,1563.65 1840.57,1563.65 1839.8,1563.65 1839.04,1563.65 1838.27,1563.65 1837.51,1563.65 1836.76,1563.65 1836,1563.65 1835.25,1563.65 1834.5,1563.65 
  1833.76,1563.66 1833.01,1563.66 1832.27,1563.66 1831.53,1563.66 1830.8,1563.66 1830.06,1563.66 1829.33,1563.66 1828.61,1563.66 1827.88,1563.66 1827.16,1563.66 
  1826.44,1563.66 1825.72,1563.66 1825.01,1563.66 1824.29,1563.66 1823.58,1563.66 1822.88,1563.66 1822.17,1563.66 1821.47,1563.66 1820.77,1563.66 1820.07,1563.67 
  1819.38,1563.67 1818.69,1563.67 1818,1563.67 1817.31,1563.67 1816.62,1563.67 1815.94,1563.67 1815.26,1563.67 1814.58,1563.67 1813.9,1563.67 1813.23,1563.67 
  1812.56,1563.67 1811.89,1563.67 1811.22,1563.67 1810.56,1563.67 1809.9,1563.67 1809.24,1563.67 1808.58,1563.67 1807.93,1563.67 1807.27,1563.67 1806.62,1563.67 
  1805.97,1563.67 1805.33,1563.67 1804.68,1563.67 1804.04,1563.68 1803.4,1563.68 1802.76,1563.68 1802.13,1563.68 1801.49,1563.68 1800.86,1563.68 1800.23,1563.68 
  1799.6,1563.68 1798.98,1563.68 1798.35,1563.68 1797.73,1563.68 1797.11,1563.68 1796.5,1563.68 1795.88,1563.68 1795.27,1563.68 1794.66,1563.68 1794.05,1563.68 
  1793.44,1563.68 1792.84,1563.68 1792.23,1563.68 1791.63,1563.68 1791.03,1563.68 1790.44,1563.68 1789.84,1563.68 1789.25,1563.68 1788.66,1563.68 1788.07,1563.68 
  1787.48,1563.68 1786.89,1563.68 1786.31,1563.68 1785.73,1563.68 1785.15,1563.68 1784.57,1563.69 1783.99,1563.69 1783.42,1563.69 1782.85,1563.69 1782.27,1563.69 
  1781.71,1563.69 1781.14,1563.69 1780.57,1563.69 1780.01,1563.69 1779.45,1563.69 1778.89,1563.69 1778.33,1563.69 1777.77,1563.69 1777.22,1563.69 1776.66,1563.69 
  1776.11,1563.69 1775.56,1563.69 1775.01,1563.69 1774.47,1563.69 1773.92,1563.69 1773.38,1563.69 1772.84,1563.69 1772.3,1563.69 1771.76,1563.69 1771.22,1563.69 
  1770.69,1563.69 1770.16,1563.69 1769.62,1563.69 1769.09,1563.69 1768.57,1563.69 1768.04,1563.69 1767.51,1563.69 1766.99,1563.69 1766.47,1563.69 1765.95,1563.69 
  1765.43,1563.69 1764.91,1563.69 1764.4,1563.69 1763.88,1563.69 1763.37,1563.69 1762.86,1563.69 1762.35,1563.69 1761.84,1563.7 1761.34,1563.7 1760.83,1563.7 
  1760.33,1563.7 1759.83,1563.7 1759.32,1563.7 1758.83,1563.7 1758.33,1563.7 1757.83,1563.7 1757.34,1563.7 1756.85,1563.7 1756.35,1563.7 1755.86,1563.7 
  1755.37,1563.7 1754.89,1563.7 1754.4,1563.7 1753.92,1563.7 1753.43,1563.7 1752.95,1563.7 1752.47,1563.7 1751.99,1563.7 1751.52,1563.7 1751.04,1563.7 
  1750.57,1563.7 1750.09,1563.7 1749.62,1563.7 1749.15,1563.7 1748.68,1563.7 1748.21,1563.7 1747.75,1563.7 1747.28,1563.7 1746.82,1563.7 1746.35,1563.7 
  1745.89,1563.7 1745.43,1563.7 1744.97,1563.7 1744.52,1563.7 1744.06,1563.7 1743.61,1563.7 1743.15,1563.7 1742.7,1563.7 1742.25,1563.7 1741.8,1563.7 
  1741.35,1563.7 1740.9,1563.7 1740.46,1563.7 1740.01,1563.7 1739.57,1563.7 1739.13,1563.7 1738.69,1563.7 1738.25,1563.7 1737.81,1563.7 1737.37,1563.7 
  1736.94,1563.7 1736.5,1563.7 1736.07,1563.7 1735.63,1563.7 1735.2,1563.7 1734.77,1563.7 1734.34,1563.7 1733.92,1563.7 1733.49,1563.7 1733.07,1563.7 
  1732.64,1563.7 1732.22,1563.7 1731.8,1563.7 1731.38,1563.71 1730.96,1563.71 1730.54,1563.71 1730.12,1563.71 1729.7,1563.71 1729.29,1563.71 1728.87,1563.71 
  1728.46,1563.71 1728.05,1563.71 1727.64,1563.71 1727.23,1563.71 1726.82,1563.71 1726.41,1563.71 1726.01,1563.71 1725.6,1563.71 1725.2,1563.71 1724.8,1563.71 
  1724.39,1563.71 1723.99,1563.71 1723.59,1563.71 1723.19,1563.71 1722.8,1563.71 1722.4,1563.71 1722,1563.71 1721.61,1563.71 1721.22,1563.71 1720.82,1563.71 
  1720.43,1563.71 1720.04,1563.71 1719.65,1563.71 1719.26,1563.71 1718.88,1563.71 1718.49,1563.71 1718.11,1563.71 1717.72,1563.71 1717.34,1563.71 1716.96,1563.71 
  1716.57,1563.71 1716.19,1563.71 1715.81,1563.71 1715.44,1563.71 1715.06,1563.71 1714.68,1563.71 1714.31,1563.71 1713.93,1563.71 1713.56,1563.71 1713.19,1563.71 
  1712.81,1563.71 1712.44,1563.71 1712.07,1563.71 1711.71,1563.71 1711.34,1563.71 1710.97,1563.71 1710.6,1563.71 1710.24,1563.71 1709.88,1563.71 1709.51,1563.71 
  1709.15,1563.71 1708.79,1563.71 1708.43,1563.71 1708.07,1563.71 1707.71,1563.71 1707.35,1563.71 1706.99,1563.71 1706.64,1563.71 1706.28,1563.71 1705.93,1563.71 
  1705.58,1563.71 1705.22,1563.71 1704.87,1563.71 1704.52,1563.71 1704.17,1563.71 1703.82,1563.71 1703.47,1563.71 1703.13,1563.71 1702.78,1563.71 1702.44,1563.71 
  1702.09,1563.71 1701.75,1563.71 1701.4,1563.71 1701.06,1563.71 1700.72,1563.71 1700.38,1563.71 1700.04,1563.71 1699.7,1563.71 1699.36,1563.71 1699.03,1563.71 
  1698.69,1563.71 1698.35,1563.71 1698.02,1563.71 1697.69,1563.71 1697.35,1563.71 1697.02,1563.71 1696.69,1563.71 1696.36,1563.71 1696.03,1563.71 1695.7,1563.71 
  1695.37,1563.71 1695.04,1563.71 1694.72,1563.71 1694.39,1563.71 1694.07,1563.71 1693.74,1563.71 1693.42,1563.71 1693.09,1563.71 1692.77,1563.71 1692.45,1563.71 
  1692.13,1563.71 1691.81,1563.71 1691.49,1563.71 1691.17,1563.71 1690.86,1563.71 1690.54,1563.71 1690.22,1563.71 1689.91,1563.71 1689.59,1563.71 1689.28,1563.71 
  1688.97,1563.71 1688.65,1563.71 1688.34,1563.71 1688.03,1563.71 1687.72,1563.71 1687.41,1563.71 1687.1,1563.71 1686.8,1563.71 1686.49,1563.71 1686.18,1563.71 
  1685.88,1563.71 1685.57,1563.71 1685.27,1563.71 1684.96,1563.71 1684.66,1563.72 1684.36,1563.72 1684.06,1563.72 1683.76,1563.72 1683.46,1563.72 1683.16,1563.72 
  1682.86,1563.72 1682.56,1563.72 1682.26,1563.72 1681.96,1563.72 1681.67,1563.72 1681.37,1563.72 1681.08,1563.72 1680.78,1563.72 1680.49,1563.72 1680.2,1563.72 
  1679.91,1563.72 1679.61,1563.72 1679.32,1563.72 1679.03,1563.72 1678.74,1563.72 1678.45,1563.72 1678.17,1563.72 1677.88,1563.72 1677.59,1563.72 1677.31,1563.72 
  1677.02,1563.72 1676.74,1563.72 1676.45,1563.72 1676.17,1563.72 1675.88,1563.72 1675.6,1563.72 1675.32,1563.72 1675.04,1563.72 1674.76,1563.72 1674.48,1563.72 
  1674.2,1563.72 1673.92,1563.72 1673.64,1563.72 1673.36,1563.72 1673.09,1563.72 1672.81,1563.72 1672.54,1563.72 1672.26,1563.72 1671.99,1563.72 1671.71,1563.72 
  1671.44,1563.72 1671.17,1563.72 1670.9,1563.72 1670.62,1563.72 1670.35,1563.72 1670.08,1563.72 1669.81,1563.72 1669.54,1563.72 1669.28,1563.72 1669.01,1563.72 
  1668.74,1563.72 1668.47,1563.72 1668.21,1563.72 1667.94,1563.72 1667.68,1563.72 1667.41,1563.72 1667.15,1563.72 1666.89,1563.72 1666.62,1563.72 1666.36,1563.72 
  1666.1,1563.72 1665.84,1563.72 1665.58,1563.72 1665.32,1563.72 1665.06,1563.72 1664.8,1563.72 1664.54,1563.72 1664.28,1563.72 1664.03,1563.72 1663.77,1563.72 
  1663.51,1563.72 1663.26,1563.72 1663,1563.72 1662.75,1563.72 1662.49,1563.72 1662.24,1563.72 1661.99,1563.72 1661.74,1563.72 1661.48,1563.72 1661.23,1563.72 
  1660.98,1563.72 1660.73,1563.72 1660.48,1563.72 1660.23,1563.72 1659.98,1563.72 1659.74,1563.72 1659.49,1563.72 1659.24,1563.72 1659,1563.72 1658.75,1563.72 
  1658.5,1563.72 1658.26,1563.72 1658.01,1563.72 1657.77,1563.72 1657.53,1563.72 1657.28,1563.72 1657.04,1563.72 1656.8,1563.72 1656.56,1563.72 1656.32,1563.72 
  1656.08,1563.72 1655.84,1563.72 1655.6,1563.72 1655.36,1563.72 1655.12,1563.72 1654.88,1563.72 1654.64,1563.72 1654.41,1563.72 1654.17,1563.72 1653.93,1563.72 
  1653.7,1563.72 1653.46,1563.72 1653.23,1563.72 1652.99,1563.72 1652.76,1563.72 1652.53,1563.72 1652.29,1563.72 1652.06,1563.72 1651.83,1563.72 1651.6,1563.72 
  1651.37,1563.72 1651.14,1563.72 1650.91,1563.72 1650.68,1563.72 1650.45,1563.72 1650.22,1563.72 1649.99,1563.72 1649.77,1563.72 1649.54,1563.72 1649.31,1563.72 
  1649.09,1563.72 1648.86,1563.72 1648.63,1563.72 1648.41,1563.72 1648.18,1563.72 1647.96,1563.72 1647.74,1563.72 1647.51,1563.72 1647.29,1563.72 1647.07,1563.72 
  1646.85,1563.72 1646.63,1563.72 1646.4,1563.72 1646.18,1563.72 1645.96,1563.72 1645.74,1563.72 1645.52,1563.72 1645.31,1563.72 1645.09,1563.72 1644.87,1563.72 
  1644.65,1563.72 1644.43,1563.72 1644.22,1563.72 1644,1563.72 1643.79,1563.72 1643.57,1563.72 1643.36,1563.72 1643.14,1563.72 1642.93,1563.72 1642.71,1563.72 
  1642.5,1563.72 1642.29,1563.72 1642.07,1563.72 1641.86,1563.72 1641.65,1563.72 1641.44,1563.72 1641.23,1563.72 1641.02,1563.72 1640.81,1563.72 1640.6,1563.72 
  1640.39,1563.72 1640.18,1563.72 1639.97,1563.72 1639.76,1563.72 1639.56,1563.72 1639.35,1563.72 1639.14,1563.72 1638.94,1563.72 1638.73,1563.72 1638.52,1563.72 
  1638.32,1563.72 1638.11,1563.72 1637.91,1563.72 1637.7,1563.72 1637.5,1563.72 1637.3,1563.72 1637.09,1563.72 1636.89,1563.72 1636.69,1563.72 1636.49,1563.72 
  1636.29,1563.72 1636.09,1563.72 1635.88,1563.72 1635.68,1563.72 1635.48,1563.72 1635.29,1563.72 1635.09,1563.72 1634.89,1563.72 1634.69,1563.72 1634.49,1563.72 
  1634.29,1563.72 1634.1,1563.72 1633.9,1563.72 1633.7,1563.72 1633.51,1563.72 1633.31,1563.72 1633.11,1563.72 1632.92,1563.72 1632.72,1563.72 1632.53,1563.72 
  1632.34,1563.72 1632.14,1563.72 1631.95,1563.72 1631.76,1563.72 1631.56,1563.72 1631.37,1563.72 1631.18,1563.72 1630.99,1563.72 1630.8,1563.72 1630.61,1563.72 
  1630.41,1563.72 1630.22,1563.72 1630.03,1563.72 1629.85,1563.72 1629.66,1563.72 1629.47,1563.72 1629.28,1563.72 1629.09,1563.72 1628.9,1563.72 
  "/>
</svg>
