<?xml version="1.0" encoding="utf-8"?>
<svg xmlns="http://www.w3.org/2000/svg" xmlns:xlink="http://www.w3.org/1999/xlink" width="675" height="450" viewBox="0 0 2700 1800">
<defs>
  <clipPath id="clip190">
    <rect x="0" y="0" width="2700" height="1800"/>
  </clipPath>
</defs>
<path clip-path="url(#clip190)" d="
M0 1800 L2700 1800 L2700 0 L0 0  Z
  " fill="#ffffff" fill-rule="evenodd" fill-opacity="1"/>
<defs>
  <clipPath id="clip191">
    <rect x="540" y="0" width="1891" height="1800"/>
  </clipPath>
</defs>
<defs>
  <clipPath id="clip192">
    <rect x="1609" y="119" width="1038" height="1487"/>
  </clipPath>
</defs>
<path clip-path="url(#clip190)" d="
M259.678 1605.79 L1296.85 1605.79 L1296.85 119.466 L259.678 119.466  Z
  " fill="#ffffff" fill-rule="evenodd" fill-opacity="1"/>
<defs>
  <clipPath id="clip193">
    <rect x="259" y="119" width="1038" height="1487"/>
  </clipPath>
</defs>
<polyline clip-path="url(#clip193)" style="stroke:#000000; stroke-width:2.25; stroke-opacity:0.1; fill:none" points="
  289.032,1605.79 289.032,119.466 
  "/>
<polyline clip-path="url(#clip193)" style="stroke:#000000; stroke-width:2.25; stroke-opacity:0.1; fill:none" points="
  438.977,1605.79 438.977,119.466 
  "/>
<polyline clip-path="url(#clip193)" style="stroke:#000000; stroke-width:2.25; stroke-opacity:0.1; fill:none" points="
  588.922,1605.79 588.922,119.466 
  "/>
<polyline clip-path="url(#clip193)" style="stroke:#000000; stroke-width:2.25; stroke-opacity:0.1; fill:none" points="
  738.867,1605.79 738.867,119.466 
  "/>
<polyline clip-path="url(#clip193)" style="stroke:#000000; stroke-width:2.25; stroke-opacity:0.1; fill:none" points="
  888.812,1605.79 888.812,119.466 
  "/>
<polyline clip-path="url(#clip193)" style="stroke:#000000; stroke-width:2.25; stroke-opacity:0.1; fill:none" points="
  1038.76,1605.79 1038.76,119.466 
  "/>
<polyline clip-path="url(#clip193)" style="stroke:#000000; stroke-width:2.25; stroke-opacity:0.1; fill:none" points="
  1188.7,1605.79 1188.7,119.466 
  "/>
<polyline clip-path="url(#clip190)" style="stroke:#000000; stroke-width:4.5; stroke-opacity:1; fill:none" points="
  259.678,1605.79 1296.85,1605.79 
  "/>
<polyline clip-path="url(#clip190)" style="stroke:#000000; stroke-width:4.5; stroke-opacity:1; fill:none" points="
  289.032,1605.79 289.032,1587.95 
  "/>
<polyline clip-path="url(#clip190)" style="stroke:#000000; stroke-width:4.5; stroke-opacity:1; fill:none" points="
  438.977,1605.79 438.977,1587.95 
  "/>
<polyline clip-path="url(#clip190)" style="stroke:#000000; stroke-width:4.5; stroke-opacity:1; fill:none" points="
  588.922,1605.79 588.922,1587.95 
  "/>
<polyline clip-path="url(#clip190)" style="stroke:#000000; stroke-width:4.5; stroke-opacity:1; fill:none" points="
  738.867,1605.79 738.867,1587.95 
  "/>
<polyline clip-path="url(#clip190)" style="stroke:#000000; stroke-width:4.5; stroke-opacity:1; fill:none" points="
  888.812,1605.79 888.812,1587.95 
  "/>
<polyline clip-path="url(#clip190)" style="stroke:#000000; stroke-width:4.5; stroke-opacity:1; fill:none" points="
  1038.76,1605.79 1038.76,1587.95 
  "/>
<polyline clip-path="url(#clip190)" style="stroke:#000000; stroke-width:4.5; stroke-opacity:1; fill:none" points="
  1188.7,1605.79 1188.7,1587.95 
  "/>
<path clip-path="url(#clip190)" d="M 0 0 M289.032 1638.63 Q284.969 1638.63 282.912 1642.64 Q280.881 1646.62 280.881 1654.64 Q280.881 1662.64 282.912 1666.65 Q284.969 1670.63 289.032 1670.63 Q293.12 1670.63 295.152 1666.65 Q297.209 1662.64 297.209 1654.64 Q297.209 1646.62 295.152 1642.64 Q293.12 1638.63 289.032 1638.63 M289.032 1634.46 Q295.568 1634.46 299.006 1639.64 Q302.469 1644.8 302.469 1654.64 Q302.469 1664.46 299.006 1669.64 Q295.568 1674.8 289.032 1674.8 Q282.496 1674.8 279.032 1669.64 Q275.595 1664.46 275.595 1654.64 Q275.595 1644.8 279.032 1639.64 Q282.496 1634.46 289.032 1634.46 Z" fill="#000000" fill-rule="evenodd" fill-opacity="1" /><path clip-path="url(#clip190)" d="M 0 0 M428.157 1669.62 L436.751 1669.62 L436.751 1639.95 L427.402 1641.83 L427.402 1637.04 L436.698 1635.16 L441.959 1635.16 L441.959 1669.62 L450.553 1669.62 L450.553 1674.04 L428.157 1674.04 L428.157 1669.62 Z" fill="#000000" fill-rule="evenodd" fill-opacity="1" /><path clip-path="url(#clip190)" d="M 0 0 M582.907 1669.62 L601.266 1669.62 L601.266 1674.04 L576.579 1674.04 L576.579 1669.62 Q579.573 1666.52 584.73 1661.31 Q589.912 1656.07 591.24 1654.56 Q593.766 1651.73 594.756 1649.77 Q595.771 1647.79 595.771 1645.89 Q595.771 1642.79 593.584 1640.84 Q591.422 1638.89 587.933 1638.89 Q585.459 1638.89 582.698 1639.75 Q579.964 1640.61 576.839 1642.35 L576.839 1637.04 Q580.016 1635.76 582.776 1635.11 Q585.537 1634.46 587.828 1634.46 Q593.87 1634.46 597.464 1637.48 Q601.058 1640.5 601.058 1645.55 Q601.058 1647.95 600.146 1650.11 Q599.261 1652.25 596.891 1655.16 Q596.24 1655.92 592.75 1659.54 Q589.261 1663.13 582.907 1669.62 Z" fill="#000000" fill-rule="evenodd" fill-opacity="1" /><path clip-path="url(#clip190)" d="M 0 0 M743.646 1653.08 Q747.422 1653.89 749.531 1656.44 Q751.667 1658.99 751.667 1662.74 Q751.667 1668.5 747.708 1671.65 Q743.75 1674.8 736.458 1674.8 Q734.011 1674.8 731.406 1674.3 Q728.828 1673.83 726.068 1672.87 L726.068 1667.79 Q728.255 1669.07 730.86 1669.72 Q733.464 1670.37 736.302 1670.37 Q741.25 1670.37 743.828 1668.42 Q746.432 1666.47 746.432 1662.74 Q746.432 1659.3 744.011 1657.38 Q741.615 1655.42 737.318 1655.42 L732.787 1655.42 L732.787 1651.1 L737.526 1651.1 Q741.406 1651.1 743.464 1649.56 Q745.521 1648 745.521 1645.09 Q745.521 1642.09 743.386 1640.5 Q741.276 1638.89 737.318 1638.89 Q735.156 1638.89 732.682 1639.36 Q730.209 1639.82 727.24 1640.81 L727.24 1636.13 Q730.235 1635.29 732.839 1634.88 Q735.469 1634.46 737.787 1634.46 Q743.776 1634.46 747.266 1637.19 Q750.755 1639.9 750.755 1644.54 Q750.755 1647.77 748.906 1650.01 Q747.057 1652.22 743.646 1653.08 Z" fill="#000000" fill-rule="evenodd" fill-opacity="1" /><path clip-path="url(#clip190)" d="M 0 0 M892.198 1639.75 L878.917 1660.5 L892.198 1660.5 L892.198 1639.75 M890.818 1635.16 L897.432 1635.16 L897.432 1660.5 L902.979 1660.5 L902.979 1664.88 L897.432 1664.88 L897.432 1674.04 L892.198 1674.04 L892.198 1664.88 L874.646 1664.88 L874.646 1659.8 L890.818 1635.16 Z" fill="#000000" fill-rule="evenodd" fill-opacity="1" /><path clip-path="url(#clip190)" d="M 0 0 M1027.82 1635.16 L1048.47 1635.16 L1048.47 1639.59 L1032.64 1639.59 L1032.64 1649.12 Q1033.78 1648.73 1034.93 1648.55 Q1036.08 1648.34 1037.22 1648.34 Q1043.73 1648.34 1047.53 1651.91 Q1051.34 1655.48 1051.34 1661.57 Q1051.34 1667.85 1047.43 1671.34 Q1043.52 1674.8 1036.41 1674.8 Q1033.97 1674.8 1031.41 1674.38 Q1028.89 1673.97 1026.18 1673.13 L1026.18 1667.85 Q1028.52 1669.12 1031.02 1669.75 Q1033.52 1670.37 1036.31 1670.37 Q1040.81 1670.37 1043.45 1668 Q1046.08 1665.63 1046.08 1661.57 Q1046.08 1657.51 1043.45 1655.14 Q1040.81 1652.77 1036.31 1652.77 Q1034.2 1652.77 1032.09 1653.24 Q1030.01 1653.7 1027.82 1654.69 L1027.82 1635.16 Z" fill="#000000" fill-rule="evenodd" fill-opacity="1" /><path clip-path="url(#clip190)" d="M 0 0 M1189.16 1652.51 Q1185.62 1652.51 1183.53 1654.93 Q1181.48 1657.35 1181.48 1661.57 Q1181.48 1665.76 1183.53 1668.21 Q1185.62 1670.63 1189.16 1670.63 Q1192.7 1670.63 1194.76 1668.21 Q1196.84 1665.76 1196.84 1661.57 Q1196.84 1657.35 1194.76 1654.93 Q1192.7 1652.51 1189.16 1652.51 M1199.6 1636.02 L1199.6 1640.81 Q1197.62 1639.88 1195.59 1639.38 Q1193.59 1638.89 1191.61 1638.89 Q1186.4 1638.89 1183.64 1642.4 Q1180.9 1645.92 1180.51 1653.03 Q1182.05 1650.76 1184.37 1649.56 Q1186.68 1648.34 1189.47 1648.34 Q1195.33 1648.34 1198.72 1651.91 Q1202.13 1655.45 1202.13 1661.57 Q1202.13 1667.56 1198.59 1671.18 Q1195.04 1674.8 1189.16 1674.8 Q1182.41 1674.8 1178.85 1669.64 Q1175.28 1664.46 1175.28 1654.64 Q1175.28 1645.42 1179.65 1639.95 Q1184.03 1634.46 1191.4 1634.46 Q1193.38 1634.46 1195.38 1634.85 Q1197.41 1635.24 1199.6 1636.02 Z" fill="#000000" fill-rule="evenodd" fill-opacity="1" /><path clip-path="url(#clip190)" d="M 0 0 M737.872 1703.7 L736.387 1716.52 Q736.278 1717.68 736.097 1718.04 Q735.916 1718.37 735.336 1718.37 Q734.901 1718.37 734.647 1718.12 Q734.43 1717.83 734.43 1717.5 Q734.43 1717.32 734.466 1716.85 Q734.503 1716.38 734.503 1716.16 Q734.829 1713.91 734.829 1712.21 Q734.829 1709.06 733.887 1707.36 Q732.945 1705.62 730.517 1704.82 Q728.09 1703.99 723.524 1703.99 L713.09 1703.99 Q710.698 1703.99 710.119 1704.42 Q709.575 1704.86 709.068 1706.89 L704.612 1724.75 L711.604 1724.75 Q714.213 1724.75 715.771 1724.42 Q717.365 1724.1 718.416 1723.19 Q719.503 1722.25 720.082 1720.98 Q720.698 1719.71 721.314 1717.43 Q721.495 1716.67 721.677 1716.38 Q721.894 1716.09 722.365 1716.09 Q722.727 1716.09 722.981 1716.34 Q723.235 1716.56 723.235 1716.89 L718.995 1734.24 Q718.778 1735.11 718.561 1735.44 Q718.343 1735.73 717.909 1735.73 Q717.437 1735.73 717.184 1735.47 Q716.93 1735.22 716.93 1734.93 Q716.93 1734.64 717.148 1734.1 Q717.691 1731.74 717.691 1730.47 Q717.691 1729.75 717.619 1729.39 Q717.582 1729.02 717.256 1728.52 Q716.966 1727.97 716.314 1727.72 Q715.662 1727.46 714.43 1727.28 Q713.198 1727.07 711.351 1727.07 L704.032 1727.07 L698.959 1747.32 Q698.597 1748.66 698.597 1749.02 Q698.597 1749.42 698.778 1749.57 Q698.996 1749.67 699.575 1749.75 Q700.227 1749.86 701.206 1749.86 L712.039 1749.86 Q714.43 1749.86 716.351 1749.64 Q718.271 1749.42 719.865 1748.88 Q721.495 1748.33 722.727 1747.72 Q723.959 1747.1 725.119 1745.98 Q726.278 1744.82 727.075 1743.81 Q727.908 1742.75 728.887 1740.98 Q729.865 1739.2 730.553 1737.75 Q731.242 1736.27 732.292 1733.88 Q732.582 1733.01 733.271 1733.01 Q733.669 1733.01 733.887 1733.23 Q734.104 1733.41 734.14 1733.59 L734.14 1733.81 Q733.923 1734.49 733.778 1734.86 L726.966 1750.87 Q726.568 1751.78 726.242 1751.96 Q725.916 1752.14 724.648 1752.14 L686.133 1752.14 Q685.264 1752.14 684.902 1752.1 Q684.575 1752.07 684.322 1751.88 Q684.068 1751.67 684.068 1751.23 Q684.068 1750.54 684.358 1750.25 Q684.648 1749.93 684.974 1749.89 Q685.3 1749.86 686.133 1749.86 Q687.945 1749.86 689.032 1749.75 Q690.119 1749.64 690.807 1749.49 Q691.532 1749.31 691.894 1748.81 Q692.293 1748.3 692.474 1747.86 Q692.655 1747.39 692.909 1746.34 L702.691 1707.1 Q703.054 1705.76 703.054 1705.33 Q703.054 1704.86 702.727 1704.57 Q702.438 1704.28 701.641 1704.17 Q700.843 1704.02 700.191 1704.02 Q699.575 1703.99 698.235 1703.99 Q697.365 1703.99 697.003 1703.95 Q696.677 1703.91 696.423 1703.73 Q696.17 1703.55 696.17 1703.15 Q696.17 1702.14 696.604 1701.92 Q697.075 1701.67 698.38 1701.67 L735.843 1701.67 Q737.329 1701.67 737.655 1701.99 Q738.017 1702.28 737.872 1703.7 Z" fill="#000000" fill-rule="evenodd" fill-opacity="1" /><path clip-path="url(#clip190)" d="M 0 0 M738.331 1733.59 Q738.331 1721.05 743.004 1710.94 Q744.997 1706.7 747.787 1703.15 Q750.577 1699.6 752.425 1698.04 Q754.272 1696.49 754.78 1696.49 Q755.504 1696.49 755.541 1697.21 Q755.541 1697.57 754.562 1698.48 Q742.606 1710.65 742.642 1733.59 Q742.642 1756.6 754.272 1768.3 Q755.541 1769.57 755.541 1769.96 Q755.541 1770.69 754.78 1770.69 Q754.272 1770.69 752.497 1769.2 Q750.722 1767.72 747.968 1764.31 Q745.215 1760.91 743.222 1756.74 Q738.331 1746.63 738.331 1733.59 Z" fill="#000000" fill-rule="evenodd" fill-opacity="1" /><path clip-path="url(#clip190)" d="M 0 0 M795.069 1743.55 Q795.359 1743.88 795.359 1744.2 Q795.359 1744.53 794.634 1745.47 Q793.946 1746.41 792.46 1747.68 Q790.975 1748.95 789.054 1750.15 Q787.134 1751.34 784.308 1752.14 Q781.482 1752.97 778.511 1752.97 Q773.185 1752.97 769.996 1749.17 Q766.844 1745.36 766.844 1739.53 Q766.844 1735.8 768.076 1732.5 Q769.308 1729.17 771.301 1726.81 Q773.33 1724.46 775.866 1722.75 Q778.438 1721.02 781.12 1720.18 Q783.801 1719.35 786.301 1719.35 Q789.96 1719.35 792.098 1721.2 Q794.235 1723.04 794.235 1725.65 Q794.235 1726.27 794.054 1727.03 Q793.909 1727.79 793.402 1728.99 Q792.931 1730.18 791.699 1731.38 Q790.467 1732.54 788.656 1733.3 Q784.634 1735 777.315 1735 L773.366 1735 Q772.207 1739.67 772.207 1742.72 Q772.207 1743.91 772.424 1745.15 Q772.641 1746.34 773.221 1747.86 Q773.837 1749.38 775.214 1750.36 Q776.627 1751.31 778.656 1751.31 Q779.308 1751.31 779.996 1751.27 Q780.721 1751.23 782.533 1750.83 Q784.38 1750.44 786.011 1749.75 Q787.641 1749.06 789.706 1747.57 Q791.808 1746.05 793.475 1743.99 Q794.054 1743.23 794.453 1743.23 Q794.779 1743.23 795.069 1743.55 M791.772 1725.65 Q791.772 1723.66 790.286 1722.32 Q788.837 1720.98 786.301 1720.98 Q785.504 1720.98 784.525 1721.16 Q783.547 1721.34 781.917 1722.1 Q780.322 1722.86 778.909 1724.13 Q777.496 1725.36 776.083 1727.79 Q774.67 1730.18 773.837 1733.37 L776.88 1733.37 Q777.931 1733.37 778.692 1733.37 Q779.453 1733.33 781.12 1733.19 Q782.822 1733.04 784.054 1732.79 Q785.286 1732.5 786.844 1731.92 Q788.402 1731.34 789.38 1730.58 Q790.395 1729.78 791.083 1728.52 Q791.772 1727.25 791.772 1725.65 Z" fill="#000000" fill-rule="evenodd" fill-opacity="1" /><path clip-path="url(#clip190)" d="M 0 0 M854.002 1702.36 Q853.93 1703.7 853.024 1703.77 Q851.647 1703.84 850.814 1704.02 Q849.98 1704.17 848.676 1704.71 Q847.372 1705.25 846.104 1706.56 Q844.836 1707.86 843.531 1709.93 L816.828 1752.43 Q816.357 1753.23 815.959 1753.48 Q815.597 1753.77 814.763 1753.77 Q814.002 1753.77 813.713 1753.44 Q813.423 1753.15 813.278 1752.07 L807.408 1706.27 Q807.3 1705.44 807.191 1705.07 Q807.082 1704.71 806.647 1704.35 Q806.249 1703.99 805.379 1703.88 Q804.51 1703.77 802.952 1703.77 Q802.227 1703.77 801.901 1703.73 Q801.611 1703.7 801.358 1703.52 Q801.104 1703.3 801.104 1702.86 Q801.104 1702.21 801.358 1701.89 Q801.647 1701.52 801.865 1701.49 Q802.118 1701.45 802.517 1701.45 Q803.133 1701.45 804.474 1701.52 Q805.814 1701.6 806.502 1701.6 Q807.155 1701.6 808.531 1701.63 Q809.908 1701.67 810.597 1701.67 Q812.118 1701.67 815.198 1701.56 Q818.314 1701.45 819.799 1701.45 Q820.814 1701.45 820.814 1702.28 Q820.814 1703.3 820.379 1703.55 Q819.944 1703.77 818.966 1703.77 Q816.502 1703.77 815.162 1704.39 Q813.857 1705 813.857 1705.98 L818.894 1745.25 L841.683 1709.02 Q842.807 1707.32 842.807 1706.2 Q842.807 1704.02 839.365 1703.77 Q838.205 1703.77 838.205 1702.86 Q838.205 1702.21 838.495 1701.89 Q838.785 1701.52 839.002 1701.49 Q839.256 1701.45 839.618 1701.45 Q840.814 1701.45 843.241 1701.56 Q845.705 1701.67 846.937 1701.67 Q847.951 1701.67 850.017 1701.56 Q852.082 1701.45 853.024 1701.45 Q854.002 1701.45 854.002 1702.36 Z" fill="#000000" fill-rule="evenodd" fill-opacity="1" /><path clip-path="url(#clip190)" d="M 0 0 M843.946 1769.96 Q843.946 1769.6 844.888 1768.7 Q856.845 1756.52 856.845 1733.59 Q856.845 1710.58 845.359 1698.95 Q843.946 1697.61 843.946 1697.21 Q843.946 1696.49 844.671 1696.49 Q845.178 1696.49 846.954 1697.97 Q848.765 1699.46 851.483 1702.86 Q854.236 1706.27 856.265 1710.44 Q861.156 1720.54 861.156 1733.59 Q861.156 1746.12 856.483 1756.23 Q854.49 1760.47 851.7 1764.02 Q848.91 1767.57 847.062 1769.13 Q845.215 1770.69 844.671 1770.69 Q843.946 1770.69 843.946 1769.96 Z" fill="#000000" fill-rule="evenodd" fill-opacity="1" /><polyline clip-path="url(#clip193)" style="stroke:#000000; stroke-width:2.25; stroke-opacity:0.1; fill:none" points="
  259.678,1563.72 1296.85,1563.72 
  "/>
<polyline clip-path="url(#clip193)" style="stroke:#000000; stroke-width:2.25; stroke-opacity:0.1; fill:none" points="
  259.678,1240.17 1296.85,1240.17 
  "/>
<polyline clip-path="url(#clip193)" style="stroke:#000000; stroke-width:2.25; stroke-opacity:0.1; fill:none" points="
  259.678,916.627 1296.85,916.627 
  "/>
<polyline clip-path="url(#clip193)" style="stroke:#000000; stroke-width:2.25; stroke-opacity:0.1; fill:none" points="
  259.678,593.08 1296.85,593.08 
  "/>
<polyline clip-path="url(#clip193)" style="stroke:#000000; stroke-width:2.25; stroke-opacity:0.1; fill:none" points="
  259.678,269.533 1296.85,269.533 
  "/>
<polyline clip-path="url(#clip190)" style="stroke:#000000; stroke-width:4.5; stroke-opacity:1; fill:none" points="
  259.678,1605.79 259.678,119.466 
  "/>
<polyline clip-path="url(#clip190)" style="stroke:#000000; stroke-width:4.5; stroke-opacity:1; fill:none" points="
  259.678,1563.72 272.124,1563.72 
  "/>
<polyline clip-path="url(#clip190)" style="stroke:#000000; stroke-width:4.5; stroke-opacity:1; fill:none" points="
  259.678,1240.17 272.124,1240.17 
  "/>
<polyline clip-path="url(#clip190)" style="stroke:#000000; stroke-width:4.5; stroke-opacity:1; fill:none" points="
  259.678,916.627 272.124,916.627 
  "/>
<polyline clip-path="url(#clip190)" style="stroke:#000000; stroke-width:4.5; stroke-opacity:1; fill:none" points="
  259.678,593.08 272.124,593.08 
  "/>
<polyline clip-path="url(#clip190)" style="stroke:#000000; stroke-width:4.5; stroke-opacity:1; fill:none" points="
  259.678,269.533 272.124,269.533 
  "/>
<path clip-path="url(#clip190)" d="M 0 0 M164.152 1547.75 Q160.09 1547.75 158.033 1551.76 Q156.001 1555.74 156.001 1563.76 Q156.001 1571.76 158.033 1575.77 Q160.09 1579.75 164.152 1579.75 Q168.241 1579.75 170.272 1575.77 Q172.329 1571.76 172.329 1563.76 Q172.329 1555.74 170.272 1551.76 Q168.241 1547.75 164.152 1547.75 M164.152 1543.58 Q170.689 1543.58 174.126 1548.76 Q177.59 1553.92 177.59 1563.76 Q177.59 1573.58 174.126 1578.76 Q170.689 1583.92 164.152 1583.92 Q157.616 1583.92 154.152 1578.76 Q150.715 1573.58 150.715 1563.76 Q150.715 1553.92 154.152 1548.76 Q157.616 1543.58 164.152 1543.58 Z" fill="#000000" fill-rule="evenodd" fill-opacity="1" /><path clip-path="url(#clip190)" d="M 0 0 M183.293 1576.55 L188.788 1576.55 L188.788 1583.16 L183.293 1583.16 L183.293 1576.55 Z" fill="#000000" fill-rule="evenodd" fill-opacity="1" /><path clip-path="url(#clip190)" d="M 0 0 M205.741 1547.75 Q201.678 1547.75 199.621 1551.76 Q197.59 1555.74 197.59 1563.76 Q197.59 1571.76 199.621 1575.77 Q201.678 1579.75 205.741 1579.75 Q209.829 1579.75 211.86 1575.77 Q213.918 1571.76 213.918 1563.76 Q213.918 1555.74 211.86 1551.76 Q209.829 1547.75 205.741 1547.75 M205.741 1543.58 Q212.277 1543.58 215.715 1548.76 Q219.178 1553.92 219.178 1563.76 Q219.178 1573.58 215.715 1578.76 Q212.277 1583.92 205.741 1583.92 Q199.204 1583.92 195.741 1578.76 Q192.303 1573.58 192.303 1563.76 Q192.303 1553.92 195.741 1548.76 Q199.204 1543.58 205.741 1543.58 Z" fill="#000000" fill-rule="evenodd" fill-opacity="1" /><path clip-path="url(#clip190)" d="M 0 0 M165.949 1224.2 Q161.887 1224.2 159.829 1228.21 Q157.798 1232.19 157.798 1240.21 Q157.798 1248.21 159.829 1252.22 Q161.887 1256.2 165.949 1256.2 Q170.038 1256.2 172.069 1252.22 Q174.126 1248.21 174.126 1240.21 Q174.126 1232.19 172.069 1228.21 Q170.038 1224.2 165.949 1224.2 M165.949 1220.03 Q172.486 1220.03 175.923 1225.21 Q179.387 1230.37 179.387 1240.21 Q179.387 1250.03 175.923 1255.21 Q172.486 1260.37 165.949 1260.37 Q159.413 1260.37 155.949 1255.21 Q152.512 1250.03 152.512 1240.21 Q152.512 1230.37 155.949 1225.21 Q159.413 1220.03 165.949 1220.03 Z" fill="#000000" fill-rule="evenodd" fill-opacity="1" /><path clip-path="url(#clip190)" d="M 0 0 M185.09 1253 L190.584 1253 L190.584 1259.61 L185.09 1259.61 L185.09 1253 Z" fill="#000000" fill-rule="evenodd" fill-opacity="1" /><path clip-path="url(#clip190)" d="M 0 0 M200.819 1255.19 L219.178 1255.19 L219.178 1259.61 L194.491 1259.61 L194.491 1255.19 Q197.485 1252.09 202.642 1246.88 Q207.824 1241.65 209.152 1240.14 Q211.678 1237.3 212.668 1235.34 Q213.683 1233.36 213.683 1231.46 Q213.683 1228.36 211.496 1226.41 Q209.334 1224.46 205.845 1224.46 Q203.371 1224.46 200.61 1225.32 Q197.876 1226.18 194.751 1227.92 L194.751 1222.61 Q197.928 1221.33 200.689 1220.68 Q203.449 1220.03 205.741 1220.03 Q211.782 1220.03 215.376 1223.05 Q218.97 1226.07 218.97 1231.13 Q218.97 1233.52 218.058 1235.68 Q217.173 1237.82 214.803 1240.73 Q214.152 1241.49 210.662 1245.11 Q207.173 1248.7 200.819 1255.19 Z" fill="#000000" fill-rule="evenodd" fill-opacity="1" /><path clip-path="url(#clip190)" d="M 0 0 M163.605 900.651 Q159.543 900.651 157.486 904.661 Q155.454 908.646 155.454 916.666 Q155.454 924.661 157.486 928.672 Q159.543 932.656 163.605 932.656 Q167.694 932.656 169.725 928.672 Q171.782 924.661 171.782 916.666 Q171.782 908.646 169.725 904.661 Q167.694 900.651 163.605 900.651 M163.605 896.484 Q170.142 896.484 173.579 901.666 Q177.043 906.823 177.043 916.666 Q177.043 926.484 173.579 931.666 Q170.142 936.823 163.605 936.823 Q157.069 936.823 153.605 931.666 Q150.168 926.484 150.168 916.666 Q150.168 906.823 153.605 901.666 Q157.069 896.484 163.605 896.484 Z" fill="#000000" fill-rule="evenodd" fill-opacity="1" /><path clip-path="url(#clip190)" d="M 0 0 M182.746 929.453 L188.241 929.453 L188.241 936.067 L182.746 936.067 L182.746 929.453 Z" fill="#000000" fill-rule="evenodd" fill-opacity="1" /><path clip-path="url(#clip190)" d="M 0 0 M208.397 901.771 L195.116 922.526 L208.397 922.526 L208.397 901.771 M207.017 897.187 L213.631 897.187 L213.631 922.526 L219.178 922.526 L219.178 926.901 L213.631 926.901 L213.631 936.067 L208.397 936.067 L208.397 926.901 L190.845 926.901 L190.845 921.823 L207.017 897.187 Z" fill="#000000" fill-rule="evenodd" fill-opacity="1" /><path clip-path="url(#clip190)" d="M 0 0 M163.97 577.104 Q159.908 577.104 157.85 581.114 Q155.819 585.098 155.819 593.119 Q155.819 601.114 157.85 605.124 Q159.908 609.109 163.97 609.109 Q168.059 609.109 170.09 605.124 Q172.147 601.114 172.147 593.119 Q172.147 585.098 170.09 581.114 Q168.059 577.104 163.97 577.104 M163.97 572.937 Q170.506 572.937 173.944 578.119 Q177.407 583.276 177.407 593.119 Q177.407 602.937 173.944 608.119 Q170.506 613.275 163.97 613.275 Q157.434 613.275 153.97 608.119 Q150.533 602.937 150.533 593.119 Q150.533 583.276 153.97 578.119 Q157.434 572.937 163.97 572.937 Z" fill="#000000" fill-rule="evenodd" fill-opacity="1" /><path clip-path="url(#clip190)" d="M 0 0 M183.111 605.906 L188.605 605.906 L188.605 612.52 L183.111 612.52 L183.111 605.906 Z" fill="#000000" fill-rule="evenodd" fill-opacity="1" /><path clip-path="url(#clip190)" d="M 0 0 M206.209 590.984 Q202.668 590.984 200.584 593.406 Q198.527 595.828 198.527 600.046 Q198.527 604.239 200.584 606.687 Q202.668 609.109 206.209 609.109 Q209.751 609.109 211.808 606.687 Q213.892 604.239 213.892 600.046 Q213.892 595.828 211.808 593.406 Q209.751 590.984 206.209 590.984 M216.652 574.5 L216.652 579.291 Q214.673 578.354 212.642 577.859 Q210.636 577.364 208.657 577.364 Q203.449 577.364 200.689 580.88 Q197.954 584.395 197.564 591.505 Q199.1 589.239 201.418 588.041 Q203.735 586.817 206.522 586.817 Q212.381 586.817 215.767 590.385 Q219.178 593.927 219.178 600.046 Q219.178 606.036 215.636 609.656 Q212.095 613.275 206.209 613.275 Q199.465 613.275 195.897 608.119 Q192.329 602.937 192.329 593.119 Q192.329 583.901 196.704 578.432 Q201.079 572.937 208.449 572.937 Q210.428 572.937 212.433 573.328 Q214.465 573.718 216.652 574.5 Z" fill="#000000" fill-rule="evenodd" fill-opacity="1" /><path clip-path="url(#clip190)" d="M 0 0 M164.256 253.557 Q160.194 253.557 158.137 257.567 Q156.105 261.551 156.105 269.572 Q156.105 277.567 158.137 281.577 Q160.194 285.562 164.256 285.562 Q168.345 285.562 170.376 281.577 Q172.433 277.567 172.433 269.572 Q172.433 261.551 170.376 257.567 Q168.345 253.557 164.256 253.557 M164.256 249.39 Q170.793 249.39 174.23 254.572 Q177.694 259.728 177.694 269.572 Q177.694 279.39 174.23 284.572 Q170.793 289.728 164.256 289.728 Q157.72 289.728 154.257 284.572 Q150.819 279.39 150.819 269.572 Q150.819 259.728 154.257 254.572 Q157.72 249.39 164.256 249.39 Z" fill="#000000" fill-rule="evenodd" fill-opacity="1" /><path clip-path="url(#clip190)" d="M 0 0 M183.397 282.358 L188.892 282.358 L188.892 288.973 L183.397 288.973 L183.397 282.358 Z" fill="#000000" fill-rule="evenodd" fill-opacity="1" /><path clip-path="url(#clip190)" d="M 0 0 M205.845 270.51 Q202.095 270.51 199.933 272.515 Q197.798 274.52 197.798 278.036 Q197.798 281.551 199.933 283.556 Q202.095 285.562 205.845 285.562 Q209.595 285.562 211.756 283.556 Q213.918 281.525 213.918 278.036 Q213.918 274.52 211.756 272.515 Q209.621 270.51 205.845 270.51 M200.584 268.27 Q197.199 267.437 195.298 265.119 Q193.423 262.801 193.423 259.468 Q193.423 254.807 196.73 252.098 Q200.064 249.39 205.845 249.39 Q211.652 249.39 214.959 252.098 Q218.267 254.807 218.267 259.468 Q218.267 262.801 216.366 265.119 Q214.491 267.437 211.131 268.27 Q214.933 269.155 217.043 271.734 Q219.178 274.312 219.178 278.036 Q219.178 283.687 215.715 286.707 Q212.277 289.728 205.845 289.728 Q199.413 289.728 195.949 286.707 Q192.512 283.687 192.512 278.036 Q192.512 274.312 194.647 271.734 Q196.782 269.155 200.584 268.27 M198.657 259.963 Q198.657 262.984 200.532 264.676 Q202.433 266.369 205.845 266.369 Q209.23 266.369 211.131 264.676 Q213.058 262.984 213.058 259.963 Q213.058 256.942 211.131 255.249 Q209.23 253.557 205.845 253.557 Q202.433 253.557 200.532 255.249 Q198.657 256.942 198.657 259.963 Z" fill="#000000" fill-rule="evenodd" fill-opacity="1" /><path clip-path="url(#clip190)" d="M 0 0 M84.099 982.594 Q71.5628 982.594 61.4542 977.921 Q57.2151 975.928 53.6644 973.138 Q50.1137 970.348 48.5558 968.5 Q46.9978 966.652 46.9978 966.145 Q46.9978 965.421 47.7224 965.384 Q48.0848 965.384 48.9905 966.363 Q61.1644 978.319 84.099 978.283 Q107.106 978.283 118.809 966.652 Q120.077 965.384 120.475 965.384 Q121.2 965.384 121.2 966.145 Q121.2 966.652 119.715 968.428 Q118.229 970.203 114.823 972.957 Q111.418 975.71 107.251 977.703 Q97.1423 982.594 84.099 982.594 Z" fill="#000000" fill-rule="evenodd" fill-opacity="1" /><path clip-path="url(#clip190)" d="M 0 0 M74.244 912.45 Q74.6063 912.523 75.2585 912.668 Q75.8744 912.813 77.8309 913.465 Q79.7874 914.117 81.7801 914.987 Q83.7366 915.82 86.4902 917.45 Q89.2076 919.045 91.6714 921.001 Q92.3235 921.545 92.7221 921.653 Q93.0844 921.726 94.28 921.726 Q101.816 921.726 101.816 919.443 Q101.816 919.334 101.816 919.153 Q101.78 918.936 101.599 918.392 Q101.381 917.813 101.055 917.306 Q100.693 916.798 99.9684 916.219 Q99.2075 915.639 98.1931 915.277 Q97.4684 914.95 97.4684 914.298 Q97.4684 913.429 98.1931 913.429 Q99.4974 913.429 101.49 915.24 Q103.483 917.052 103.483 919.661 Q103.483 922.161 101.852 923.936 Q100.186 925.675 97.2148 926.4 Q103.483 934.226 103.483 942.052 Q103.483 947.559 99.8959 950.82 Q96.2728 954.081 90.9105 954.081 Q85.7656 954.081 80.8743 951.255 Q75.9831 948.392 72.9396 943.755 Q69.8599 939.081 69.8599 934.117 Q69.8599 932.378 70.331 930.711 Q70.7657 929.045 71.8889 927.378 Q73.0121 925.711 74.715 924.479 Q76.4179 923.248 79.099 922.487 Q81.7801 921.726 85.1497 921.726 L89.7511 921.726 Q83.7004 916.943 75.0411 914.443 Q73.7367 914.081 73.5918 913.864 Q73.4831 913.719 73.4831 913.356 Q73.4831 912.994 73.7005 912.777 Q73.8817 912.523 74.0628 912.487 L74.244 912.45 M95.2945 926.69 Q94.0264 926.834 86.9975 926.834 Q85.6569 926.834 84.9323 926.834 Q84.1714 926.834 82.7222 926.907 Q81.2729 926.979 80.3671 927.124 Q79.4613 927.233 78.157 927.487 Q76.8526 927.74 76.0193 928.103 Q75.186 928.465 74.244 929.045 Q73.3019 929.588 72.7585 930.313 Q72.215 931.001 71.8527 932.016 Q71.4904 932.994 71.4904 934.189 Q71.4904 935.675 72.0338 937.233 Q72.5411 938.755 74.1715 940.711 Q75.7657 942.668 78.3019 944.298 Q80.983 946.001 85.9105 947.305 Q90.8018 948.573 93.7366 948.573 Q97.4322 948.573 99.6423 946.871 Q101.816 945.168 101.816 941.907 Q101.816 934.117 95.2945 926.69 Z" fill="#000000" fill-rule="evenodd" fill-opacity="1" /><path clip-path="url(#clip190)" d="M 0 0 M54.2079 853.233 L67.0339 854.718 Q68.1933 854.827 68.5556 855.008 Q68.8817 855.189 68.8817 855.769 Q68.8817 856.204 68.6281 856.457 Q68.3382 856.675 68.0121 856.675 Q67.831 856.675 67.36 856.638 Q66.889 856.602 66.6716 856.602 Q64.4252 856.276 62.7223 856.276 Q59.5702 856.276 57.8673 857.218 Q56.1282 858.16 55.3311 860.588 Q54.4977 863.015 54.4977 867.58 L54.4977 878.015 Q54.4977 880.406 54.9325 880.986 Q55.3673 881.529 57.3963 882.037 L75.2585 886.493 L75.2585 879.5 Q75.2585 876.892 74.9324 875.334 Q74.6063 873.74 73.7005 872.689 Q72.7585 871.602 71.4904 871.022 Q70.2223 870.406 67.9397 869.79 Q67.1788 869.609 66.889 869.428 Q66.5991 869.211 66.5991 868.74 Q66.5991 868.377 66.8527 868.124 Q67.0701 867.87 67.3962 867.87 L84.7511 872.109 Q85.6207 872.327 85.9468 872.544 Q86.2366 872.761 86.2366 873.196 Q86.2366 873.667 85.983 873.921 Q85.7294 874.174 85.4395 874.174 Q85.1497 874.174 84.6062 873.957 Q82.2511 873.414 80.983 873.414 Q80.2584 873.414 79.8961 873.486 Q79.5338 873.522 79.0265 873.848 Q78.4831 874.138 78.2294 874.79 Q77.9758 875.443 77.7947 876.674 Q77.5773 877.906 77.5773 879.754 L77.5773 887.073 L97.8307 892.145 Q99.1713 892.508 99.5336 892.508 Q99.9322 892.508 100.077 892.326 Q100.186 892.109 100.258 891.529 Q100.367 890.877 100.367 889.899 L100.367 879.066 Q100.367 876.674 100.15 874.754 Q99.9322 872.834 99.3887 871.24 Q98.8452 869.609 98.2293 868.377 Q97.6133 867.145 96.4902 865.986 Q95.3308 864.827 94.3163 864.03 Q93.2656 863.196 91.4902 862.218 Q89.7149 861.24 88.2656 860.551 Q86.7801 859.863 84.3888 858.812 Q83.5193 858.522 83.5193 857.834 Q83.5193 857.435 83.7366 857.218 Q83.9178 857.001 84.099 856.964 L84.3163 856.964 Q85.0048 857.182 85.3671 857.327 L101.381 864.138 Q102.287 864.537 102.468 864.863 Q102.65 865.189 102.65 866.457 L102.65 904.971 Q102.65 905.841 102.613 906.203 Q102.577 906.529 102.396 906.783 Q102.179 907.036 101.744 907.036 Q101.055 907.036 100.765 906.747 Q100.439 906.457 100.403 906.131 Q100.367 905.805 100.367 904.971 Q100.367 903.16 100.258 902.073 Q100.15 900.986 100.005 900.297 Q99.8235 899.573 99.3162 899.21 Q98.809 898.812 98.3742 898.631 Q97.9032 898.45 96.8525 898.196 L57.6137 888.413 Q56.2731 888.051 55.8383 888.051 Q55.3673 888.051 55.0775 888.377 Q54.7876 888.667 54.6789 889.464 Q54.534 890.261 54.534 890.913 Q54.4977 891.529 54.4977 892.87 Q54.4977 893.739 54.4615 894.102 Q54.4253 894.428 54.2441 894.681 Q54.063 894.935 53.6644 894.935 Q52.6499 894.935 52.4325 894.5 Q52.1789 894.029 52.1789 892.725 L52.1789 855.262 Q52.1789 853.776 52.505 853.45 Q52.7949 853.088 54.2079 853.233 Z" fill="#000000" fill-rule="evenodd" fill-opacity="1" /><path clip-path="url(#clip190)" d="M 0 0 M120.475 852.774 Q120.113 852.774 119.207 851.832 Q107.034 839.876 84.099 839.876 Q61.0919 839.876 49.4616 851.361 Q48.121 852.774 47.7224 852.774 Q46.9978 852.774 46.9978 852.049 Q46.9978 851.542 48.4833 849.767 Q49.9688 847.955 53.3746 845.238 Q56.7803 842.484 60.947 840.455 Q71.0556 835.564 84.099 835.564 Q96.6351 835.564 106.744 840.238 Q110.983 842.231 114.533 845.021 Q118.084 847.81 119.642 849.658 Q121.2 851.506 121.2 852.049 Q121.2 852.774 120.475 852.774 Z" fill="#000000" fill-rule="evenodd" fill-opacity="1" /><path clip-path="url(#clip190)" d="M 0 0 M16.9467 827.803 L15.3235 827.803 Q15.3235 821.564 12.0011 818.343 Q12.0011 817.456 12.204 817.303 Q12.4069 817.151 13.3453 817.151 L42.4863 817.151 Q44.0334 817.151 44.5153 816.39 Q44.9972 815.629 44.9972 812.307 L44.9972 810.659 L46.595 810.659 Q46.4428 812.485 46.4428 819.079 Q46.4428 825.673 46.595 827.474 L44.9972 827.474 L44.9972 825.825 Q44.9972 822.553 44.5407 821.767 Q44.0588 820.981 42.4863 820.981 L15.5771 820.981 Q16.9467 823.695 16.9467 827.803 Z" fill="#000000" fill-rule="evenodd" fill-opacity="1" /><path clip-path="url(#clip190)" d="M 0 0 M58.8449 802.062 Q58.5913 802.062 58.0333 801.859 L9.03371 783.522 Q8.98299 783.522 8.704 783.395 Q8.42502 783.269 8.24749 783.192 Q8.04459 783.116 7.89242 782.964 Q7.74024 782.787 7.74024 782.584 Q7.74024 782.077 8.3743 782.077 Q8.42502 782.077 9.03371 782.229 L58.084 800.616 Q58.9717 800.921 59.2253 801.124 Q59.479 801.301 59.479 801.605 Q59.479 802.062 58.8449 802.062 Z" fill="#000000" fill-rule="evenodd" fill-opacity="1" /><path clip-path="url(#clip190)" d="M 0 0 M46.595 776.32 Q45.6566 776.32 45.3776 776.244 Q45.0986 776.143 44.6675 775.737 L33.5589 765.77 Q27.4212 760.317 22.0698 760.317 Q18.5952 760.317 16.1097 762.143 Q13.6243 763.944 13.6243 767.266 Q13.6243 769.549 15.0192 771.476 Q16.4141 773.404 18.8996 774.292 Q18.8489 774.139 18.8489 773.607 Q18.8489 772.313 19.6604 771.603 Q20.472 770.868 21.5626 770.868 Q22.9575 770.868 23.6423 771.781 Q24.3017 772.668 24.3017 773.556 Q24.3017 773.911 24.2256 774.393 Q24.1495 774.849 23.4394 775.585 Q22.7039 776.32 21.4104 776.32 Q17.7836 776.32 14.8924 773.581 Q12.0011 770.817 12.0011 766.607 Q12.0011 761.839 14.8416 758.719 Q17.6568 755.574 22.0698 755.574 Q23.6169 755.574 25.0372 756.056 Q26.4321 756.513 27.5227 757.147 Q28.6133 757.755 30.3633 759.429 Q32.1132 761.103 33.356 762.447 Q34.5987 763.792 37.2364 766.81 L42.5878 772.313 L42.5878 762.955 Q42.5878 758.389 42.182 758.034 Q41.4465 757.527 37.5661 756.893 L37.5661 755.574 L46.595 757.045 L46.595 776.32 Z" fill="#000000" fill-rule="evenodd" fill-opacity="1" /><path clip-path="url(#clip190)" d="M 0 0 M678.574 15.1236 L678.574 33.3852 L686.842 33.3852 Q691.432 33.3852 693.938 31.0089 Q696.445 28.6327 696.445 24.2382 Q696.445 19.8762 693.938 17.4999 Q691.432 15.1236 686.842 15.1236 L678.574 15.1236 M671.999 9.72 L686.842 9.72 Q695.013 9.72 699.179 13.4309 Q703.379 17.1093 703.379 24.2382 Q703.379 31.4321 699.179 35.1105 Q695.013 38.7889 686.842 38.7889 L678.574 38.7889 L678.574 58.32 L671.999 58.32 L671.999 9.72 Z" fill="#000000" fill-rule="evenodd" fill-opacity="1" /><path clip-path="url(#clip190)" d="M 0 0 M731.634 28.0467 L773.365 28.0467 L773.365 33.5154 L731.634 33.5154 L731.634 28.0467 M731.634 41.3279 L773.365 41.3279 L773.365 46.8617 L731.634 46.8617 L731.634 41.3279 Z" fill="#000000" fill-rule="evenodd" fill-opacity="1" /><path clip-path="url(#clip190)" d="M 0 0 M815.748 14.0494 Q810.67 14.0494 808.098 19.0624 Q805.559 24.0428 805.559 34.0688 Q805.559 44.0623 808.098 49.0753 Q810.67 54.0557 815.748 54.0557 Q820.858 54.0557 823.397 49.0753 Q825.969 44.0623 825.969 34.0688 Q825.969 24.0428 823.397 19.0624 Q820.858 14.0494 815.748 14.0494 M815.748 8.8411 Q823.918 8.8411 828.215 15.3189 Q832.545 21.7642 832.545 34.0688 Q832.545 46.3409 828.215 52.8187 Q823.918 59.264 815.748 59.264 Q807.577 59.264 803.248 52.8187 Q798.951 46.3409 798.951 34.0688 Q798.951 21.7642 803.248 15.3189 Q807.577 8.8411 815.748 8.8411 Z" fill="#000000" fill-rule="evenodd" fill-opacity="1" /><path clip-path="url(#clip190)" d="M 0 0 M839.673 50.0518 L846.542 50.0518 L846.542 58.32 L839.673 58.32 L839.673 50.0518 Z" fill="#000000" fill-rule="evenodd" fill-opacity="1" /><path clip-path="url(#clip190)" d="M 0 0 M867.733 14.0494 Q862.655 14.0494 860.083 19.0624 Q857.544 24.0428 857.544 34.0688 Q857.544 44.0623 860.083 49.0753 Q862.655 54.0557 867.733 54.0557 Q872.844 54.0557 875.383 49.0753 Q877.954 44.0623 877.954 34.0688 Q877.954 24.0428 875.383 19.0624 Q872.844 14.0494 867.733 14.0494 M867.733 8.8411 Q875.904 8.8411 880.201 15.3189 Q884.53 21.7642 884.53 34.0688 Q884.53 46.3409 880.201 52.8187 Q875.904 59.264 867.733 59.264 Q859.563 59.264 855.233 52.8187 Q850.936 46.3409 850.936 34.0688 Q850.936 21.7642 855.233 15.3189 Q859.563 8.8411 867.733 8.8411 Z" fill="#000000" fill-rule="evenodd" fill-opacity="1" /><polyline clip-path="url(#clip193)" style="stroke:#009af9; stroke-width:4.5; stroke-opacity:1; fill:none" points="
  1252.29,172.472 1247.32,176.063 1242.41,179.625 
  "/>
<polyline clip-path="url(#clip193)" style="stroke:#009af9; stroke-width:4.5; stroke-opacity:1; fill:none" points="
  1090.36,294.786 1086.92,413.45 1083.51,469.497 1080.13,504.358 1076.78,534.319 1073.45,560.744 1070.16,579.521 1066.89,602.085 1063.65,620.973 1060.44,638.798 
  1057.25,654.388 1054.09,670.55 1050.95,684.922 1047.84,698.787 1044.76,712.165 1041.7,724.37 1038.66,736.917 1035.65,749.045 1032.66,760.78 1029.7,772.147 
  1026.76,783.171 1023.85,793.453 1020.95,803.884 1018.08,813.3 1015.24,822.541 1012.41,831.933 1009.61,840.816 1006.82,849.82 1004.06,858.634 1001.32,866.76 
  998.605,875.246 995.907,883.336 993.23,891.721 990.573,899.107 987.935,907.191 985.318,914.176 982.719,918.544 980.141,930.168 977.581,937.67 975.04,945.04 
  972.518,952.434 970.015,959.839 967.529,967.245 965.062,974.642 962.613,982.274 960.181,989.379 957.767,996.591 955.37,1003.67 952.99,1011.05 950.627,1017.86 
  948.281,1025.16 945.952,1032.12 943.638,1039.23 941.342,1046.3 939.061,1053.41 936.796,1060.46 934.547,1067.55 932.313,1074.42 930.095,1081.17 927.892,1088.1 
  925.704,1094.84 923.531,1101.46 921.373,1108.12 919.229,1114.74 917.1,1121.25 914.986,1127.74 912.885,1134.25 910.799,1140.79 908.726,1147.23 906.667,1153.48 
  904.622,1159.48 902.591,1165.53 900.572,1171.41 898.567,1177.07 896.575,1182.89 894.596,1188.5 892.63,1194.12 890.677,1199.66 888.736,1205.15 886.808,1210.42 
  884.892,1215.71 882.988,1220.74 881.096,1225.66 879.217,1230.56 877.349,1235.09 875.493,1239.71 873.649,1244.1 871.816,1248.45 869.995,1252.8 868.185,1256.94 
  866.387,1261 864.599,1265.07 862.823,1268.86 861.057,1272.66 859.303,1276.35 857.559,1279.76 855.825,1283.16 854.103,1286.32 852.39,1289.52 850.688,1292.53 
  848.997,1295.61 847.315,1298.26 845.644,1299.84 843.982,1304.63 842.33,1307.29 840.689,1309.74 839.056,1311.98 837.434,1313.24 835.821,1315.7 834.217,1318.11 
  832.623,1320.4 831.039,1322.64 829.463,1324.79 827.896,1327.02 826.339,1328.96 824.791,1331.05 823.251,1332.98 821.72,1334.75 820.198,1336.63 818.685,1338.38 
  817.18,1339.89 815.684,1341.68 814.197,1343.26 812.717,1344.77 811.246,1346.3 809.783,1347.76 808.329,1349.09 806.882,1350.42 805.444,1351.62 804.013,1352.79 
  802.591,1354.11 801.176,1355.23 799.769,1356.3 798.37,1357.42 796.978,1358.57 795.594,1359.6 794.217,1360.54 792.848,1361.33 791.487,1361.92 790.132,1364.4 
  788.785,1365.45 787.446,1366.31 786.113,1367.36 784.787,1368.33 783.469,1368.91 782.157,1370.5 780.853,1371.11 779.555,1372.16 778.264,1372.8 776.98,1373.88 
  775.703,1374.64 774.432,1375.43 773.168,1376.11 771.911,1377.18 770.66,1377.93 769.415,1378.72 768.177,1379.39 766.945,1380.26 765.72,1380.8 764.501,1381.59 
  763.288,1382.37 762.081,1383.03 760.88,1383.89 759.686,1384.51 758.497,1385.08 757.315,1385.82 756.138,1386.35 754.967,1387.05 753.803,1387.66 752.644,1388.31 
  751.49,1388.95 750.343,1389.64 749.201,1390.25 748.065,1390.81 746.934,1391.41 745.809,1392.09 744.689,1392.58 743.575,1393.06 742.467,1393.74 741.363,1394.33 
  740.266,1394.77 739.173,1395.36 738.086,1395.96 737.004,1396.51 735.927,1397.06 734.855,1397.65 733.789,1398.2 732.727,1398.63 731.671,1399.1 730.619,1399.68 
  729.573,1400.19 728.531,1400.65 727.495,1401.15 726.463,1401.5 725.436,1402 724.414,1402.46 723.397,1403 722.385,1403.53 721.377,1403.95 720.374,1404.41 
  719.375,1404.78 718.381,1405.32 717.392,1405.69 716.407,1406.14 715.427,1406.59 714.451,1407.08 713.48,1407.42 712.513,1407.71 711.551,1408.19 710.593,1408.56 
  709.639,1408.93 708.689,1409.18 707.744,1409.63 706.803,1410.07 705.867,1410.47 704.934,1410.87 704.006,1411.16 703.082,1411.56 702.161,1411.92 701.245,1413.12 
  700.333,1413.56 699.425,1413.96 698.522,1414.27 697.622,1414.82 696.726,1415.18 695.833,1415.72 694.945,1415.88 694.061,1416.28 693.18,1416.7 692.304,1417.17 
  691.431,1417.67 690.562,1417.95 689.696,1418.14 688.835,1418.64 687.977,1419.1 687.122,1419.37 686.272,1419.72 685.425,1420.33 684.581,1420.68 683.742,1420.94 
  682.905,1421.21 682.073,1421.63 681.243,1421.93 680.418,1422.27 679.596,1422.68 678.777,1423.02 677.961,1423.44 677.149,1423.62 676.341,1424.19 675.536,1424.45 
  674.734,1424.67 673.935,1424.89 673.14,1425.26 672.348,1425.78 671.559,1426.11 670.774,1426.48 669.992,1426.7 669.212,1427.03 668.437,1427.36 667.664,1427.57 
  666.894,1428.02 666.128,1428.27 665.364,1428.56 664.604,1428.96 663.847,1429.25 663.093,1429.61 662.342,1429.82 661.594,1430.14 660.848,1430.54 660.106,1430.64 
  659.367,1431 658.631,1431.39 657.898,1431.75 657.167,1432.03 656.44,1432.28 655.715,1432.44 654.993,1432.76 654.274,1433.12 653.558,1433.28 652.845,1433.56 
  652.134,1433.95 651.426,1434.16 650.721,1434.55 650.019,1434.75 649.319,1435.02 648.622,1435.22 647.928,1435.61 647.237,1435.88 646.548,1436.08 645.862,1436.39 
  645.178,1436.7 644.497,1436.86 643.819,1437.13 643.143,1437.44 642.47,1437.83 641.799,1438.06 641.131,1438.29 640.465,1438.45 639.802,1438.56 639.142,1438.94 
  638.484,1439.14 637.828,1439.52 637.175,1439.78 636.524,1440.12 635.876,1440.28 635.23,1440.47 634.586,1440.81 633.945,1440.96 633.307,1441.26 632.67,1441.45 
  632.036,1441.67 631.404,1441.93 630.775,1441.97 630.148,1442.23 629.523,1442.49 628.901,1442.75 628.281,1443.05 627.663,1443.23 627.047,1443.6 626.434,1443.79 
  625.822,1443.97 625.213,1444.23 624.606,1444.52 624.002,1444.78 623.399,1445 622.799,1445.29 622.201,1445.51 621.605,1445.76 621.011,1445.94 620.419,1446.2 
  619.83,1446.34 619.242,1446.7 618.657,1446.81 618.073,1446.99 617.492,1447.13 616.912,1447.41 616.335,1447.55 615.76,1447.73 615.187,1447.91 614.616,1448.08 
  614.046,1448.22 613.479,1448.47 612.914,1448.68 612.351,1448.89 611.789,1449.1 611.23,1449.2 610.673,1449.45 610.117,1449.47 609.563,1449.76 609.012,1449.86 
  608.462,1450.17 607.914,1450.24 607.368,1450.63 606.824,1450.76 606.282,1451.08 605.741,1451.4 605.202,1451.6 604.666,1451.77 604.131,1452.09 603.598,1452.15 
  603.066,1452.42 602.537,1452.52 602.009,1452.5 601.483,1452.85 600.959,1453.02 600.436,1453.22 599.915,1453.46 599.396,1453.63 598.879,1453.72 598.364,1453.92 
  597.85,1454.16 597.338,1454.36 596.827,1454.45 596.318,1454.61 595.811,1454.7 595.306,1454.9 594.802,1455.25 594.3,1455.41 593.8,1455.61 593.301,1455.85 
  592.804,1455.97 592.308,1455.99 591.814,1456.22 591.322,1456.38 590.831,1456.54 590.342,1456.74 589.854,1456.75 589.368,1457.13 588.884,1457.25 588.401,1457.41 
  587.92,1457.53 587.44,1457.76 586.962,1457.92 586.485,1457.9 586.01,1458.16 585.536,1458.25 585.064,1458.4 584.594,1458.67 584.124,1458.83 583.657,1459.02 
  583.191,1458.96 582.726,1459.18 582.263,1459.27 581.801,1459.53 581.341,1459.79 580.882,1459.8 580.424,1460.18 579.968,1460.18 579.514,1460.3 579.06,1460.53 
  578.609,1460.5 578.158,1460.8 577.709,1460.98 577.262,1461.14 576.816,1461.18 576.371,1461.4 575.927,1461.45 575.485,1461.74 575.045,1461.86 574.605,1462.01 
  574.167,1462.12 573.731,1462.27 573.295,1462.39 572.861,1462.57 572.429,1462.72 571.997,1462.76 571.567,1463.02 571.139,1463.17 570.711,1463.35 570.285,1463.46 
  569.86,1463.58 569.437,1463.69 569.014,1463.76 568.593,1464.02 568.173,1464.24 567.755,1464.38 567.338,1464.46 566.922,1464.64 566.507,1464.75 566.093,1464.89 
  565.681,1465.11 565.27,1465.26 564.86,1465.4 564.452,1465.51 564.044,1465.58 563.638,1465.76 563.233,1465.98 562.829,1465.84 562.426,1466.05 562.025,1466.12 
  561.625,1466.34 561.226,1466.48 560.828,1466.62 560.431,1466.73 560.035,1466.84 559.641,1467.05 559.247,1467.16 558.855,1467.15 558.464,1467.33 558.074,1467.54 
  557.686,1467.72 557.298,1467.68 556.911,1467.75 556.526,1467.93 556.142,1468.14 555.758,1468.21 555.376,1468.38 554.995,1468.67 554.615,1468.63 554.236,1468.69 
  553.859,1468.87 553.482,1468.97 553.106,1469.08 552.732,1469.18 552.358,1469.32 551.986,1469.45 551.614,1469.52 551.244,1469.62 550.875,1469.72 550.506,1469.97 
  550.139,1470.14 549.773,1470.13 549.408,1470.31 549.044,1470.51 548.68,1470.51 548.318,1470.64 547.957,1470.6 547.597,1470.77 547.238,1470.91 546.88,1471.04 
  546.523,1471.14 546.166,1471.31 545.811,1471.48 545.457,1471.55 545.104,1471.61 544.752,1471.67 544.4,1471.74 544.05,1471.87 543.701,1472.04 543.352,1472.07 
  543.005,1472.31 542.659,1472.44 542.313,1472.54 541.968,1472.74 541.625,1472.8 541.282,1472.83 540.94,1472.96 540.599,1472.99 540.259,1473.08 539.92,1473.18 
  539.582,1473.27 539.245,1473.4 538.909,1473.54 538.573,1473.6 538.239,1473.73 537.905,1473.72 537.572,1473.88 537.241,1474.12 536.91,1474.18 536.58,1474.2 
  536.25,1474.33 535.922,1474.36 535.595,1474.59 535.268,1474.72 534.942,1474.71 534.618,1474.84 534.294,1474.79 533.97,1474.85 533.648,1475.05 533.327,1475.35 
  533.006,1475.48 532.686,1475.47 532.367,1475.7 532.049,1475.69 531.732,1475.78 531.416,1475.73 531.1,1475.96 530.785,1476.05 530.471,1476.15 530.158,1476.13 
  529.846,1476.22 529.534,1476.45 529.224,1476.51 528.914,1476.6 528.604,1476.48 528.296,1476.68 527.989,1476.98 527.682,1476.89 527.376,1476.85 527.071,1476.94 
  526.766,1476.89 526.463,1477.08 526.16,1477.14 525.858,1477.33 525.556,1477.42 525.256,1477.61 524.956,1477.67 524.657,1477.65 524.359,1477.74 524.061,1477.97 
  523.765,1477.92 523.469,1478.18 523.173,1478.1 522.879,1478.22 522.585,1478.24 522.292,1478.5 522,1478.59 521.708,1478.74 521.417,1478.62 521.127,1478.75 
  520.838,1478.73 520.549,1478.89 520.261,1478.94 519.974,1479.06 519.687,1479.18 519.402,1479.41 519.116,1479.42 518.832,1479.44 518.548,1479.49 518.265,1479.55 
  517.983,1479.77 517.701,1479.58 517.42,1479.8 517.14,1479.82 516.861,1479.94 516.582,1479.99 516.304,1480.15 516.026,1480.2 515.749,1480.38 515.473,1480.37 
  515.198,1480.42 514.923,1480.3 514.649,1480.59 514.375,1480.6 514.102,1480.72 513.83,1480.91 513.559,1480.82 513.288,1480.8 513.018,1480.99 512.748,1480.97 
  512.479,1481.16 512.211,1481.14 511.944,1481.32 511.677,1481.51 511.41,1481.59 511.145,1481.44 510.88,1481.59 510.615,1481.74 510.351,1481.96 510.088,1481.97 
  509.826,1481.92 509.564,1482.04 509.302,1482.15 509.042,1482.17 508.782,1482.18 508.522,1482.26 508.263,1482.28 508.005,1482.39 507.748,1482.51 507.491,1482.45 
  507.234,1482.8 506.978,1482.72 506.723,1482.87 506.469,1483.01 506.215,1483.03 505.961,1482.94 505.708,1483.29 505.456,1483.14 505.204,1483.25 504.953,1483.36 
  504.703,1483.38 504.453,1483.39 504.204,1483.4 503.955,1483.55 503.707,1483.63 503.459,1483.71 503.212,1483.62 502.966,1483.87 502.72,1484.01 502.474,1484.06 
  502.23,1484.11 501.985,1484.08 501.742,1484.36 501.499,1484.31 501.256,1484.39 501.014,1484.23 500.773,1484.41 500.532,1484.56 500.291,1484.4 500.052,1484.61 
  499.812,1484.69 499.574,1484.7 499.335,1484.88 499.098,1485.06 498.861,1484.94 498.624,1484.95 498.388,1485.16 498.153,1485.3 497.918,1485.38 497.683,1485.32 
  497.449,1485.24 497.216,1485.41 496.983,1485.56 496.751,1485.57 496.519,1485.87 496.288,1485.82 496.057,1485.9 495.826,1486 495.597,1485.98 495.367,1485.99 
  495.139,1485.9 494.91,1485.95 494.683,1486.15 494.455,1486.16 494.229,1486.21 494.002,1486.35 493.777,1486.36 493.552,1486.5 493.327,1486.34 493.103,1486.52 
  492.879,1486.69 492.655,1486.77 492.433,1486.71 492.21,1486.75 491.989,1486.83 491.767,1486.9 491.546,1487.04 491.326,1487.05 491.106,1487 490.887,1487.14 
  490.668,1487.24 490.449,1487.19 490.231,1487.23 490.014,1487.33 489.797,1487.31 489.58,1487.51 489.364,1487.46 489.148,1487.6 488.933,1487.7 488.719,1487.78 
  488.504,1487.85 488.291,1487.89 488.077,1487.87 487.864,1488.07 487.652,1488.08 487.44,1488.18 487.228,1488.16 487.017,1488.2 486.807,1488.34 486.597,1488.34 
  486.387,1488.35 486.178,1488.55 485.969,1488.33 485.76,1488.47 485.552,1488.51 485.345,1488.55 485.138,1488.62 484.931,1488.7 484.725,1488.77 484.519,1488.87 
  484.314,1488.81 484.109,1488.95 483.904,1488.99 483.7,1488.87 483.497,1489.04 483.293,1489.17 483.091,1489.31 482.888,1489.31 482.686,1489.19 482.485,1489.29 
  482.284,1489.43 482.083,1489.44 481.883,1489.44 481.683,1489.55 481.484,1489.55 481.285,1489.62 481.086,1489.66 480.888,1489.67 480.69,1489.67 480.493,1489.84 
  480.296,1489.94 480.099,1489.88 479.903,1489.89 479.707,1490.15 479.512,1490.09 479.317,1490.03 479.122,1490.14 478.928,1490.3 478.734,1490.24 478.541,1490.22 
  478.348,1490.32 478.155,1490.45 477.963,1490.52 477.771,1490.56 477.58,1490.6 477.389,1490.7 477.198,1490.57 477.008,1490.55 476.818,1490.65 476.629,1490.72 
  476.439,1490.79 476.251,1490.89 476.062,1490.99 475.874,1490.99 475.687,1490.93 475.5,1491.06 475.313,1491.07 475.126,1491.17 474.94,1491.14 474.755,1491.27 
  474.569,1491.28 474.384,1491.44 474.2,1491.35 474.015,1491.42 473.831,1491.39 473.648,1491.46 473.465,1491.46 473.282,1491.5 473.1,1491.63 472.917,1491.57 
  472.736,1491.64 472.554,1491.58 472.373,1491.71 472.193,1491.93 472.013,1491.81 471.833,1491.81 471.653,1491.85 471.474,1491.79 471.295,1491.86 471.116,1491.92 
  470.938,1491.93 470.76,1492.43 470.583,1492.47 470.406,1492.38 470.229,1492.44 470.053,1492.42 469.877,1492.39 469.701,1492.42 469.525,1492.46 469.35,1492.46 
  469.176,1492.43 469.001,1492.5 468.827,1492.44 468.653,1492.41 468.48,1492.48 468.307,1492.54 468.134,1492.54 467.962,1492.55 467.79,1492.49 467.618,1492.34 
  467.447,1492.4 467.276,1492.56 467.105,1492.47 466.935,1492.5 466.765,1492.6 466.595,1492.42 466.425,1492.45 466.256,1492.55 466.087,1492.55 465.919,1492.55 
  465.751,1492.4 465.583,1492.37 465.416,1492.44 465.248,1492.41 465.081,1492.32 464.915,1492.51 464.749,1492.63 464.583,1492.51 464.417,1492.36 464.252,1492.46 
  464.087,1492.49 463.922,1492.62 463.758,1492.5 463.594,1492.2 463.43,1492.26 463.267,1492.63 463.103,1493.03 462.941,1493.18 462.778,1492.7 462.616,1492.34 
  462.454,1492.52 462.292,1493.04 462.131,1493.5 461.97,1493.63 461.809,1493.26 461.649,1492.72 461.489,1492.27 461.329,1492.45 461.169,1492.97 461.01,1493.43 
  460.851,1493.76 460.692,1493.7 460.534,1493.31 460.376,1492.92 460.218,1492.56 460.061,1492.32 459.904,1492.3 459.747,1492.42 459.59,1492.42 459.434,1492.6 
  459.278,1493.06 459.122,1493.27 458.966,1493.54 458.811,1493.66 458.656,1493.76 458.502,1493.94 458.347,1494.15 458.193,1494.34 458.039,1494.46 
  "/>
<polyline clip-path="url(#clip193)" style="stroke:#e26f46; stroke-width:4.5; stroke-opacity:1; fill:none" points="
  289.032,1563.72 289.032,1563.72 
  
  
  
  
  
  
  
  
  
  
  
  
  
  
  
  
  
  
  
  
  
  
  
  
  
  
  
  
  
  
  
  
  
  
  
  
  
  
  
  
  
  
  
  
  
  
  
  
  
  
  
  
  
  
  
  
  
  
  
  
  
  
  
  
  
  
  
  
  
  
  
  
  
  
  
  
  
  
  
  
  
  
  
  
  
  
  
  
  
  
  
  "/>
<path clip-path="url(#clip190)" d="
M1609.68 1605.79 L2646.85 1605.79 L2646.85 119.466 L1609.68 119.466  Z
  " fill="#ffffff" fill-rule="evenodd" fill-opacity="1"/>
<polyline clip-path="url(#clip192)" style="stroke:#000000; stroke-width:2.25; stroke-opacity:0.1; fill:none" points="
  1615.99,1605.79 1615.99,119.466 
  "/>
<polyline clip-path="url(#clip192)" style="stroke:#000000; stroke-width:2.25; stroke-opacity:0.1; fill:none" points="
  1797.24,1605.79 1797.24,119.466 
  "/>
<polyline clip-path="url(#clip192)" style="stroke:#000000; stroke-width:2.25; stroke-opacity:0.1; fill:none" points="
  1978.49,1605.79 1978.49,119.466 
  "/>
<polyline clip-path="url(#clip192)" style="stroke:#000000; stroke-width:2.25; stroke-opacity:0.1; fill:none" points="
  2159.75,1605.79 2159.75,119.466 
  "/>
<polyline clip-path="url(#clip192)" style="stroke:#000000; stroke-width:2.25; stroke-opacity:0.1; fill:none" points="
  2341,1605.79 2341,119.466 
  "/>
<polyline clip-path="url(#clip192)" style="stroke:#000000; stroke-width:2.25; stroke-opacity:0.1; fill:none" points="
  2522.25,1605.79 2522.25,119.466 
  "/>
<polyline clip-path="url(#clip190)" style="stroke:#000000; stroke-width:4.5; stroke-opacity:1; fill:none" points="
  1609.68,1605.79 2646.85,1605.79 
  "/>
<polyline clip-path="url(#clip190)" style="stroke:#000000; stroke-width:4.5; stroke-opacity:1; fill:none" points="
  1615.99,1605.79 1615.99,1587.95 
  "/>
<polyline clip-path="url(#clip190)" style="stroke:#000000; stroke-width:4.5; stroke-opacity:1; fill:none" points="
  1797.24,1605.79 1797.24,1587.95 
  "/>
<polyline clip-path="url(#clip190)" style="stroke:#000000; stroke-width:4.5; stroke-opacity:1; fill:none" points="
  1978.49,1605.79 1978.49,1587.95 
  "/>
<polyline clip-path="url(#clip190)" style="stroke:#000000; stroke-width:4.5; stroke-opacity:1; fill:none" points="
  2159.75,1605.79 2159.75,1587.95 
  "/>
<polyline clip-path="url(#clip190)" style="stroke:#000000; stroke-width:4.5; stroke-opacity:1; fill:none" points="
  2341,1605.79 2341,1587.95 
  "/>
<polyline clip-path="url(#clip190)" style="stroke:#000000; stroke-width:4.5; stroke-opacity:1; fill:none" points="
  2522.25,1605.79 2522.25,1587.95 
  "/>
<path clip-path="url(#clip190)" d="M 0 0 M1605.17 1669.62 L1613.76 1669.62 L1613.76 1639.95 L1604.41 1641.83 L1604.41 1637.04 L1613.71 1635.16 L1618.97 1635.16 L1618.97 1669.62 L1627.56 1669.62 L1627.56 1674.04 L1605.17 1674.04 L1605.17 1669.62 Z" fill="#000000" fill-rule="evenodd" fill-opacity="1" /><path clip-path="url(#clip190)" d="M 0 0 M1791.23 1669.62 L1809.59 1669.62 L1809.59 1674.04 L1784.9 1674.04 L1784.9 1669.62 Q1787.89 1666.52 1793.05 1661.31 Q1798.23 1656.07 1799.56 1654.56 Q1802.09 1651.73 1803.08 1649.77 Q1804.09 1647.79 1804.09 1645.89 Q1804.09 1642.79 1801.9 1640.84 Q1799.74 1638.89 1796.25 1638.89 Q1793.78 1638.89 1791.02 1639.75 Q1788.28 1640.61 1785.16 1642.35 L1785.16 1637.04 Q1788.34 1635.76 1791.1 1635.11 Q1793.86 1634.46 1796.15 1634.46 Q1802.19 1634.46 1805.78 1637.48 Q1809.38 1640.5 1809.38 1645.55 Q1809.38 1647.95 1808.47 1650.11 Q1807.58 1652.25 1805.21 1655.16 Q1804.56 1655.92 1801.07 1659.54 Q1797.58 1663.13 1791.23 1669.62 Z" fill="#000000" fill-rule="evenodd" fill-opacity="1" /><path clip-path="url(#clip190)" d="M 0 0 M1983.27 1653.08 Q1987.05 1653.89 1989.16 1656.44 Q1991.29 1658.99 1991.29 1662.74 Q1991.29 1668.5 1987.34 1671.65 Q1983.38 1674.8 1976.09 1674.8 Q1973.64 1674.8 1971.03 1674.3 Q1968.46 1673.83 1965.69 1672.87 L1965.69 1667.79 Q1967.88 1669.07 1970.49 1669.72 Q1973.09 1670.37 1975.93 1670.37 Q1980.88 1670.37 1983.46 1668.42 Q1986.06 1666.47 1986.06 1662.74 Q1986.06 1659.3 1983.64 1657.38 Q1981.24 1655.42 1976.94 1655.42 L1972.41 1655.42 L1972.41 1651.1 L1977.15 1651.1 Q1981.03 1651.1 1983.09 1649.56 Q1985.15 1648 1985.15 1645.09 Q1985.15 1642.09 1983.01 1640.5 Q1980.9 1638.89 1976.94 1638.89 Q1974.78 1638.89 1972.31 1639.36 Q1969.84 1639.82 1966.87 1640.81 L1966.87 1636.13 Q1969.86 1635.29 1972.47 1634.88 Q1975.1 1634.46 1977.41 1634.46 Q1983.4 1634.46 1986.89 1637.19 Q1990.38 1639.9 1990.38 1644.54 Q1990.38 1647.77 1988.53 1650.01 Q1986.68 1652.22 1983.27 1653.08 Z" fill="#000000" fill-rule="evenodd" fill-opacity="1" /><path clip-path="url(#clip190)" d="M 0 0 M2163.13 1639.75 L2149.85 1660.5 L2163.13 1660.5 L2163.13 1639.75 M2161.75 1635.16 L2168.37 1635.16 L2168.37 1660.5 L2173.91 1660.5 L2173.91 1664.88 L2168.37 1664.88 L2168.37 1674.04 L2163.13 1674.04 L2163.13 1664.88 L2145.58 1664.88 L2145.58 1659.8 L2161.75 1635.16 Z" fill="#000000" fill-rule="evenodd" fill-opacity="1" /><path clip-path="url(#clip190)" d="M 0 0 M2330.06 1635.16 L2350.71 1635.16 L2350.71 1639.59 L2334.88 1639.59 L2334.88 1649.12 Q2336.02 1648.73 2337.17 1648.55 Q2338.32 1648.34 2339.46 1648.34 Q2345.97 1648.34 2349.77 1651.91 Q2353.58 1655.48 2353.58 1661.57 Q2353.58 1667.85 2349.67 1671.34 Q2345.76 1674.8 2338.66 1674.8 Q2336.21 1674.8 2333.66 1674.38 Q2331.13 1673.97 2328.42 1673.13 L2328.42 1667.85 Q2330.76 1669.12 2333.26 1669.75 Q2335.76 1670.37 2338.55 1670.37 Q2343.06 1670.37 2345.69 1668 Q2348.32 1665.63 2348.32 1661.57 Q2348.32 1657.51 2345.69 1655.14 Q2343.06 1652.77 2338.55 1652.77 Q2336.44 1652.77 2334.33 1653.24 Q2332.25 1653.7 2330.06 1654.69 L2330.06 1635.16 Z" fill="#000000" fill-rule="evenodd" fill-opacity="1" /><path clip-path="url(#clip190)" d="M 0 0 M2522.71 1652.51 Q2519.17 1652.51 2517.08 1654.93 Q2515.02 1657.35 2515.02 1661.57 Q2515.02 1665.76 2517.08 1668.21 Q2519.17 1670.63 2522.71 1670.63 Q2526.25 1670.63 2528.31 1668.21 Q2530.39 1665.76 2530.39 1661.57 Q2530.39 1657.35 2528.31 1654.93 Q2526.25 1652.51 2522.71 1652.51 M2533.15 1636.02 L2533.15 1640.81 Q2531.17 1639.88 2529.14 1639.38 Q2527.13 1638.89 2525.15 1638.89 Q2519.95 1638.89 2517.19 1642.4 Q2514.45 1645.92 2514.06 1653.03 Q2515.6 1650.76 2517.92 1649.56 Q2520.23 1648.34 2523.02 1648.34 Q2528.88 1648.34 2532.26 1651.91 Q2535.68 1655.45 2535.68 1661.57 Q2535.68 1667.56 2532.13 1671.18 Q2528.59 1674.8 2522.71 1674.8 Q2515.96 1674.8 2512.39 1669.64 Q2508.83 1664.46 2508.83 1654.64 Q2508.83 1645.42 2513.2 1639.95 Q2517.58 1634.46 2524.95 1634.46 Q2526.93 1634.46 2528.93 1634.85 Q2530.96 1635.24 2533.15 1636.02 Z" fill="#000000" fill-rule="evenodd" fill-opacity="1" /><path clip-path="url(#clip190)" d="M 0 0 M2087.87 1703.7 L2086.39 1716.52 Q2086.28 1717.68 2086.1 1718.04 Q2085.92 1718.37 2085.34 1718.37 Q2084.9 1718.37 2084.65 1718.12 Q2084.43 1717.83 2084.43 1717.5 Q2084.43 1717.32 2084.47 1716.85 Q2084.5 1716.38 2084.5 1716.16 Q2084.83 1713.91 2084.83 1712.21 Q2084.83 1709.06 2083.89 1707.36 Q2082.94 1705.62 2080.52 1704.82 Q2078.09 1703.99 2073.52 1703.99 L2063.09 1703.99 Q2060.7 1703.99 2060.12 1704.42 Q2059.58 1704.86 2059.07 1706.89 L2054.61 1724.75 L2061.6 1724.75 Q2064.21 1724.75 2065.77 1724.42 Q2067.37 1724.1 2068.42 1723.19 Q2069.5 1722.25 2070.08 1720.98 Q2070.7 1719.71 2071.31 1717.43 Q2071.5 1716.67 2071.68 1716.38 Q2071.89 1716.09 2072.36 1716.09 Q2072.73 1716.09 2072.98 1716.34 Q2073.23 1716.56 2073.23 1716.89 L2069 1734.24 Q2068.78 1735.11 2068.56 1735.44 Q2068.34 1735.73 2067.91 1735.73 Q2067.44 1735.73 2067.18 1735.47 Q2066.93 1735.22 2066.93 1734.93 Q2066.93 1734.64 2067.15 1734.1 Q2067.69 1731.74 2067.69 1730.47 Q2067.69 1729.75 2067.62 1729.39 Q2067.58 1729.02 2067.26 1728.52 Q2066.97 1727.97 2066.31 1727.72 Q2065.66 1727.46 2064.43 1727.28 Q2063.2 1727.07 2061.35 1727.07 L2054.03 1727.07 L2048.96 1747.32 Q2048.6 1748.66 2048.6 1749.02 Q2048.6 1749.42 2048.78 1749.57 Q2049 1749.67 2049.58 1749.75 Q2050.23 1749.86 2051.21 1749.86 L2062.04 1749.86 Q2064.43 1749.86 2066.35 1749.64 Q2068.27 1749.42 2069.87 1748.88 Q2071.5 1748.33 2072.73 1747.72 Q2073.96 1747.1 2075.12 1745.98 Q2076.28 1744.82 2077.08 1743.81 Q2077.91 1742.75 2078.89 1740.98 Q2079.86 1739.2 2080.55 1737.75 Q2081.24 1736.27 2082.29 1733.88 Q2082.58 1733.01 2083.27 1733.01 Q2083.67 1733.01 2083.89 1733.23 Q2084.1 1733.41 2084.14 1733.59 L2084.14 1733.81 Q2083.92 1734.49 2083.78 1734.86 L2076.97 1750.87 Q2076.57 1751.78 2076.24 1751.96 Q2075.92 1752.14 2074.65 1752.14 L2036.13 1752.14 Q2035.26 1752.14 2034.9 1752.1 Q2034.58 1752.07 2034.32 1751.88 Q2034.07 1751.67 2034.07 1751.23 Q2034.07 1750.54 2034.36 1750.25 Q2034.65 1749.93 2034.97 1749.89 Q2035.3 1749.86 2036.13 1749.86 Q2037.94 1749.86 2039.03 1749.75 Q2040.12 1749.64 2040.81 1749.49 Q2041.53 1749.31 2041.89 1748.81 Q2042.29 1748.3 2042.47 1747.86 Q2042.66 1747.39 2042.91 1746.34 L2052.69 1707.1 Q2053.05 1705.76 2053.05 1705.33 Q2053.05 1704.86 2052.73 1704.57 Q2052.44 1704.28 2051.64 1704.17 Q2050.84 1704.02 2050.19 1704.02 Q2049.58 1703.99 2048.23 1703.99 Q2047.37 1703.99 2047 1703.95 Q2046.68 1703.91 2046.42 1703.73 Q2046.17 1703.55 2046.17 1703.15 Q2046.17 1702.14 2046.6 1701.92 Q2047.08 1701.67 2048.38 1701.67 L2085.84 1701.67 Q2087.33 1701.67 2087.65 1701.99 Q2088.02 1702.28 2087.87 1703.7 Z" fill="#000000" fill-rule="evenodd" fill-opacity="1" /><path clip-path="url(#clip190)" d="M 0 0 M2088.33 1733.59 Q2088.33 1721.05 2093 1710.94 Q2095 1706.7 2097.79 1703.15 Q2100.58 1699.6 2102.42 1698.04 Q2104.27 1696.49 2104.78 1696.49 Q2105.5 1696.49 2105.54 1697.21 Q2105.54 1697.57 2104.56 1698.48 Q2092.61 1710.65 2092.64 1733.59 Q2092.64 1756.6 2104.27 1768.3 Q2105.54 1769.57 2105.54 1769.96 Q2105.54 1770.69 2104.78 1770.69 Q2104.27 1770.69 2102.5 1769.2 Q2100.72 1767.72 2097.97 1764.31 Q2095.21 1760.91 2093.22 1756.74 Q2088.33 1746.63 2088.33 1733.59 Z" fill="#000000" fill-rule="evenodd" fill-opacity="1" /><path clip-path="url(#clip190)" d="M 0 0 M2145.07 1743.55 Q2145.36 1743.88 2145.36 1744.2 Q2145.36 1744.53 2144.63 1745.47 Q2143.95 1746.41 2142.46 1747.68 Q2140.97 1748.95 2139.05 1750.15 Q2137.13 1751.34 2134.31 1752.14 Q2131.48 1752.97 2128.51 1752.97 Q2123.18 1752.97 2120 1749.17 Q2116.84 1745.36 2116.84 1739.53 Q2116.84 1735.8 2118.08 1732.5 Q2119.31 1729.17 2121.3 1726.81 Q2123.33 1724.46 2125.87 1722.75 Q2128.44 1721.02 2131.12 1720.18 Q2133.8 1719.35 2136.3 1719.35 Q2139.96 1719.35 2142.1 1721.2 Q2144.24 1723.04 2144.24 1725.65 Q2144.24 1726.27 2144.05 1727.03 Q2143.91 1727.79 2143.4 1728.99 Q2142.93 1730.18 2141.7 1731.38 Q2140.47 1732.54 2138.66 1733.3 Q2134.63 1735 2127.32 1735 L2123.37 1735 Q2122.21 1739.67 2122.21 1742.72 Q2122.21 1743.91 2122.42 1745.15 Q2122.64 1746.34 2123.22 1747.86 Q2123.84 1749.38 2125.21 1750.36 Q2126.63 1751.31 2128.66 1751.31 Q2129.31 1751.31 2130 1751.27 Q2130.72 1751.23 2132.53 1750.83 Q2134.38 1750.44 2136.01 1749.75 Q2137.64 1749.06 2139.71 1747.57 Q2141.81 1746.05 2143.47 1743.99 Q2144.05 1743.23 2144.45 1743.23 Q2144.78 1743.23 2145.07 1743.55 M2141.77 1725.65 Q2141.77 1723.66 2140.29 1722.32 Q2138.84 1720.98 2136.3 1720.98 Q2135.5 1720.98 2134.53 1721.16 Q2133.55 1721.34 2131.92 1722.1 Q2130.32 1722.86 2128.91 1724.13 Q2127.5 1725.36 2126.08 1727.79 Q2124.67 1730.18 2123.84 1733.37 L2126.88 1733.37 Q2127.93 1733.37 2128.69 1733.37 Q2129.45 1733.33 2131.12 1733.19 Q2132.82 1733.04 2134.05 1732.79 Q2135.29 1732.5 2136.84 1731.92 Q2138.4 1731.34 2139.38 1730.58 Q2140.39 1729.78 2141.08 1728.52 Q2141.77 1727.25 2141.77 1725.65 Z" fill="#000000" fill-rule="evenodd" fill-opacity="1" /><path clip-path="url(#clip190)" d="M 0 0 M2204 1702.36 Q2203.93 1703.7 2203.02 1703.77 Q2201.65 1703.84 2200.81 1704.02 Q2199.98 1704.17 2198.68 1704.71 Q2197.37 1705.25 2196.1 1706.56 Q2194.84 1707.86 2193.53 1709.93 L2166.83 1752.43 Q2166.36 1753.23 2165.96 1753.48 Q2165.6 1753.77 2164.76 1753.77 Q2164 1753.77 2163.71 1753.44 Q2163.42 1753.15 2163.28 1752.07 L2157.41 1706.27 Q2157.3 1705.44 2157.19 1705.07 Q2157.08 1704.71 2156.65 1704.35 Q2156.25 1703.99 2155.38 1703.88 Q2154.51 1703.77 2152.95 1703.77 Q2152.23 1703.77 2151.9 1703.73 Q2151.61 1703.7 2151.36 1703.52 Q2151.1 1703.3 2151.1 1702.86 Q2151.1 1702.21 2151.36 1701.89 Q2151.65 1701.52 2151.86 1701.49 Q2152.12 1701.45 2152.52 1701.45 Q2153.13 1701.45 2154.47 1701.52 Q2155.81 1701.6 2156.5 1701.6 Q2157.15 1701.6 2158.53 1701.63 Q2159.91 1701.67 2160.6 1701.67 Q2162.12 1701.67 2165.2 1701.56 Q2168.31 1701.45 2169.8 1701.45 Q2170.81 1701.45 2170.81 1702.28 Q2170.81 1703.3 2170.38 1703.55 Q2169.94 1703.77 2168.97 1703.77 Q2166.5 1703.77 2165.16 1704.39 Q2163.86 1705 2163.86 1705.98 L2168.89 1745.25 L2191.68 1709.02 Q2192.81 1707.32 2192.81 1706.2 Q2192.81 1704.02 2189.36 1703.77 Q2188.21 1703.77 2188.21 1702.86 Q2188.21 1702.21 2188.49 1701.89 Q2188.78 1701.52 2189 1701.49 Q2189.26 1701.45 2189.62 1701.45 Q2190.81 1701.45 2193.24 1701.56 Q2195.71 1701.67 2196.94 1701.67 Q2197.95 1701.67 2200.02 1701.56 Q2202.08 1701.45 2203.02 1701.45 Q2204 1701.45 2204 1702.36 Z" fill="#000000" fill-rule="evenodd" fill-opacity="1" /><path clip-path="url(#clip190)" d="M 0 0 M2193.95 1769.96 Q2193.95 1769.6 2194.89 1768.7 Q2206.84 1756.52 2206.84 1733.59 Q2206.84 1710.58 2195.36 1698.95 Q2193.95 1697.61 2193.95 1697.21 Q2193.95 1696.49 2194.67 1696.49 Q2195.18 1696.49 2196.95 1697.97 Q2198.77 1699.46 2201.48 1702.86 Q2204.24 1706.27 2206.27 1710.44 Q2211.16 1720.54 2211.16 1733.59 Q2211.16 1746.12 2206.48 1756.23 Q2204.49 1760.47 2201.7 1764.02 Q2198.91 1767.57 2197.06 1769.13 Q2195.21 1770.69 2194.67 1770.69 Q2193.95 1770.69 2193.95 1769.96 Z" fill="#000000" fill-rule="evenodd" fill-opacity="1" /><polyline clip-path="url(#clip192)" style="stroke:#000000; stroke-width:2.25; stroke-opacity:0.1; fill:none" points="
  1609.68,1296.51 2646.85,1296.51 
  "/>
<polyline clip-path="url(#clip192)" style="stroke:#000000; stroke-width:2.25; stroke-opacity:0.1; fill:none" points="
  1609.68,956.063 2646.85,956.063 
  "/>
<polyline clip-path="url(#clip192)" style="stroke:#000000; stroke-width:2.25; stroke-opacity:0.1; fill:none" points="
  1609.68,615.618 2646.85,615.618 
  "/>
<polyline clip-path="url(#clip192)" style="stroke:#000000; stroke-width:2.25; stroke-opacity:0.1; fill:none" points="
  1609.68,275.173 2646.85,275.173 
  "/>
<polyline clip-path="url(#clip190)" style="stroke:#000000; stroke-width:4.5; stroke-opacity:1; fill:none" points="
  1609.68,1605.79 1609.68,119.466 
  "/>
<polyline clip-path="url(#clip190)" style="stroke:#000000; stroke-width:4.5; stroke-opacity:1; fill:none" points="
  1609.68,1296.51 1622.12,1296.51 
  "/>
<polyline clip-path="url(#clip190)" style="stroke:#000000; stroke-width:4.5; stroke-opacity:1; fill:none" points="
  1609.68,956.063 1622.12,956.063 
  "/>
<polyline clip-path="url(#clip190)" style="stroke:#000000; stroke-width:4.5; stroke-opacity:1; fill:none" points="
  1609.68,615.618 1622.12,615.618 
  "/>
<polyline clip-path="url(#clip190)" style="stroke:#000000; stroke-width:4.5; stroke-opacity:1; fill:none" points="
  1609.68,275.173 1622.12,275.173 
  "/>
<path clip-path="url(#clip190)" d="M 0 0 M1515.95 1280.53 Q1511.89 1280.53 1509.83 1284.54 Q1507.8 1288.53 1507.8 1296.55 Q1507.8 1304.54 1509.83 1308.55 Q1511.89 1312.54 1515.95 1312.54 Q1520.04 1312.54 1522.07 1308.55 Q1524.13 1304.54 1524.13 1296.55 Q1524.13 1288.53 1522.07 1284.54 Q1520.04 1280.53 1515.95 1280.53 M1515.95 1276.36 Q1522.49 1276.36 1525.92 1281.55 Q1529.39 1286.7 1529.39 1296.55 Q1529.39 1306.36 1525.92 1311.55 Q1522.49 1316.7 1515.95 1316.7 Q1509.41 1316.7 1505.95 1311.55 Q1502.51 1306.36 1502.51 1296.55 Q1502.51 1286.7 1505.95 1281.55 Q1509.41 1276.36 1515.95 1276.36 Z" fill="#000000" fill-rule="evenodd" fill-opacity="1" /><path clip-path="url(#clip190)" d="M 0 0 M1535.09 1309.33 L1540.58 1309.33 L1540.58 1315.95 L1535.09 1315.95 L1535.09 1309.33 Z" fill="#000000" fill-rule="evenodd" fill-opacity="1" /><path clip-path="url(#clip190)" d="M 0 0 M1550.82 1311.52 L1569.18 1311.52 L1569.18 1315.95 L1544.49 1315.95 L1544.49 1311.52 Q1547.49 1308.42 1552.64 1303.21 Q1557.82 1297.98 1559.15 1296.47 Q1561.68 1293.63 1562.67 1291.68 Q1563.68 1289.7 1563.68 1287.8 Q1563.68 1284.7 1561.5 1282.74 Q1559.33 1280.79 1555.84 1280.79 Q1553.37 1280.79 1550.61 1281.65 Q1547.88 1282.51 1544.75 1284.26 L1544.75 1278.94 Q1547.93 1277.67 1550.69 1277.02 Q1553.45 1276.36 1555.74 1276.36 Q1561.78 1276.36 1565.38 1279.39 Q1568.97 1282.41 1568.97 1287.46 Q1568.97 1289.85 1568.06 1292.02 Q1567.17 1294.15 1564.8 1297.07 Q1564.15 1297.82 1560.66 1301.44 Q1557.17 1305.04 1550.82 1311.52 Z" fill="#000000" fill-rule="evenodd" fill-opacity="1" /><path clip-path="url(#clip190)" d="M 0 0 M1513.61 940.086 Q1509.54 940.086 1507.49 944.097 Q1505.45 948.081 1505.45 956.102 Q1505.45 964.097 1507.49 968.107 Q1509.54 972.092 1513.61 972.092 Q1517.69 972.092 1519.73 968.107 Q1521.78 964.097 1521.78 956.102 Q1521.78 948.081 1519.73 944.097 Q1517.69 940.086 1513.61 940.086 M1513.61 935.92 Q1520.14 935.92 1523.58 941.102 Q1527.04 946.258 1527.04 956.102 Q1527.04 965.92 1523.58 971.102 Q1520.14 976.258 1513.61 976.258 Q1507.07 976.258 1503.61 971.102 Q1500.17 965.92 1500.17 956.102 Q1500.17 946.258 1503.61 941.102 Q1507.07 935.92 1513.61 935.92 Z" fill="#000000" fill-rule="evenodd" fill-opacity="1" /><path clip-path="url(#clip190)" d="M 0 0 M1532.75 968.888 L1538.24 968.888 L1538.24 975.503 L1532.75 975.503 L1532.75 968.888 Z" fill="#000000" fill-rule="evenodd" fill-opacity="1" /><path clip-path="url(#clip190)" d="M 0 0 M1558.4 941.206 L1545.12 961.961 L1558.4 961.961 L1558.4 941.206 M1557.02 936.623 L1563.63 936.623 L1563.63 961.961 L1569.18 961.961 L1569.18 966.336 L1563.63 966.336 L1563.63 975.503 L1558.4 975.503 L1558.4 966.336 L1540.84 966.336 L1540.84 961.258 L1557.02 936.623 Z" fill="#000000" fill-rule="evenodd" fill-opacity="1" /><path clip-path="url(#clip190)" d="M 0 0 M1513.97 599.642 Q1509.91 599.642 1507.85 603.652 Q1505.82 607.637 1505.82 615.657 Q1505.82 623.652 1507.85 627.662 Q1509.91 631.647 1513.97 631.647 Q1518.06 631.647 1520.09 627.662 Q1522.15 623.652 1522.15 615.657 Q1522.15 607.637 1520.09 603.652 Q1518.06 599.642 1513.97 599.642 M1513.97 595.475 Q1520.51 595.475 1523.94 600.657 Q1527.41 605.814 1527.41 615.657 Q1527.41 625.475 1523.94 630.657 Q1520.51 635.813 1513.97 635.813 Q1507.43 635.813 1503.97 630.657 Q1500.53 625.475 1500.53 615.657 Q1500.53 605.814 1503.97 600.657 Q1507.43 595.475 1513.97 595.475 Z" fill="#000000" fill-rule="evenodd" fill-opacity="1" /><path clip-path="url(#clip190)" d="M 0 0 M1533.11 628.444 L1538.61 628.444 L1538.61 635.058 L1533.11 635.058 L1533.11 628.444 Z" fill="#000000" fill-rule="evenodd" fill-opacity="1" /><path clip-path="url(#clip190)" d="M 0 0 M1556.21 613.522 Q1552.67 613.522 1550.58 615.944 Q1548.53 618.366 1548.53 622.584 Q1548.53 626.777 1550.58 629.225 Q1552.67 631.647 1556.21 631.647 Q1559.75 631.647 1561.81 629.225 Q1563.89 626.777 1563.89 622.584 Q1563.89 618.366 1561.81 615.944 Q1559.75 613.522 1556.21 613.522 M1566.65 597.038 L1566.65 601.829 Q1564.67 600.892 1562.64 600.397 Q1560.64 599.902 1558.66 599.902 Q1553.45 599.902 1550.69 603.418 Q1547.95 606.933 1547.56 614.043 Q1549.1 611.777 1551.42 610.579 Q1553.74 609.355 1556.52 609.355 Q1562.38 609.355 1565.77 612.923 Q1569.18 616.465 1569.18 622.584 Q1569.18 628.574 1565.64 632.194 Q1562.09 635.813 1556.21 635.813 Q1549.46 635.813 1545.9 630.657 Q1542.33 625.475 1542.33 615.657 Q1542.33 606.439 1546.7 600.97 Q1551.08 595.475 1558.45 595.475 Q1560.43 595.475 1562.43 595.866 Q1564.46 596.256 1566.65 597.038 Z" fill="#000000" fill-rule="evenodd" fill-opacity="1" /><path clip-path="url(#clip190)" d="M 0 0 M1514.26 259.197 Q1510.19 259.197 1508.14 263.207 Q1506.11 267.192 1506.11 275.213 Q1506.11 283.207 1508.14 287.218 Q1510.19 291.202 1514.26 291.202 Q1518.34 291.202 1520.38 287.218 Q1522.43 283.207 1522.43 275.213 Q1522.43 267.192 1520.38 263.207 Q1518.34 259.197 1514.26 259.197 M1514.26 255.03 Q1520.79 255.03 1524.23 260.213 Q1527.69 265.369 1527.69 275.213 Q1527.69 285.03 1524.23 290.212 Q1520.79 295.369 1514.26 295.369 Q1507.72 295.369 1504.26 290.212 Q1500.82 285.03 1500.82 275.213 Q1500.82 265.369 1504.26 260.213 Q1507.72 255.03 1514.26 255.03 Z" fill="#000000" fill-rule="evenodd" fill-opacity="1" /><path clip-path="url(#clip190)" d="M 0 0 M1533.4 287.999 L1538.89 287.999 L1538.89 294.613 L1533.4 294.613 L1533.4 287.999 Z" fill="#000000" fill-rule="evenodd" fill-opacity="1" /><path clip-path="url(#clip190)" d="M 0 0 M1555.84 276.15 Q1552.09 276.15 1549.93 278.155 Q1547.8 280.16 1547.8 283.676 Q1547.8 287.192 1549.93 289.197 Q1552.09 291.202 1555.84 291.202 Q1559.59 291.202 1561.76 289.197 Q1563.92 287.166 1563.92 283.676 Q1563.92 280.16 1561.76 278.155 Q1559.62 276.15 1555.84 276.15 M1550.58 273.91 Q1547.2 273.077 1545.3 270.759 Q1543.42 268.442 1543.42 265.108 Q1543.42 260.447 1546.73 257.739 Q1550.06 255.03 1555.84 255.03 Q1561.65 255.03 1564.96 257.739 Q1568.27 260.447 1568.27 265.108 Q1568.27 268.442 1566.37 270.759 Q1564.49 273.077 1561.13 273.91 Q1564.93 274.796 1567.04 277.374 Q1569.18 279.952 1569.18 283.676 Q1569.18 289.327 1565.71 292.348 Q1562.28 295.369 1555.84 295.369 Q1549.41 295.369 1545.95 292.348 Q1542.51 289.327 1542.51 283.676 Q1542.51 279.952 1544.65 277.374 Q1546.78 274.796 1550.58 273.91 M1548.66 265.603 Q1548.66 268.624 1550.53 270.317 Q1552.43 272.009 1555.84 272.009 Q1559.23 272.009 1561.13 270.317 Q1563.06 268.624 1563.06 265.603 Q1563.06 262.582 1561.13 260.89 Q1559.23 259.197 1555.84 259.197 Q1552.43 259.197 1550.53 260.89 Q1548.66 262.582 1548.66 265.603 Z" fill="#000000" fill-rule="evenodd" fill-opacity="1" /><path clip-path="url(#clip190)" d="M 0 0 M1434.1 982.594 Q1421.56 982.594 1411.45 977.921 Q1407.22 975.928 1403.66 973.138 Q1400.11 970.348 1398.56 968.5 Q1397 966.652 1397 966.145 Q1397 965.421 1397.72 965.384 Q1398.08 965.384 1398.99 966.363 Q1411.16 978.319 1434.1 978.283 Q1457.11 978.283 1468.81 966.652 Q1470.08 965.384 1470.48 965.384 Q1471.2 965.384 1471.2 966.145 Q1471.2 966.652 1469.71 968.428 Q1468.23 970.203 1464.82 972.957 Q1461.42 975.71 1457.25 977.703 Q1447.14 982.594 1434.1 982.594 Z" fill="#000000" fill-rule="evenodd" fill-opacity="1" /><path clip-path="url(#clip190)" d="M 0 0 M1424.24 912.45 Q1424.61 912.523 1425.26 912.668 Q1425.87 912.813 1427.83 913.465 Q1429.79 914.117 1431.78 914.987 Q1433.74 915.82 1436.49 917.45 Q1439.21 919.045 1441.67 921.001 Q1442.32 921.545 1442.72 921.653 Q1443.08 921.726 1444.28 921.726 Q1451.82 921.726 1451.82 919.443 Q1451.82 919.334 1451.82 919.153 Q1451.78 918.936 1451.6 918.392 Q1451.38 917.813 1451.06 917.306 Q1450.69 916.798 1449.97 916.219 Q1449.21 915.639 1448.19 915.277 Q1447.47 914.95 1447.47 914.298 Q1447.47 913.429 1448.19 913.429 Q1449.5 913.429 1451.49 915.24 Q1453.48 917.052 1453.48 919.661 Q1453.48 922.161 1451.85 923.936 Q1450.19 925.675 1447.21 926.4 Q1453.48 934.226 1453.48 942.052 Q1453.48 947.559 1449.9 950.82 Q1446.27 954.081 1440.91 954.081 Q1435.77 954.081 1430.87 951.255 Q1425.98 948.392 1422.94 943.755 Q1419.86 939.081 1419.86 934.117 Q1419.86 932.378 1420.33 930.711 Q1420.77 929.045 1421.89 927.378 Q1423.01 925.711 1424.71 924.479 Q1426.42 923.248 1429.1 922.487 Q1431.78 921.726 1435.15 921.726 L1439.75 921.726 Q1433.7 916.943 1425.04 914.443 Q1423.74 914.081 1423.59 913.864 Q1423.48 913.719 1423.48 913.356 Q1423.48 912.994 1423.7 912.777 Q1423.88 912.523 1424.06 912.487 L1424.24 912.45 M1445.29 926.69 Q1444.03 926.834 1437 926.834 Q1435.66 926.834 1434.93 926.834 Q1434.17 926.834 1432.72 926.907 Q1431.27 926.979 1430.37 927.124 Q1429.46 927.233 1428.16 927.487 Q1426.85 927.74 1426.02 928.103 Q1425.19 928.465 1424.24 929.045 Q1423.3 929.588 1422.76 930.313 Q1422.21 931.001 1421.85 932.016 Q1421.49 932.994 1421.49 934.189 Q1421.49 935.675 1422.03 937.233 Q1422.54 938.755 1424.17 940.711 Q1425.77 942.668 1428.3 944.298 Q1430.98 946.001 1435.91 947.305 Q1440.8 948.573 1443.74 948.573 Q1447.43 948.573 1449.64 946.871 Q1451.82 945.168 1451.82 941.907 Q1451.82 934.117 1445.29 926.69 Z" fill="#000000" fill-rule="evenodd" fill-opacity="1" /><path clip-path="url(#clip190)" d="M 0 0 M1404.21 853.233 L1417.03 854.718 Q1418.19 854.827 1418.56 855.008 Q1418.88 855.189 1418.88 855.769 Q1418.88 856.204 1418.63 856.457 Q1418.34 856.675 1418.01 856.675 Q1417.83 856.675 1417.36 856.638 Q1416.89 856.602 1416.67 856.602 Q1414.43 856.276 1412.72 856.276 Q1409.57 856.276 1407.87 857.218 Q1406.13 858.16 1405.33 860.588 Q1404.5 863.015 1404.5 867.58 L1404.5 878.015 Q1404.5 880.406 1404.93 880.986 Q1405.37 881.529 1407.4 882.037 L1425.26 886.493 L1425.26 879.5 Q1425.26 876.892 1424.93 875.334 Q1424.61 873.74 1423.7 872.689 Q1422.76 871.602 1421.49 871.022 Q1420.22 870.406 1417.94 869.79 Q1417.18 869.609 1416.89 869.428 Q1416.6 869.211 1416.6 868.74 Q1416.6 868.377 1416.85 868.124 Q1417.07 867.87 1417.4 867.87 L1434.75 872.109 Q1435.62 872.327 1435.95 872.544 Q1436.24 872.761 1436.24 873.196 Q1436.24 873.667 1435.98 873.921 Q1435.73 874.174 1435.44 874.174 Q1435.15 874.174 1434.61 873.957 Q1432.25 873.414 1430.98 873.414 Q1430.26 873.414 1429.9 873.486 Q1429.53 873.522 1429.03 873.848 Q1428.48 874.138 1428.23 874.79 Q1427.98 875.443 1427.79 876.674 Q1427.58 877.906 1427.58 879.754 L1427.58 887.073 L1447.83 892.145 Q1449.17 892.508 1449.53 892.508 Q1449.93 892.508 1450.08 892.326 Q1450.19 892.109 1450.26 891.529 Q1450.37 890.877 1450.37 889.899 L1450.37 879.066 Q1450.37 876.674 1450.15 874.754 Q1449.93 872.834 1449.39 871.24 Q1448.85 869.609 1448.23 868.377 Q1447.61 867.145 1446.49 865.986 Q1445.33 864.827 1444.32 864.03 Q1443.27 863.196 1441.49 862.218 Q1439.71 861.24 1438.27 860.551 Q1436.78 859.863 1434.39 858.812 Q1433.52 858.522 1433.52 857.834 Q1433.52 857.435 1433.74 857.218 Q1433.92 857.001 1434.1 856.964 L1434.32 856.964 Q1435 857.182 1435.37 857.327 L1451.38 864.138 Q1452.29 864.537 1452.47 864.863 Q1452.65 865.189 1452.65 866.457 L1452.65 904.971 Q1452.65 905.841 1452.61 906.203 Q1452.58 906.529 1452.4 906.783 Q1452.18 907.036 1451.74 907.036 Q1451.06 907.036 1450.77 906.747 Q1450.44 906.457 1450.4 906.131 Q1450.37 905.805 1450.37 904.971 Q1450.37 903.16 1450.26 902.073 Q1450.15 900.986 1450 900.297 Q1449.82 899.573 1449.32 899.21 Q1448.81 898.812 1448.37 898.631 Q1447.9 898.45 1446.85 898.196 L1407.61 888.413 Q1406.27 888.051 1405.84 888.051 Q1405.37 888.051 1405.08 888.377 Q1404.79 888.667 1404.68 889.464 Q1404.53 890.261 1404.53 890.913 Q1404.5 891.529 1404.5 892.87 Q1404.5 893.739 1404.46 894.102 Q1404.43 894.428 1404.24 894.681 Q1404.06 894.935 1403.66 894.935 Q1402.65 894.935 1402.43 894.5 Q1402.18 894.029 1402.18 892.725 L1402.18 855.262 Q1402.18 853.776 1402.51 853.45 Q1402.79 853.088 1404.21 853.233 Z" fill="#000000" fill-rule="evenodd" fill-opacity="1" /><path clip-path="url(#clip190)" d="M 0 0 M1470.48 852.774 Q1470.11 852.774 1469.21 851.832 Q1457.03 839.876 1434.1 839.876 Q1411.09 839.876 1399.46 851.361 Q1398.12 852.774 1397.72 852.774 Q1397 852.774 1397 852.049 Q1397 851.542 1398.48 849.767 Q1399.97 847.955 1403.37 845.238 Q1406.78 842.484 1410.95 840.455 Q1421.06 835.564 1434.1 835.564 Q1446.64 835.564 1456.74 840.238 Q1460.98 842.231 1464.53 845.021 Q1468.08 847.81 1469.64 849.658 Q1471.2 851.506 1471.2 852.049 Q1471.2 852.774 1470.48 852.774 Z" fill="#000000" fill-rule="evenodd" fill-opacity="1" /><path clip-path="url(#clip190)" d="M 0 0 M1366.95 827.803 L1365.32 827.803 Q1365.32 821.564 1362 818.343 Q1362 817.456 1362.2 817.303 Q1362.41 817.151 1363.35 817.151 L1392.49 817.151 Q1394.03 817.151 1394.52 816.39 Q1395 815.629 1395 812.307 L1395 810.659 L1396.6 810.659 Q1396.44 812.485 1396.44 819.079 Q1396.44 825.673 1396.6 827.474 L1395 827.474 L1395 825.825 Q1395 822.553 1394.54 821.767 Q1394.06 820.981 1392.49 820.981 L1365.58 820.981 Q1366.95 823.695 1366.95 827.803 Z" fill="#000000" fill-rule="evenodd" fill-opacity="1" /><path clip-path="url(#clip190)" d="M 0 0 M1408.84 802.062 Q1408.59 802.062 1408.03 801.859 L1359.03 783.522 Q1358.98 783.522 1358.7 783.395 Q1358.43 783.269 1358.25 783.192 Q1358.04 783.116 1357.89 782.964 Q1357.74 782.787 1357.74 782.584 Q1357.74 782.077 1358.37 782.077 Q1358.43 782.077 1359.03 782.229 L1408.08 800.616 Q1408.97 800.921 1409.23 801.124 Q1409.48 801.301 1409.48 801.605 Q1409.48 802.062 1408.84 802.062 Z" fill="#000000" fill-rule="evenodd" fill-opacity="1" /><path clip-path="url(#clip190)" d="M 0 0 M1396.6 776.32 Q1395.66 776.32 1395.38 776.244 Q1395.1 776.143 1394.67 775.737 L1383.56 765.77 Q1377.42 760.317 1372.07 760.317 Q1368.6 760.317 1366.11 762.143 Q1363.62 763.944 1363.62 767.266 Q1363.62 769.549 1365.02 771.476 Q1366.41 773.404 1368.9 774.292 Q1368.85 774.139 1368.85 773.607 Q1368.85 772.313 1369.66 771.603 Q1370.47 770.868 1371.56 770.868 Q1372.96 770.868 1373.64 771.781 Q1374.3 772.668 1374.3 773.556 Q1374.3 773.911 1374.23 774.393 Q1374.15 774.849 1373.44 775.585 Q1372.7 776.32 1371.41 776.32 Q1367.78 776.32 1364.89 773.581 Q1362 770.817 1362 766.607 Q1362 761.839 1364.84 758.719 Q1367.66 755.574 1372.07 755.574 Q1373.62 755.574 1375.04 756.056 Q1376.43 756.513 1377.52 757.147 Q1378.61 757.755 1380.36 759.429 Q1382.11 761.103 1383.36 762.447 Q1384.6 763.792 1387.24 766.81 L1392.59 772.313 L1392.59 762.955 Q1392.59 758.389 1392.18 758.034 Q1391.45 757.527 1387.57 756.893 L1387.57 755.574 L1396.6 757.045 L1396.6 776.32 Z" fill="#000000" fill-rule="evenodd" fill-opacity="1" /><path clip-path="url(#clip190)" d="M 0 0 M2028.57 15.1236 L2028.57 33.3852 L2036.84 33.3852 Q2041.43 33.3852 2043.94 31.0089 Q2046.44 28.6327 2046.44 24.2382 Q2046.44 19.8762 2043.94 17.4999 Q2041.43 15.1236 2036.84 15.1236 L2028.57 15.1236 M2022 9.72 L2036.84 9.72 Q2045.01 9.72 2049.18 13.4309 Q2053.38 17.1093 2053.38 24.2382 Q2053.38 31.4321 2049.18 35.1105 Q2045.01 38.7889 2036.84 38.7889 L2028.57 38.7889 L2028.57 58.32 L2022 58.32 L2022 9.72 Z" fill="#000000" fill-rule="evenodd" fill-opacity="1" /><path clip-path="url(#clip190)" d="M 0 0 M2081.63 28.0467 L2123.37 28.0467 L2123.37 33.5154 L2081.63 33.5154 L2081.63 28.0467 M2081.63 41.3279 L2123.37 41.3279 L2123.37 46.8617 L2081.63 46.8617 L2081.63 41.3279 Z" fill="#000000" fill-rule="evenodd" fill-opacity="1" /><path clip-path="url(#clip190)" d="M 0 0 M2165.75 14.0494 Q2160.67 14.0494 2158.1 19.0624 Q2155.56 24.0428 2155.56 34.0688 Q2155.56 44.0623 2158.1 49.0753 Q2160.67 54.0557 2165.75 54.0557 Q2170.86 54.0557 2173.4 49.0753 Q2175.97 44.0623 2175.97 34.0688 Q2175.97 24.0428 2173.4 19.0624 Q2170.86 14.0494 2165.75 14.0494 M2165.75 8.8411 Q2173.92 8.8411 2178.22 15.3189 Q2182.54 21.7642 2182.54 34.0688 Q2182.54 46.3409 2178.22 52.8187 Q2173.92 59.264 2165.75 59.264 Q2157.58 59.264 2153.25 52.8187 Q2148.95 46.3409 2148.95 34.0688 Q2148.95 21.7642 2153.25 15.3189 Q2157.58 8.8411 2165.75 8.8411 Z" fill="#000000" fill-rule="evenodd" fill-opacity="1" /><path clip-path="url(#clip190)" d="M 0 0 M2189.67 50.0518 L2196.54 50.0518 L2196.54 58.32 L2189.67 58.32 L2189.67 50.0518 Z" fill="#000000" fill-rule="evenodd" fill-opacity="1" /><path clip-path="url(#clip190)" d="M 0 0 M2217.73 14.0494 Q2212.66 14.0494 2210.08 19.0624 Q2207.54 24.0428 2207.54 34.0688 Q2207.54 44.0623 2210.08 49.0753 Q2212.66 54.0557 2217.73 54.0557 Q2222.84 54.0557 2225.38 49.0753 Q2227.95 44.0623 2227.95 34.0688 Q2227.95 24.0428 2225.38 19.0624 Q2222.84 14.0494 2217.73 14.0494 M2217.73 8.8411 Q2225.9 8.8411 2230.2 15.3189 Q2234.53 21.7642 2234.53 34.0688 Q2234.53 46.3409 2230.2 52.8187 Q2225.9 59.264 2217.73 59.264 Q2209.56 59.264 2205.23 52.8187 Q2200.94 46.3409 2200.94 34.0688 Q2200.94 21.7642 2205.23 15.3189 Q2209.56 8.8411 2217.73 8.8411 Z" fill="#000000" fill-rule="evenodd" fill-opacity="1" /><polyline clip-path="url(#clip192)" style="stroke:#009af9; stroke-width:4.5; stroke-opacity:1; fill:none" points="
  2411.8,347.4 2407.57,403.664 2403.38,438.637 2399.22,474.347 2395.1,493.552 2391.01,522.263 2386.96,545.033 2382.94,564.08 2378.96,583.812 2375.01,600.81 
  2371.09,620.525 2367.2,637.559 2363.35,652.627 2359.53,667.737 2355.74,681.341 2351.98,696.213 2348.25,708.549 2344.55,722.924 2340.88,735.088 2337.24,748.78 
  2333.63,760.564 2330.05,772.182 2326.5,784.229 2322.98,795.402 2319.48,806.364 2316.01,817.112 2312.57,827.643 2309.15,837.536 2305.76,846.875 2302.4,857.22 
  2299.06,866.614 2295.75,876.504 2292.46,886.159 2289.2,895.016 2285.97,904.544 2282.75,913.584 2279.57,922.433 2276.4,930.408 2273.26,935.153 2270.14,948.76 
  2267.05,957.095 2263.98,965.641 2260.93,974.175 2257.9,982.685 2254.9,990.997 2251.92,999.741 2248.96,1008.26 2246.02,1016.57 2243.1,1025.08 2240.2,1033.25 
  2237.32,1041.48 2234.47,1049.39 2231.63,1057.48 2228.82,1065.48 2226.02,1073.62 2223.24,1081.77 2220.49,1089.82 2217.75,1097.88 2215.03,1105.83 2212.33,1113.62 
  2209.65,1121.15 2206.99,1129.02 2204.34,1136.57 2201.71,1143.97 2199.11,1151.38 2196.51,1158.8 2193.94,1166.08 2191.38,1173.31 2188.85,1180.48 2186.32,1187.73 
  2183.82,1194.74 2181.33,1201.59 2178.86,1208.4 2176.4,1214.94 2173.96,1221.41 2171.54,1227.7 2169.13,1234.03 2166.74,1240.03 2164.36,1246.14 2162,1252.1 
  2159.65,1258.11 2157.32,1263.73 2155.01,1269.36 2152.71,1274.72 2150.42,1279.96 2148.15,1285.19 2145.89,1290.01 2143.65,1294.98 2141.42,1299.56 2139.2,1304.24 
  2137,1308.83 2134.81,1313.23 2132.64,1317.42 2130.48,1321.53 2128.33,1325.61 2126.2,1329.39 2124.08,1333.2 2121.97,1336.84 2119.87,1340.37 2117.79,1343.63 
  2115.72,1346.82 2113.66,1349.9 2111.62,1353.11 2109.58,1355.82 2107.56,1357.53 2105.56,1362.58 2103.56,1365.21 2101.57,1367.7 2099.6,1369.89 2097.64,1371.13 
  2095.69,1373.77 2093.75,1376.19 2091.83,1378.68 2089.91,1380.75 2088.01,1382.89 2086.11,1385.02 2084.23,1387.07 2082.36,1389.28 2080.5,1391.1 2078.65,1392.92 
  2076.81,1394.86 2074.98,1396.58 2073.16,1398.17 2071.35,1399.97 2069.55,1401.64 2067.76,1403.18 2065.99,1404.68 2064.22,1406.12 2062.46,1407.45 2060.71,1408.72 
  2058.97,1409.95 2057.24,1411.05 2055.52,1412.4 2053.81,1413.5 2052.11,1414.63 2050.42,1415.68 2048.74,1416.69 2047.06,1417.73 2045.4,1418.61 2043.75,1419.61 
  2042.1,1420.11 2040.46,1422.87 2038.83,1423.86 2037.22,1424.89 2035.6,1425.92 2034,1426.81 2032.41,1427.42 2030.82,1428.98 2029.25,1429.75 2027.68,1430.68 
  2026.12,1431.52 2024.56,1432.45 2023.02,1433.17 2021.48,1434.09 2019.96,1434.69 2018.44,1435.81 2016.92,1436.52 2015.42,1437.27 2013.92,1438.06 2012.43,1438.85 
  2010.95,1439.39 2009.48,1440.21 2008.01,1441.04 2006.55,1441.78 2005.1,1442.55 2003.66,1443.13 2002.22,1443.7 2000.79,1444.47 1999.37,1445.04 1997.96,1445.65 
  1996.55,1446.37 1995.15,1447.06 1993.75,1447.58 1992.37,1448.3 1990.99,1448.94 1989.61,1449.58 1988.25,1450.22 1986.89,1450.85 1985.53,1451.49 1984.19,1452 
  1982.85,1452.59 1981.51,1453.18 1980.18,1453.64 1978.86,1454.27 1977.55,1454.73 1976.24,1455.23 1974.94,1455.82 1973.64,1456.48 1972.36,1457.02 1971.07,1457.51 
  1969.79,1458.01 1968.52,1458.58 1967.26,1459.04 1966,1459.53 1964.75,1460.06 1963.5,1460.43 1962.26,1460.92 1961.02,1461.32 1959.79,1461.85 1958.57,1462.42 
  1957.35,1462.78 1956.14,1463.18 1954.93,1463.7 1953.73,1464.06 1952.54,1464.58 1951.34,1465.02 1950.16,1465.46 1948.98,1465.97 1947.81,1466.29 1946.64,1466.64 
  1945.47,1467.11 1944.32,1467.47 1943.16,1467.94 1942.02,1468.25 1940.87,1468.64 1939.74,1469.1 1938.6,1469.53 1937.48,1469.8 1936.35,1470.1 1935.24,1470.53 
  1934.12,1470.95 1933.02,1472.12 1931.91,1472.58 1930.82,1473.08 1929.72,1473.38 1928.64,1473.92 1927.55,1474.21 1926.48,1474.83 1925.4,1475.04 1924.33,1475.34 
  1923.27,1475.87 1922.21,1476.36 1921.15,1476.77 1920.1,1477.3 1919.06,1477.47 1918.02,1477.88 1916.98,1478.25 1915.95,1478.54 1914.92,1478.9 1913.89,1479.31 
  1912.87,1479.75 1911.86,1480.15 1910.85,1480.6 1909.84,1480.76 1908.84,1481.04 1907.84,1481.48 1906.85,1481.88 1905.86,1482.24 1904.87,1482.64 1903.89,1482.96 
  1902.91,1483.43 1901.94,1483.67 1900.97,1483.94 1900,1484.18 1899.04,1484.49 1898.09,1484.96 1897.13,1485.32 1896.18,1485.75 1895.24,1486.02 1894.3,1486.29 
  1893.36,1486.68 1892.42,1486.87 1891.49,1487.18 1890.57,1487.64 1889.64,1487.87 1888.73,1488.22 1887.81,1488.48 1886.9,1488.9 1885.99,1489.29 1885.09,1489.55 
  1884.19,1489.89 1883.29,1490.08 1882.4,1490.46 1881.51,1490.8 1880.62,1491.06 1879.74,1491.59 1878.86,1491.73 1877.98,1492.03 1877.11,1492.25 1876.24,1492.59 
  1875.37,1492.88 1874.51,1493.18 1873.65,1493.51 1872.8,1493.73 1871.94,1494.1 1871.09,1494.28 1870.25,1494.65 1869.41,1494.9 1868.57,1495.15 1867.73,1495.56 
  1866.9,1495.7 1866.07,1495.87 1865.24,1496.35 1864.42,1496.6 1863.6,1496.81 1862.78,1497.25 1861.97,1497.54 1861.16,1497.75 1860.35,1498.04 1859.55,1498.13 
  1858.75,1498.41 1857.95,1498.66 1857.15,1499.06 1856.36,1499.3 1855.57,1499.7 1854.78,1499.9 1854,1500.15 1853.22,1500.35 1852.44,1500.71 1851.67,1500.79 
  1850.89,1501.19 1850.12,1501.39 1849.36,1501.55 1848.59,1501.87 1847.83,1501.95 1847.08,1502.19 1846.32,1502.43 1845.57,1502.71 1844.82,1503.09 1844.07,1503.22 
  1843.33,1503.64 1842.59,1503.84 1841.85,1504.07 1841.11,1504.38 1840.38,1504.62 1839.65,1504.89 1838.92,1505.08 1838.19,1505.47 1837.47,1505.7 1836.75,1505.97 
  1836.03,1506.31 1835.32,1506.43 1834.6,1506.7 1833.89,1507 1833.18,1507.23 1832.48,1507.42 1831.78,1507.54 1831.08,1507.8 1830.38,1507.92 1829.68,1508.07 
  1828.99,1508.3 1828.3,1508.48 1827.61,1508.6 1826.93,1509.01 1826.24,1509.16 1825.56,1509.35 1824.88,1509.61 1824.21,1509.83 1823.53,1510.02 1822.86,1510.13 
  1822.19,1510.38 1821.53,1510.53 1820.86,1510.75 1820.2,1511.01 1819.54,1511.31 1818.88,1511.38 1818.23,1511.75 1817.57,1512.19 1816.92,1512.26 1816.27,1512.67 
  1815.63,1512.92 1814.98,1512.95 1814.34,1513.24 1813.7,1513.42 1813.06,1513.53 1812.43,1513.78 1811.79,1513.96 1811.16,1514.25 1810.53,1514.39 1809.9,1514.6 
  1809.28,1514.74 1808.65,1515.07 1808.03,1515.32 1807.41,1515.42 1806.8,1515.52 1806.18,1515.66 1805.57,1515.98 1804.96,1516.16 1804.35,1516.33 1803.74,1516.62 
  1803.14,1516.83 1802.53,1517.04 1801.93,1517.32 1801.33,1517.34 1800.74,1517.55 1800.14,1517.73 1799.55,1517.9 1798.96,1518.18 1798.37,1518.13 1797.78,1518.48 
  1797.2,1518.76 1796.61,1518.82 1796.03,1519.1 1795.45,1519.2 1794.87,1519.48 1794.3,1519.42 1793.72,1519.7 1793.15,1519.87 1792.58,1520.11 1792.01,1520.35 
  1791.44,1520.3 1790.88,1520.65 1790.31,1520.74 1789.75,1520.98 1789.19,1521.14 1788.63,1521.24 1788.08,1521.44 1787.52,1521.68 1786.97,1521.84 1786.42,1521.97 
  1785.87,1522.17 1785.32,1522.33 1784.77,1522.31 1784.23,1522.69 1783.69,1522.89 1783.15,1523.02 1782.61,1523.11 1782.07,1523.34 1781.53,1523.39 1781,1523.63 
  1780.47,1523.79 1779.94,1523.95 1779.41,1524.25 1778.88,1524.41 1778.35,1524.54 1777.83,1524.62 1777.3,1524.78 1776.78,1524.94 1776.26,1525.28 1775.75,1525.33 
  1775.23,1525.52 1774.71,1525.68 1774.2,1525.84 1773.69,1526.07 1773.18,1526.01 1772.67,1526.31 1772.16,1526.47 1771.66,1526.7 1771.15,1526.81 1770.65,1527.01 
  1770.15,1527.16 1769.65,1527.39 1769.15,1527.58 1768.65,1527.77 1768.16,1527.85 1767.66,1528.01 1767.17,1528.2 1766.68,1528.39 1766.19,1528.5 1765.7,1528.55 
  1765.21,1528.7 1764.73,1528.74 1764.24,1528.97 1763.76,1529.05 1763.28,1529.27 1762.8,1529.39 1762.32,1529.54 1761.85,1529.72 1761.37,1529.98 1760.9,1530.02 
  1760.42,1530.25 1759.95,1530.4 1759.48,1530.51 1759.01,1530.55 1758.55,1530.7 1758.08,1530.85 1757.62,1531.14 1757.15,1531.18 1756.69,1531.37 1756.23,1531.62 
  1755.77,1531.66 1755.31,1531.74 1754.86,1531.85 1754.4,1532.1 1753.95,1532.18 1753.5,1532.33 1753.04,1532.47 1752.59,1532.51 1752.14,1532.66 1751.7,1532.84 
  1751.25,1532.91 1750.81,1533.13 1750.36,1533.38 1749.92,1533.45 1749.48,1533.63 1749.04,1533.82 1748.6,1533.78 1748.16,1534.03 1747.72,1534.1 1747.29,1534.25 
  1746.85,1534.35 1746.42,1534.53 1745.99,1534.64 1745.56,1534.85 1745.13,1534.96 1744.7,1535.07 1744.27,1535.1 1743.85,1535.21 1743.42,1535.31 1743,1535.45 
  1742.58,1535.7 1742.16,1535.77 1741.74,1535.91 1741.32,1536.09 1740.9,1536.16 1740.48,1536.37 1740.07,1536.37 1739.65,1536.51 1739.24,1536.65 1738.83,1536.71 
  1738.42,1536.89 1738.01,1536.99 1737.6,1537.24 1737.19,1537.27 1736.79,1537.34 1736.38,1537.55 1735.98,1537.58 1735.57,1537.68 1735.17,1537.85 1734.77,1538.1 
  1734.37,1538.2 1733.97,1538.27 1733.57,1538.33 1733.18,1538.43 1732.78,1538.64 1732.39,1538.67 1731.99,1538.7 1731.6,1538.98 1731.21,1538.97 1730.82,1539 
  1730.43,1539.21 1730.04,1539.48 1729.65,1539.65 1729.26,1539.61 1728.88,1539.82 1728.49,1539.81 1728.11,1540.02 1727.73,1540.04 1727.35,1540.25 1726.97,1540.42 
  1726.59,1540.41 1726.21,1540.47 1725.83,1540.43 1725.45,1540.67 1725.08,1540.8 1724.7,1540.86 1724.33,1541.03 1723.96,1541.09 1723.59,1541.3 1723.22,1541.39 
  1722.85,1541.38 1722.48,1541.51 1722.11,1541.51 1721.74,1541.64 1721.38,1541.73 1721.01,1541.93 1720.65,1542.07 1720.28,1542.2 1719.92,1542.22 1719.56,1542.35 
  1719.2,1542.52 1718.84,1542.61 1718.48,1542.64 1718.12,1543.01 1717.77,1542.93 1717.41,1542.95 1717.05,1543.05 1716.7,1543.35 1716.35,1543.41 1715.99,1543.4 
  1715.64,1543.49 1715.29,1543.52 1714.94,1543.65 1714.59,1543.81 1714.24,1543.87 1713.9,1544 1713.55,1544.02 1713.21,1544.43 1712.86,1544.41 1712.52,1544.43 
  1712.17,1544.39 1711.83,1544.58 1711.49,1544.71 1711.15,1544.7 1710.81,1544.86 1710.47,1544.88 1710.13,1545.01 1709.8,1545.2 1709.46,1545.36 1709.13,1545.42 
  1708.79,1545.55 1708.46,1545.46 1708.12,1545.66 1707.79,1545.61 1707.46,1545.94 1707.13,1545.93 1706.8,1546.16 1706.47,1546.32 1706.14,1546.2 1705.82,1546.18 
  1705.49,1546.38 1705.16,1546.46 1704.84,1546.59 1704.51,1546.57 1704.19,1546.77 1703.87,1547.06 1703.55,1547.19 1703.22,1546.96 1702.9,1547.16 1702.58,1547.31 
  1702.27,1547.54 1701.95,1547.49 1701.63,1547.61 1701.31,1547.63 1701,1547.82 1700.68,1547.87 1700.37,1547.86 1700.06,1547.84 1699.74,1547.89 1699.43,1548.01 
  1699.12,1548.14 1698.81,1548.29 1698.5,1548.65 1698.19,1548.71 1697.88,1548.65 1697.57,1548.84 1697.27,1548.76 1696.96,1548.74 1696.65,1548.96 1696.35,1549.08 
  1696.04,1549.03 1695.74,1549.26 1695.44,1549.2 1695.14,1549.32 1694.83,1549.34 1694.53,1549.42 1694.23,1549.61 1693.93,1549.66 1693.64,1549.71 1693.34,1549.87 
  1693.04,1549.98 1692.74,1550.14 1692.45,1550.05 1692.15,1550.17 1691.86,1550.25 1691.56,1550.44 1691.27,1550.63 1690.98,1550.57 1690.69,1550.62 1690.4,1550.74 
  1690.11,1550.58 1689.82,1550.87 1689.53,1550.78 1689.24,1551.07 1688.95,1551.19 1688.66,1551.27 1688.38,1551.29 1688.09,1551.27 1687.81,1551.48 1687.52,1551.6 
  1687.24,1551.65 1686.95,1551.7 1686.67,1551.64 1686.39,1551.72 1686.11,1551.98 1685.83,1552.06 1685.55,1552.21 1685.27,1552.25 1684.99,1552.44 1684.71,1552.38 
  1684.43,1552.46 1684.15,1552.51 1683.88,1552.42 1683.6,1552.57 1683.33,1552.75 1683.05,1552.73 1682.78,1552.74 1682.5,1553.03 1682.23,1552.97 1681.96,1553.05 
  1681.69,1553.13 1681.42,1553.11 1681.15,1553.36 1680.88,1553.37 1680.61,1553.49 1680.34,1553.57 1680.07,1553.65 1679.8,1553.69 1679.53,1553.84 1679.27,1553.75 
  1679,1553.79 1678.74,1553.97 1678.47,1554.02 1678.21,1554.06 1677.95,1554.04 1677.68,1554.19 1677.42,1554.3 1677.16,1554.41 1676.9,1554.42 1676.64,1554.53 
  1676.38,1554.65 1676.12,1554.79 1675.86,1554.8 1675.6,1554.81 1675.34,1554.89 1675.08,1555 1674.83,1555.04 1674.57,1555.16 1674.32,1555.17 1674.06,1555.31 
  1673.81,1555.32 1673.55,1555.5 1673.3,1555.47 1673.04,1555.65 1672.79,1555.49 1672.54,1555.6 1672.29,1555.68 1672.04,1555.72 1671.79,1555.83 1671.54,1555.94 
  1671.29,1556.05 1671.04,1556.06 1670.79,1556.1 1670.54,1556.18 1670.3,1556.22 1670.05,1556.23 1669.8,1556.51 1669.56,1556.48 1669.31,1556.59 1669.07,1556.6 
  1668.82,1556.51 1668.58,1556.68 1668.34,1556.76 1668.1,1556.73 1667.85,1556.81 1667.61,1556.98 1667.37,1557.06 1667.13,1557.07 1666.89,1557.21 1666.65,1557.12 
  1666.41,1557.16 1666.17,1557.3 1665.93,1557.44 1665.7,1557.51 1665.46,1557.52 1665.22,1557.69 1664.99,1557.67 1664.75,1557.71 1664.52,1557.85 1664.28,1557.92 
  1664.05,1557.96 1663.81,1557.9 1663.58,1558.01 1663.35,1558.08 1663.12,1558.26 1662.88,1558.16 1662.65,1558.3 1662.42,1558.24 1662.19,1558.35 1661.96,1558.29 
  1661.73,1558.49 1661.5,1558.53 1661.27,1558.44 1661.05,1558.51 1660.82,1558.65 1660.59,1558.79 1660.36,1558.76 1660.14,1558.77 1659.91,1558.88 1659.69,1558.98 
  1659.46,1558.99 1659.24,1559.16 1659.01,1559.26 1658.79,1559.27 1658.57,1559.37 1658.34,1559.31 1658.12,1559.35 1657.9,1559.39 1657.68,1559.43 1657.46,1559.43 
  1657.24,1559.54 1657.02,1559.67 1656.8,1559.58 1656.58,1559.59 1656.36,1559.63 1656.14,1559.79 1655.92,1559.87 1655.7,1559.94 1655.49,1559.94 1655.27,1559.98 
  1655.06,1559.95 1654.84,1560.02 1654.62,1560.03 1654.41,1560.56 1654.19,1560.56 1653.98,1560.63 1653.77,1560.6 1653.55,1560.64 1653.34,1560.58 1653.13,1560.58 
  1652.92,1560.68 1652.7,1560.69 1652.49,1560.69 1652.28,1560.73 1652.07,1560.64 1651.86,1560.67 1651.65,1560.74 1651.44,1560.65 1651.23,1560.72 1651.03,1560.82 
  1650.82,1560.82 1650.61,1560.73 1650.4,1560.7 1650.2,1560.84 1649.99,1560.74 1649.78,1560.75 1649.58,1560.91 1649.37,1560.79 1649.17,1560.7 1648.96,1560.8 
  1648.76,1560.83 1648.56,1560.93 1648.35,1560.75 1648.15,1560.81 1647.95,1560.91 1647.75,1560.69 1647.54,1560.67 1647.34,1560.96 1647.14,1560.99 1646.94,1560.87 
  1646.74,1560.68 1646.54,1560.78 1646.34,1561.11 1646.14,1561.17 1645.94,1561.08 1645.75,1560.77 1645.55,1560.74 1645.35,1561.12 1645.15,1561.54 1644.96,1561.7 
  1644.76,1561.29 1644.56,1560.95 1644.37,1561.08 1644.17,1561.59 1643.98,1562.07 1643.78,1562.14 1643.59,1561.85 1643.39,1561.22 1643.2,1560.82 1643.01,1560.95 
  1642.82,1561.49 1642.62,1562.06 1642.43,1562.51 1642.24,1562.35 1642.05,1561.88 1641.86,1561.31 1641.67,1561.04 1641.48,1560.76 1641.29,1560.7 1641.1,1560.8 
  1640.91,1560.99 1640.72,1561.24 1640.53,1561.62 1640.34,1561.94 1640.15,1562.32 1639.96,1562.48 1639.78,1562.76 1639.59,1562.96 1639.4,1562.99 1639.22,1563.31 
  1639.03,1563.72 
  "/>
</svg>
